<svg width="291" height="27" viewBox="0 0 291 27" fill="none" xmlns="http://www.w3.org/2000/svg">
<path d="M12.6623 1.2L7.86231 1.2L6.66231 7.92L5.91231 1.2L0.362305 1.2L0.362305 24H3.5423L3.5423 9.09L5.67231 24H6.96231L9.00231 9.18V24H12.6623V1.2ZM24.4753 5.46C24.4753 4.05 23.9953 2.94 23.0653 2.1C22.2253 1.35 21.1753 0.96 19.9453 0.929998C18.6553 0.899999 17.5753 1.26 16.7053 2.01C15.7153 2.85 15.2053 3.99 15.2053 5.46V19.74C15.2053 21.18 15.6853 22.32 16.6453 23.19C17.5153 23.94 18.5953 24.33 19.8253 24.33C21.0853 24.33 22.1353 23.94 23.0053 23.19C23.9953 22.32 24.4753 21.18 24.4753 19.74V5.46ZM20.6953 20.04C20.6953 20.61 20.3953 20.91 19.8253 20.91C19.2553 20.91 18.9553 20.61 18.9553 20.04V5.19C18.9553 4.62 19.2553 4.35 19.8253 4.35C20.3953 4.35 20.6953 4.62 20.6953 5.19V20.04ZM36.8625 24C36.5625 23.49 36.4125 22.68 36.4125 21.57V15.9C36.4125 14.31 35.9625 13.23 35.0625 12.6C35.8725 11.82 36.2925 10.92 36.2925 9.9V5.13C36.2925 4.02 35.9025 3.09 35.1225 2.34C34.3725 1.59 33.4425 1.2 32.3925 1.2L27.0225 1.2V24H30.6825V13.68H31.5825C32.3625 13.68 32.7525 14.34 32.7525 15.66V21.6C32.7525 22.68 32.9025 23.46 33.2025 23.97L36.8625 24ZM32.6325 8.82C32.6325 9.72 32.3025 10.17 31.6125 10.17H30.6825V4.56L31.4925 4.56C32.1825 4.56 32.6325 5.22 32.6325 5.94V8.82ZM47.0798 20.49H42.4598V14.28H45.3698V10.92H42.4598V4.71L47.0798 4.71V1.2L38.7998 1.2V24H47.0798V20.49ZM69.4396 1.2L64.6396 1.2L63.4396 7.92L62.6896 1.2L57.1396 1.2V24H60.3196V9.09L62.4496 24H63.7396L65.7796 9.18V24H69.4396V1.2ZM81.2526 5.46C81.2526 4.05 80.7726 2.94 79.8426 2.1C79.0026 1.35 77.9526 0.96 76.7226 0.929998C75.4326 0.899999 74.3526 1.26 73.4826 2.01C72.4926 2.85 71.9826 3.99 71.9826 5.46V19.74C71.9826 21.18 72.4626 22.32 73.4226 23.19C74.2926 23.94 75.3726 24.33 76.6026 24.33C77.8626 24.33 78.9126 23.94 79.7826 23.19C80.7726 22.32 81.2526 21.18 81.2526 19.74V5.46ZM77.4726 20.04C77.4726 20.61 77.1726 20.91 76.6026 20.91C76.0326 20.91 75.7326 20.61 75.7326 20.04V5.19C75.7326 4.62 76.0326 4.35 76.6026 4.35C77.1726 4.35 77.4726 4.62 77.4726 5.19V20.04ZM93.6398 24C93.3398 23.49 93.1898 22.68 93.1898 21.57V15.9C93.1898 14.31 92.7398 13.23 91.8398 12.6C92.6498 11.82 93.0698 10.92 93.0698 9.9V5.13C93.0698 4.02 92.6798 3.09 91.8998 2.34C91.1498 1.59 90.2198 1.2 89.1698 1.2L83.7998 1.2V24L87.4598 24V13.68H88.3598C89.1398 13.68 89.5298 14.34 89.5298 15.66V21.6C89.5298 22.68 89.6798 23.46 89.9798 23.97L93.6398 24ZM89.4098 8.82C89.4098 9.72 89.0798 10.17 88.3898 10.17H87.4598V4.56H88.2698C88.9598 4.56 89.4098 5.22 89.4098 5.94V8.82ZM103.857 20.49H99.2371V14.28H102.147V10.92H99.2371V4.71H103.857V1.2L95.5771 1.2V24H103.857V20.49ZM126.217 1.2L121.417 1.2L120.217 7.92L119.467 1.2L113.917 1.2V24H117.097V9.09L119.227 24H120.517L122.557 9.18V24H126.217V1.2ZM138.03 5.46C138.03 4.05 137.55 2.94 136.62 2.1C135.78 1.35 134.73 0.96 133.5 0.929998C132.21 0.899999 131.13 1.26 130.26 2.01C129.27 2.85 128.76 3.99 128.76 5.46V19.74C128.76 21.18 129.24 22.32 130.2 23.19C131.07 23.94 132.15 24.33 133.38 24.33C134.64 24.33 135.69 23.94 136.56 23.19C137.55 22.32 138.03 21.18 138.03 19.74V5.46ZM134.25 20.04C134.25 20.61 133.95 20.91 133.38 20.91C132.81 20.91 132.51 20.61 132.51 20.04V5.19C132.51 4.62 132.81 4.35 133.38 4.35C133.95 4.35 134.25 4.62 134.25 5.19V20.04ZM150.417 24C150.117 23.49 149.967 22.68 149.967 21.57V15.9C149.967 14.31 149.517 13.23 148.617 12.6C149.427 11.82 149.847 10.92 149.847 9.9V5.13C149.847 4.02 149.457 3.09 148.677 2.34C147.927 1.59 146.997 1.2 145.947 1.2L140.577 1.2V24H144.237V13.68H145.137C145.917 13.68 146.307 14.34 146.307 15.66V21.6C146.307 22.68 146.457 23.46 146.757 23.97L150.417 24ZM146.187 8.82C146.187 9.72 145.857 10.17 145.167 10.17H144.237V4.56H145.047C145.737 4.56 146.187 5.22 146.187 5.94V8.82ZM160.634 20.49H156.014V14.28H158.924V10.92H156.014V4.71L160.634 4.71V1.2L152.354 1.2V24H160.634V20.49ZM182.994 1.2L178.194 1.2L176.994 7.92L176.244 1.2L170.694 1.2V24H173.874V9.09L176.004 24H177.294L179.334 9.18V24H182.994V1.2ZM194.807 5.46C194.807 4.05 194.327 2.94 193.397 2.1C192.557 1.35 191.507 0.96 190.277 0.929998C188.987 0.899999 187.907 1.26 187.037 2.01C186.047 2.85 185.537 3.99 185.537 5.46V19.74C185.537 21.18 186.017 22.32 186.977 23.19C187.847 23.94 188.927 24.33 190.157 24.33C191.417 24.33 192.467 23.94 193.337 23.19C194.327 22.32 194.807 21.18 194.807 19.74V5.46ZM191.027 20.04C191.027 20.61 190.727 20.91 190.157 20.91C189.587 20.91 189.287 20.61 189.287 20.04V5.19C189.287 4.62 189.587 4.35 190.157 4.35C190.727 4.35 191.027 4.62 191.027 5.19V20.04ZM207.194 24C206.894 23.49 206.744 22.68 206.744 21.57V15.9C206.744 14.31 206.294 13.23 205.394 12.6C206.204 11.82 206.624 10.92 206.624 9.9V5.13C206.624 4.02 206.234 3.09 205.454 2.34C204.704 1.59 203.774 1.2 202.724 1.2L197.354 1.2V24H201.014V13.68H201.914C202.694 13.68 203.084 14.34 203.084 15.66V21.6C203.084 22.68 203.234 23.46 203.534 23.97L207.194 24ZM202.964 8.82C202.964 9.72 202.634 10.17 201.944 10.17H201.014V4.56H201.824C202.514 4.56 202.964 5.22 202.964 5.94V8.82ZM217.412 20.49L212.792 20.49V14.28H215.702V10.92H212.792V4.71H217.412V1.2L209.132 1.2V24L217.412 24V20.49Z" fill="black"/>
<path d="M239.772 1.2L234.972 1.2L233.772 7.92L233.022 1.2L227.472 1.2V24H230.652V9.09L232.782 24H234.072L236.112 9.18V24H239.772V1.2ZM251.585 5.46C251.585 4.05 251.105 2.94 250.175 2.1C249.335 1.35 248.285 0.96 247.055 0.929998C245.765 0.899999 244.685 1.26 243.815 2.01C242.825 2.85 242.315 3.99 242.315 5.46V19.74C242.315 21.18 242.795 22.32 243.755 23.19C244.625 23.94 245.705 24.33 246.935 24.33C248.195 24.33 249.245 23.94 250.115 23.19C251.105 22.32 251.585 21.18 251.585 19.74V5.46ZM247.805 20.04C247.805 20.61 247.505 20.91 246.935 20.91C246.365 20.91 246.065 20.61 246.065 20.04V5.19C246.065 4.62 246.365 4.35 246.935 4.35C247.505 4.35 247.805 4.62 247.805 5.19V20.04ZM263.972 24C263.672 23.49 263.522 22.68 263.522 21.57V15.9C263.522 14.31 263.072 13.23 262.172 12.6C262.982 11.82 263.402 10.92 263.402 9.9V5.13C263.402 4.02 263.012 3.09 262.232 2.34C261.482 1.59 260.552 1.2 259.502 1.2L254.132 1.2V24H257.792V13.68H258.692C259.472 13.68 259.862 14.34 259.862 15.66V21.6C259.862 22.68 260.012 23.46 260.312 23.97L263.972 24ZM259.742 8.82C259.742 9.72 259.412 10.17 258.722 10.17H257.792V4.56H258.602C259.292 4.56 259.742 5.22 259.742 5.94V8.82ZM274.189 20.49H269.569V14.28H272.479V10.92H269.569V4.71L274.189 4.71V1.2L265.909 1.2V24H274.189V20.49Z" fill="#301A1A"/>
</svg>
