<svg width="291" height="26" viewBox="0 0 291 26" fill="none" xmlns="http://www.w3.org/2000/svg">
<path d="M13.1644 0.546739L8.36444 0.546739L7.16444 7.26674L6.41444 0.546739L0.864441 0.546739L0.864441 23.3467H4.04444L4.04444 8.43674L6.17444 23.3467H7.46444L9.50444 8.52674V23.3467H13.1644V0.546739ZM24.9774 4.80674C24.9774 3.39674 24.4974 2.28674 23.5674 1.44674C22.7274 0.696739 21.6774 0.306741 20.4474 0.276739C19.1574 0.24674 18.0774 0.60674 17.2074 1.35674C16.2174 2.19674 15.7074 3.33674 15.7074 4.80674V19.0867C15.7074 20.5267 16.1874 21.6667 17.1474 22.5367C18.0174 23.2867 19.0974 23.6767 20.3274 23.6767C21.5874 23.6767 22.6374 23.2867 23.5074 22.5367C24.4974 21.6667 24.9774 20.5267 24.9774 19.0867V4.80674ZM21.1974 19.3867C21.1974 19.9567 20.8974 20.2567 20.3274 20.2567C19.7574 20.2567 19.4574 19.9567 19.4574 19.3867V4.53674C19.4574 3.96674 19.7574 3.69674 20.3274 3.69674C20.8974 3.69674 21.1974 3.96674 21.1974 4.53674V19.3867ZM37.3646 23.3467C37.0646 22.8367 36.9146 22.0267 36.9146 20.9167V15.2467C36.9146 13.6567 36.4646 12.5767 35.5646 11.9467C36.3746 11.1667 36.7946 10.2667 36.7946 9.24674V4.47674C36.7946 3.36674 36.4046 2.43674 35.6246 1.68674C34.8746 0.93674 33.9446 0.546739 32.8946 0.546739L27.5246 0.546739V23.3467H31.1846V13.0267H32.0846C32.8646 13.0267 33.2546 13.6867 33.2546 15.0067V20.9467C33.2546 22.0267 33.4046 22.8067 33.7046 23.3167L37.3646 23.3467ZM33.1346 8.16674C33.1346 9.06674 32.8046 9.51674 32.1146 9.51674H31.1846V3.90674L31.9946 3.90674C32.6846 3.90674 33.1346 4.56674 33.1346 5.28674V8.16674ZM47.5819 19.8367H42.9619V13.6267H45.8719V10.2667H42.9619V4.05674L47.5819 4.05674V0.546739L39.3019 0.546739V23.3467H47.5819V19.8367ZM69.9418 0.546739L65.1418 0.546739L63.9418 7.26674L63.1918 0.546739L57.6418 0.546739V23.3467H60.8218V8.43674L62.9518 23.3467H64.2418L66.2818 8.52674V23.3467H69.9418V0.546739ZM81.7548 4.80674C81.7548 3.39674 81.2748 2.28674 80.3448 1.44674C79.5048 0.696739 78.4548 0.306741 77.2248 0.276739C75.9348 0.24674 74.8548 0.60674 73.9848 1.35674C72.9948 2.19674 72.4848 3.33674 72.4848 4.80674V19.0867C72.4848 20.5267 72.9648 21.6667 73.9248 22.5367C74.7948 23.2867 75.8748 23.6767 77.1048 23.6767C78.3648 23.6767 79.4148 23.2867 80.2848 22.5367C81.2748 21.6667 81.7548 20.5267 81.7548 19.0867V4.80674ZM77.9748 19.3867C77.9748 19.9567 77.6748 20.2567 77.1048 20.2567C76.5348 20.2567 76.2348 19.9567 76.2348 19.3867V4.53674C76.2348 3.96674 76.5348 3.69674 77.1048 3.69674C77.6748 3.69674 77.9748 3.96674 77.9748 4.53674V19.3867ZM94.1419 23.3467C93.8419 22.8367 93.6919 22.0267 93.6919 20.9167V15.2467C93.6919 13.6567 93.2419 12.5767 92.3419 11.9467C93.1519 11.1667 93.5719 10.2667 93.5719 9.24674V4.47674C93.5719 3.36674 93.1819 2.43674 92.4019 1.68674C91.6519 0.93674 90.7219 0.546739 89.6719 0.546739L84.3019 0.546739V23.3467L87.9619 23.3467V13.0267H88.8619C89.6419 13.0267 90.0319 13.6867 90.0319 15.0067V20.9467C90.0319 22.0267 90.1819 22.8067 90.4819 23.3167L94.1419 23.3467ZM89.9119 8.16674C89.9119 9.06674 89.5819 9.51674 88.8919 9.51674H87.9619V3.90674H88.7719C89.4619 3.90674 89.9119 4.56674 89.9119 5.28674V8.16674ZM104.359 19.8367H99.7393V13.6267H102.649V10.2667H99.7393V4.05674H104.359V0.546739L96.0793 0.546739V23.3467H104.359V19.8367ZM126.719 0.546739L121.919 0.546739L120.719 7.26674L119.969 0.546739L114.419 0.546739V23.3467H117.599V8.43674L119.729 23.3467H121.019L123.059 8.52674V23.3467H126.719V0.546739ZM138.532 4.80674C138.532 3.39674 138.052 2.28674 137.122 1.44674C136.282 0.696739 135.232 0.306741 134.002 0.276739C132.712 0.24674 131.632 0.60674 130.762 1.35674C129.772 2.19674 129.262 3.33674 129.262 4.80674V19.0867C129.262 20.5267 129.742 21.6667 130.702 22.5367C131.572 23.2867 132.652 23.6767 133.882 23.6767C135.142 23.6767 136.192 23.2867 137.062 22.5367C138.052 21.6667 138.532 20.5267 138.532 19.0867V4.80674ZM134.752 19.3867C134.752 19.9567 134.452 20.2567 133.882 20.2567C133.312 20.2567 133.012 19.9567 133.012 19.3867V4.53674C133.012 3.96674 133.312 3.69674 133.882 3.69674C134.452 3.69674 134.752 3.96674 134.752 4.53674V19.3867ZM150.919 23.3467C150.619 22.8367 150.469 22.0267 150.469 20.9167V15.2467C150.469 13.6567 150.019 12.5767 149.119 11.9467C149.929 11.1667 150.349 10.2667 150.349 9.24674V4.47674C150.349 3.36674 149.959 2.43674 149.179 1.68674C148.429 0.93674 147.499 0.546739 146.449 0.546739L141.079 0.546739V23.3467H144.739V13.0267H145.639C146.419 13.0267 146.809 13.6867 146.809 15.0067V20.9467C146.809 22.0267 146.959 22.8067 147.259 23.3167L150.919 23.3467ZM146.689 8.16674C146.689 9.06674 146.359 9.51674 145.669 9.51674H144.739V3.90674H145.549C146.239 3.90674 146.689 4.56674 146.689 5.28674V8.16674ZM161.137 19.8367H156.517V13.6267H159.427V10.2667H156.517V4.05674L161.137 4.05674V0.546739L152.857 0.546739V23.3467H161.137V19.8367ZM183.496 0.546739L178.696 0.546739L177.496 7.26674L176.746 0.546739L171.196 0.546739V23.3467H174.376V8.43674L176.506 23.3467H177.796L179.836 8.52674V23.3467H183.496V0.546739ZM195.309 4.80674C195.309 3.39674 194.829 2.28674 193.899 1.44674C193.059 0.696739 192.009 0.306741 190.779 0.276739C189.489 0.24674 188.409 0.60674 187.539 1.35674C186.549 2.19674 186.039 3.33674 186.039 4.80674V19.0867C186.039 20.5267 186.519 21.6667 187.479 22.5367C188.349 23.2867 189.429 23.6767 190.659 23.6767C191.919 23.6767 192.969 23.2867 193.839 22.5367C194.829 21.6667 195.309 20.5267 195.309 19.0867V4.80674ZM191.529 19.3867C191.529 19.9567 191.229 20.2567 190.659 20.2567C190.089 20.2567 189.789 19.9567 189.789 19.3867V4.53674C189.789 3.96674 190.089 3.69674 190.659 3.69674C191.229 3.69674 191.529 3.96674 191.529 4.53674V19.3867ZM207.697 23.3467C207.397 22.8367 207.247 22.0267 207.247 20.9167V15.2467C207.247 13.6567 206.797 12.5767 205.897 11.9467C206.707 11.1667 207.127 10.2667 207.127 9.24674V4.47674C207.127 3.36674 206.737 2.43674 205.957 1.68674C205.207 0.93674 204.277 0.546739 203.227 0.546739L197.857 0.546739V23.3467H201.517V13.0267H202.417C203.197 13.0267 203.587 13.6867 203.587 15.0067V20.9467C203.587 22.0267 203.737 22.8067 204.037 23.3167L207.697 23.3467ZM203.467 8.16674C203.467 9.06674 203.137 9.51674 202.447 9.51674H201.517V3.90674H202.327C203.017 3.90674 203.467 4.56674 203.467 5.28674V8.16674ZM217.914 19.8367L213.294 19.8367V13.6267H216.204V10.2667H213.294V4.05674H217.914V0.546739L209.634 0.546739V23.3467L217.914 23.3467V19.8367ZM240.274 0.546739L235.474 0.546739L234.274 7.26674L233.524 0.546739L227.974 0.546739V23.3467H231.154V8.43674L233.284 23.3467H234.574L236.614 8.52674V23.3467H240.274V0.546739ZM252.087 4.80674C252.087 3.39674 251.607 2.28674 250.677 1.44674C249.837 0.696739 248.787 0.306741 247.557 0.276739C246.267 0.24674 245.187 0.60674 244.317 1.35674C243.327 2.19674 242.817 3.33674 242.817 4.80674V19.0867C242.817 20.5267 243.297 21.6667 244.257 22.5367C245.127 23.2867 246.207 23.6767 247.437 23.6767C248.697 23.6767 249.747 23.2867 250.617 22.5367C251.607 21.6667 252.087 20.5267 252.087 19.0867V4.80674ZM248.307 19.3867C248.307 19.9567 248.007 20.2567 247.437 20.2567C246.867 20.2567 246.567 19.9567 246.567 19.3867V4.53674C246.567 3.96674 246.867 3.69674 247.437 3.69674C248.007 3.69674 248.307 3.96674 248.307 4.53674V19.3867ZM264.474 23.3467C264.174 22.8367 264.024 22.0267 264.024 20.9167V15.2467C264.024 13.6567 263.574 12.5767 262.674 11.9467C263.484 11.1667 263.904 10.2667 263.904 9.24674V4.47674C263.904 3.36674 263.514 2.43674 262.734 1.68674C261.984 0.93674 261.054 0.546739 260.004 0.546739L254.634 0.546739V23.3467H258.294V13.0267H259.194C259.974 13.0267 260.364 13.6867 260.364 15.0067V20.9467C260.364 22.0267 260.514 22.8067 260.814 23.3167L264.474 23.3467ZM260.244 8.16674C260.244 9.06674 259.914 9.51674 259.224 9.51674H258.294V3.90674H259.104C259.794 3.90674 260.244 4.56674 260.244 5.28674V8.16674ZM274.691 19.8367H270.071V13.6267H272.981V10.2667H270.071V4.05674L274.691 4.05674V0.546739L266.411 0.546739V23.3467H274.691V19.8367Z" fill="white"/>
</svg>
