<svg width="3044" height="173" viewBox="0 0 3044 173" fill="none" xmlns="http://www.w3.org/2000/svg">
<path d="M61.72 28.54V28.79H61.97V28.54H61.72ZM27.84 28.54V28.29H27.59V28.54H27.84ZM27.84 74.08H27.59V74.33H27.84V74.08ZM49.18 74.08H49.43V73.83H49.18V74.08ZM49.18 98.72V98.97H49.43V98.72H49.18ZM27.84 98.72V98.47H27.59V98.72H27.84ZM27.84 170V170.25H28.09V170H27.84ZM1 170H0.75V170.25H1V170ZM1 2.79999V2.54999H0.75V2.79999H1ZM61.72 2.79999H61.97V2.54999H61.72V2.79999ZM61.72 28.29L27.84 28.29V28.79L61.72 28.79V28.29ZM27.59 28.54L27.59 74.08H28.09L28.09 28.54H27.59ZM27.84 74.33L49.18 74.33V73.83L27.84 73.83V74.33ZM48.93 74.08L48.93 98.72H49.43L49.43 74.08H48.93ZM49.18 98.47L27.84 98.47V98.97L49.18 98.97V98.47ZM27.59 98.72L27.59 170H28.09L28.09 98.72H27.59ZM27.84 169.75H1V170.25H27.84L27.84 169.75ZM1.25 170L1.25 2.79999L0.75 2.79999L0.75 170H1.25ZM1 3.04999L61.72 3.04999V2.54999L1 2.54999V3.04999ZM61.47 2.79999L61.47 28.54H61.97L61.97 2.79999H61.47ZM116.9 169.78L116.684 169.905L116.755 170.029L116.898 170.03L116.9 169.78ZM98.4205 94.32V94.07H98.1705V94.32H98.4205ZM98.4205 170V170.25H98.6705V170H98.4205ZM71.5805 170H71.3305V170.25H71.5805V170ZM71.5805 2.79999V2.54999H71.3305V2.79999H71.5805ZM130.98 11.16L130.804 11.3368L130.808 11.3414L130.98 11.16ZM130.54 86.4L130.368 86.2189L130.145 86.4311L130.399 86.6059L130.54 86.4ZM143.74 170L143.738 170.25L144.175 170.254L143.957 169.875L143.74 170ZM98.4205 27.44V27.19H98.1705V27.44H98.4205ZM98.4205 68.58H98.1705V68.83H98.4205V68.58ZM117.117 169.655C114.95 165.899 113.85 160.159 113.85 152.4H113.35C113.35 160.188 114.451 166.035 116.684 169.905L117.117 169.655ZM113.85 152.4V108.84H113.35V152.4H113.85ZM113.85 108.84C113.85 103.984 113.134 100.3 111.671 97.8228C110.195 95.3251 107.967 94.07 105.02 94.07V94.57C107.794 94.57 109.856 95.7349 111.24 98.0772C112.636 100.44 113.35 104.016 113.35 108.84H113.85ZM105.02 94.07H98.4205V94.57H105.02V94.07ZM98.1705 94.32L98.1705 170H98.6705L98.6705 94.32H98.1705ZM98.4205 169.75L71.5805 169.75V170.25L98.4205 170.25V169.75ZM71.8305 170L71.8305 2.79999H71.3305L71.3305 170H71.8305ZM71.5805 3.04999L110.96 3.04999V2.54999L71.5805 2.54999V3.04999ZM110.96 3.04999C118.666 3.04999 125.277 5.80958 130.804 11.3368L131.157 10.9832C125.538 5.36373 118.801 2.54999 110.96 2.54999V3.04999ZM130.808 11.3414C136.476 16.7186 139.31 23.472 139.31 31.62H139.81C139.81 23.3413 136.925 16.4547 131.153 10.9786L130.808 11.3414ZM139.31 31.62L139.31 66.6H139.81L139.81 31.62H139.31ZM139.31 66.6C139.31 74.0037 136.338 80.5403 130.368 86.2189L130.713 86.5811C136.77 80.8197 139.81 74.1563 139.81 66.6H139.31ZM130.399 86.6059C136.904 91.0874 140.19 99.0564 140.19 110.6H140.69C140.69 98.9702 137.377 90.806 130.682 86.1941L130.399 86.6059ZM140.19 110.6V152.18H140.69V110.6H140.19ZM140.19 152.18C140.19 160.259 141.29 166.254 143.524 170.125L143.957 169.875C141.79 166.12 140.69 160.234 140.69 152.18H140.19ZM143.743 169.75L116.903 169.53L116.898 170.03L143.738 170.25L143.743 169.75ZM112.97 37.56C112.97 34.1585 112.269 31.5609 110.823 29.8108C109.37 28.0515 107.2 27.19 104.36 27.19V27.69C107.095 27.69 109.104 28.5152 110.438 30.1292C111.779 31.7524 112.47 34.2148 112.47 37.56H112.97ZM104.36 27.19L98.4205 27.19V27.69L104.36 27.69V27.19ZM98.1705 27.44V68.58H98.6705V27.44H98.1705ZM98.4205 68.83H105.24V68.33H98.4205V68.83ZM105.24 68.83C107.794 68.83 109.746 67.9814 111.05 66.2557C112.344 64.5432 112.97 62.0043 112.97 58.68H112.47C112.47 61.9557 111.85 64.3667 110.651 65.9543C109.462 67.5286 107.673 68.33 105.24 68.33V68.83ZM112.97 58.68V37.56H112.47V58.68H112.97ZM207.448 164.06L207.611 164.249L207.613 164.248L207.448 164.06ZM160.808 164.06L160.639 164.244L160.644 164.249L160.808 164.06ZM161.248 8.73999L161.408 8.93144L161.411 8.9292L161.248 8.73999ZM185.008 0.819988L185.016 0.570118L185.015 0.57011L185.008 0.819988ZM207.888 9.4L208.054 9.21358L208.053 9.21241L207.888 9.4ZM217.978 138.76C217.978 149.256 214.409 157.618 207.283 163.872L207.613 164.248C214.859 157.888 218.478 149.384 218.478 138.76H217.978ZM207.284 163.871C200.879 169.402 193.165 172.17 184.128 172.17V172.67C193.277 172.67 201.109 169.864 207.611 164.249L207.284 163.871ZM184.128 172.17C175.09 172.17 167.376 169.402 160.971 163.871L160.644 164.249C167.146 169.864 174.979 172.67 184.128 172.67V172.17ZM160.977 163.876C153.993 157.474 150.498 149.11 150.498 138.76H149.998C149.998 149.236 153.542 157.739 160.639 164.244L160.977 163.876ZM150.498 138.76L150.498 34.04H149.998L149.998 138.76H150.498ZM150.498 34.04C150.498 23.3974 154.139 15.038 161.408 8.93142L161.087 8.54856C153.69 14.762 149.998 23.2693 149.998 34.04H150.498ZM161.411 8.9292C167.812 3.40113 175.669 0.77828 185 1.06987L185.015 0.57011C175.573 0.275038 167.59 2.93219 161.084 8.55079L161.411 8.9292ZM185 1.06986C194.042 1.36154 201.611 4.20351 207.722 9.58759L208.053 9.21241C201.845 3.74314 194.16 0.865113 185.016 0.570118L185 1.06986ZM207.721 9.58641C214.555 15.6934 217.978 23.8357 217.978 34.04H218.478C218.478 23.7109 215.007 15.4266 208.054 9.21358L207.721 9.58641ZM217.978 34.04L217.978 138.76H218.478L218.478 34.04H217.978ZM190.758 32.06C190.758 29.9658 190.215 28.3499 189.086 27.2601C187.959 26.172 186.291 25.65 184.128 25.65V26.15C186.218 26.15 187.739 26.6547 188.739 27.6198C189.737 28.5835 190.258 30.0475 190.258 32.06H190.758ZM184.128 25.65C181.965 25.65 180.296 26.172 179.169 27.2601C178.04 28.3499 177.498 29.9658 177.498 32.06H177.998C177.998 30.0475 178.518 28.5835 179.516 27.6198C180.516 26.6547 182.037 26.15 184.128 26.15V25.65ZM177.498 32.06L177.498 140.96H177.998L177.998 32.06H177.498ZM177.498 140.96C177.498 143.125 178.039 144.795 179.166 145.922C180.293 147.049 181.962 147.59 184.128 147.59V147.09C182.04 147.09 180.519 146.568 179.519 145.568C178.52 144.568 177.998 143.048 177.998 140.96H177.498ZM184.128 147.59C186.293 147.59 187.963 147.049 189.089 145.922C190.216 144.795 190.758 143.125 190.758 140.96H190.258C190.258 143.048 189.736 144.568 188.736 145.568C187.736 146.568 186.216 147.09 184.128 147.09V147.59ZM190.758 140.96L190.758 32.06H190.258L190.258 140.96H190.758ZM308.627 170V170.25H308.877V170H308.627ZM283.987 170L283.747 170.071L283.801 170.25H283.987V170ZM255.827 75.62L256.067 75.5485L255.577 75.62H255.827ZM255.827 170V170.25H256.077V170H255.827ZM232.507 170H232.257V170.25H232.507V170ZM232.507 2.79999V2.54999H232.257V2.79999H232.507ZM259.347 2.79999L259.585 2.7228L259.529 2.54999H259.347V2.79999ZM283.987 78.7L283.749 78.7772L284.237 78.7H283.987ZM283.987 2.79999V2.54999H283.737V2.79999H283.987ZM308.627 2.79999H308.877V2.54999H308.627V2.79999ZM308.627 169.75H283.987V170.25H308.627V169.75ZM284.227 169.929L256.067 75.5485L255.587 75.6915L283.747 170.071L284.227 169.929ZM255.577 75.62L255.577 170H256.077L256.077 75.62H255.577ZM255.827 169.75L232.507 169.75V170.25L255.827 170.25V169.75ZM232.757 170L232.757 2.79999H232.257L232.257 170H232.757ZM232.507 3.04999L259.347 3.04999V2.54999L232.507 2.54999V3.04999ZM259.109 2.87718L283.749 78.7772L284.225 78.6228L259.585 2.7228L259.109 2.87718ZM284.237 78.7V2.79999H283.737V78.7H284.237ZM283.987 3.04999H308.627V2.54999L283.987 2.54999V3.04999ZM308.377 2.79999L308.377 170H308.877L308.877 2.79999H308.377ZM386.351 28.32V28.57H386.601V28.32H386.351ZM365.891 28.32V28.07H365.641V28.32H365.891ZM365.891 170V170.25H366.141V170H365.891ZM339.051 170H338.801V170.25H339.051V170ZM339.051 28.32H339.301V28.07H339.051V28.32ZM318.591 28.32H318.341V28.57H318.591V28.32ZM318.591 2.79999V2.54999H318.341V2.79999H318.591ZM386.351 2.79999H386.601V2.54999H386.351V2.79999ZM386.351 28.07H365.891V28.57H386.351V28.07ZM365.641 28.32L365.641 170H366.141L366.141 28.32H365.641ZM365.891 169.75H339.051V170.25H365.891V169.75ZM339.301 170L339.301 28.32H338.801L338.801 170H339.301ZM339.051 28.07L318.591 28.07V28.57L339.051 28.57V28.07ZM318.841 28.32V2.79999H318.341V28.32H318.841ZM318.591 3.04999L386.351 3.04999V2.54999L318.591 2.54999V3.04999ZM386.101 2.79999V28.32H386.601V2.79999H386.101ZM507.547 170V170.25H507.797V170H507.547ZM446.827 170H446.577V170.25H446.827V170ZM446.827 2.79999V2.54999H446.577V2.79999H446.827ZM507.547 2.79999H507.797V2.54999H507.547V2.79999ZM507.547 28.54V28.79H507.797V28.54H507.547ZM473.667 28.54V28.29H473.417V28.54H473.667ZM473.667 74.08H473.417V74.33H473.667V74.08ZM495.007 74.08H495.257V73.83H495.007V74.08ZM495.007 98.72V98.97H495.257V98.72H495.007ZM473.667 98.72V98.47H473.417V98.72H473.667ZM473.667 144.26H473.417V144.51H473.667V144.26ZM507.547 144.26H507.797V144.01H507.547V144.26ZM507.547 169.75H446.827V170.25H507.547V169.75ZM447.077 170L447.077 2.79999H446.577L446.577 170H447.077ZM446.827 3.04999L507.547 3.04999V2.54999L446.827 2.54999V3.04999ZM507.297 2.79999V28.54H507.797V2.79999H507.297ZM507.547 28.29L473.667 28.29V28.79L507.547 28.79V28.29ZM473.417 28.54V74.08H473.917V28.54H473.417ZM473.667 74.33L495.007 74.33V73.83L473.667 73.83V74.33ZM494.757 74.08V98.72H495.257V74.08H494.757ZM495.007 98.47L473.667 98.47V98.97L495.007 98.97V98.47ZM473.417 98.72V144.26H473.917V98.72H473.417ZM473.667 144.51H507.547V144.01H473.667V144.51ZM507.297 144.26V170H507.797V144.26H507.297ZM598.039 170V170.25H598.289V170H598.039ZM573.399 170L573.159 170.071L573.212 170.25H573.399V170ZM545.239 75.62L545.478 75.5485L544.989 75.62H545.239ZM545.239 170V170.25H545.489V170H545.239ZM521.919 170H521.669V170.25H521.919V170ZM521.919 2.79999V2.54999H521.669V2.79999H521.919ZM548.759 2.79999L548.997 2.7228L548.94 2.54999H548.759V2.79999ZM573.399 78.7L573.161 78.7772L573.649 78.7H573.399ZM573.399 2.79999V2.54999H573.149V2.79999H573.399ZM598.039 2.79999H598.289V2.54999H598.039V2.79999ZM598.039 169.75H573.399V170.25H598.039V169.75ZM573.638 169.929L545.478 75.5485L544.999 75.6915L573.159 170.071L573.638 169.929ZM544.989 75.62V170H545.489V75.62H544.989ZM545.239 169.75H521.919V170.25H545.239V169.75ZM522.169 170V2.79999H521.669V170H522.169ZM521.919 3.04999L548.759 3.04999V2.54999L521.919 2.54999V3.04999ZM548.521 2.87718L573.161 78.7772L573.637 78.6228L548.997 2.7228L548.521 2.87718ZM573.649 78.7V2.79999H573.149V78.7H573.649ZM573.399 3.04999L598.039 3.04999V2.54999L573.399 2.54999V3.04999ZM597.789 2.79999V170H598.289V2.79999H597.789ZM673.122 161.64L673.286 161.829L673.287 161.828L673.122 161.64ZM615.702 170H615.452V170.25H615.702V170ZM615.702 2.79999V2.54999H615.452V2.79999H615.702ZM673.342 11.38L673.172 11.5632L673.176 11.5664L673.342 11.38ZM648.262 28.54V28.7904L648.276 28.7896L648.262 28.54ZM643.422 28.54V28.29H643.172V28.54H643.422ZM643.422 142.28H643.172V142.53H643.422V142.28ZM653.542 141.62L653.654 141.844L653.668 141.837L653.681 141.828L653.542 141.62ZM683.432 136.78C683.432 147.13 679.937 155.345 672.958 161.452L673.287 161.828C680.388 155.615 683.932 147.256 683.932 136.78H683.432ZM672.959 161.451C666.553 166.983 658.912 169.75 650.022 169.75V170.25C659.026 170.25 666.785 167.444 673.286 161.829L672.959 161.451ZM650.022 169.75H615.702V170.25H650.022V169.75ZM615.952 170V2.79999H615.452V170H615.952ZM615.702 3.04999L650.462 3.04999V2.54999L615.702 2.54999V3.04999ZM650.462 3.04999C659.498 3.04999 667.062 5.88981 673.172 11.5632L673.512 11.1968C667.302 5.43017 659.613 2.54999 650.462 2.54999V3.04999ZM673.176 11.5664C680.009 17.6727 683.432 25.8878 683.432 36.24H683.932C683.932 25.7655 680.462 17.4073 673.509 11.1936L673.176 11.5664ZM683.432 36.24V136.78H683.932V36.24H683.432ZM656.432 37.56C656.432 34.3792 655.768 31.979 654.39 30.41C653.004 28.8316 650.939 28.1409 648.248 28.2904L648.276 28.7896C650.866 28.6457 652.76 29.3118 654.014 30.7399C655.277 32.1777 655.932 34.4341 655.932 37.56H656.432ZM648.262 28.29H643.422V28.79H648.262V28.29ZM643.172 28.54V142.28H643.672V28.54H643.172ZM643.422 142.53H648.922V142.03H643.422V142.53ZM648.922 142.53C651.125 142.53 652.717 142.312 653.654 141.844L653.431 141.396C652.608 141.808 651.12 142.03 648.922 142.03V142.53ZM653.681 141.828C655.549 140.582 656.432 138.049 656.432 134.36H655.932C655.932 138.004 655.055 140.311 653.404 141.412L653.681 141.828ZM656.432 134.36V37.56H655.932V134.36H656.432ZM805.904 161.64L806.068 161.829L806.069 161.828L805.904 161.64ZM748.484 170H748.234V170.25H748.484V170ZM748.484 2.79999V2.54999H748.234V2.79999H748.484ZM806.124 11.38L805.954 11.5632L805.958 11.5664L806.124 11.38ZM781.044 28.54V28.7904L781.058 28.7896L781.044 28.54ZM776.204 28.54V28.29H775.954V28.54H776.204ZM776.204 142.28H775.954V142.53H776.204V142.28ZM786.324 141.62L786.436 141.844L786.45 141.837L786.463 141.828L786.324 141.62ZM816.214 136.78C816.214 147.13 812.719 155.345 805.74 161.452L806.069 161.828C813.17 155.615 816.714 147.256 816.714 136.78H816.214ZM805.741 161.451C799.335 166.983 791.694 169.75 782.804 169.75V170.25C791.808 170.25 799.567 167.444 806.068 161.829L805.741 161.451ZM782.804 169.75H748.484V170.25H782.804V169.75ZM748.734 170V2.79999H748.234V170H748.734ZM748.484 3.04999L783.244 3.04999V2.54999L748.484 2.54999V3.04999ZM783.244 3.04999C792.28 3.04999 799.844 5.88981 805.954 11.5632L806.294 11.1968C800.084 5.43017 792.395 2.54999 783.244 2.54999V3.04999ZM805.958 11.5664C812.791 17.6727 816.214 25.8878 816.214 36.24H816.714C816.714 25.7655 813.244 17.4073 806.291 11.1936L805.958 11.5664ZM816.214 36.24V136.78H816.714V36.24H816.214ZM789.214 37.56C789.214 34.3792 788.55 31.979 787.172 30.41C785.786 28.8316 783.721 28.1409 781.031 28.2904L781.058 28.7896C783.648 28.6457 785.543 29.3118 786.797 30.7399C788.059 32.1777 788.714 34.4341 788.714 37.56H789.214ZM781.044 28.29H776.204V28.79H781.044V28.29ZM775.954 28.54V142.28H776.454V28.54H775.954ZM776.204 142.53H781.704V142.03H776.204V142.53ZM781.704 142.53C783.907 142.53 785.499 142.312 786.436 141.844L786.213 141.396C785.39 141.808 783.902 142.03 781.704 142.03V142.53ZM786.463 141.828C788.331 140.582 789.214 138.049 789.214 134.36H788.714C788.714 138.004 787.837 140.311 786.186 141.412L786.463 141.828ZM789.214 134.36V37.56H788.714V134.36H789.214ZM891.386 170V170.25H891.636V170H891.386ZM830.666 170H830.416V170.25H830.666V170ZM830.666 2.79999V2.54999H830.416V2.79999H830.666ZM891.386 2.79999H891.636V2.54999H891.386V2.79999ZM891.386 28.54V28.79H891.636V28.54H891.386ZM857.506 28.54V28.29H857.256V28.54H857.506ZM857.506 74.08H857.256V74.33H857.506V74.08ZM878.846 74.08H879.096V73.83H878.846V74.08ZM878.846 98.72V98.97H879.096V98.72H878.846ZM857.506 98.72V98.47H857.256V98.72H857.506ZM857.506 144.26H857.256V144.51H857.506V144.26ZM891.386 144.26H891.636V144.01H891.386V144.26ZM891.386 169.75H830.666V170.25H891.386V169.75ZM830.916 170V2.79999H830.416V170H830.916ZM830.666 3.04999L891.386 3.04999V2.54999L830.666 2.54999V3.04999ZM891.136 2.79999V28.54H891.636V2.79999H891.136ZM891.386 28.29H857.506V28.79H891.386V28.29ZM857.256 28.54V74.08H857.756V28.54H857.256ZM857.506 74.33H878.846V73.83H857.506V74.33ZM878.596 74.08V98.72H879.096V74.08H878.596ZM878.846 98.47H857.506V98.97H878.846V98.47ZM857.256 98.72V144.26H857.756V98.72H857.256ZM857.506 144.51H891.386V144.01H857.506V144.51ZM891.136 144.26V170H891.636V144.26H891.136ZM965.819 2.79999L966.066 2.83324L966.104 2.54999H965.819V2.79999ZM943.379 170V170.25H943.597L943.626 170.033L943.379 170ZM917.199 170L916.95 170.028L916.976 170.25H917.199V170ZM898.059 2.79999V2.54999H897.778L897.81 2.82842L898.059 2.79999ZM926.659 2.79999L926.907 2.77229L926.882 2.54999H926.659V2.79999ZM934.359 71.88L934.11 71.9077L934.607 71.9085L934.359 71.88ZM942.279 2.79999V2.54999H942.056L942.03 2.77151L942.279 2.79999ZM965.571 2.76673L943.131 169.967L943.626 170.033L966.066 2.83324L965.571 2.76673ZM943.379 169.75H917.199V170.25H943.379V169.75ZM917.447 169.972L898.307 2.77156L897.81 2.82842L916.95 170.028L917.447 169.972ZM898.059 3.04999H926.659V2.54999L898.059 2.54999V3.04999ZM926.41 2.82768L934.11 71.9077L934.607 71.8523L926.907 2.77229L926.41 2.82768ZM934.607 71.9085L942.527 2.82846L942.03 2.77151L934.11 71.8515L934.607 71.9085ZM942.279 3.04999H965.819V2.54999L942.279 2.54999V3.04999ZM1036.41 170V170.25H1036.66V170H1036.41ZM975.695 170H975.445V170.25H975.695V170ZM975.695 2.79999V2.54999H975.445V2.79999H975.695ZM1036.41 2.79999H1036.66V2.54999H1036.41V2.79999ZM1036.41 28.54V28.79H1036.66V28.54H1036.41ZM1002.53 28.54V28.29H1002.28V28.54H1002.53ZM1002.53 74.08H1002.28V74.33H1002.53V74.08ZM1023.87 74.08H1024.12V73.83H1023.87V74.08ZM1023.87 98.72V98.97H1024.12V98.72H1023.87ZM1002.53 98.72V98.47H1002.28V98.72H1002.53ZM1002.53 144.26H1002.28V144.51H1002.53V144.26ZM1036.41 144.26H1036.66V144.01H1036.41V144.26ZM1036.41 169.75H975.695V170.25H1036.41V169.75ZM975.945 170V2.79999H975.445V170H975.945ZM975.695 3.04999L1036.41 3.04999V2.54999L975.695 2.54999V3.04999ZM1036.16 2.79999V28.54H1036.66V2.79999H1036.16ZM1036.41 28.29L1002.53 28.29V28.79L1036.41 28.79V28.29ZM1002.28 28.54V74.08H1002.78V28.54H1002.28ZM1002.53 74.33L1023.87 74.33V73.83L1002.53 73.83V74.33ZM1023.62 74.08V98.72H1024.12V74.08H1023.62ZM1023.87 98.47L1002.53 98.47V98.97L1023.87 98.97V98.47ZM1002.28 98.72V144.26H1002.78V98.72H1002.28ZM1002.53 144.51H1036.41V144.01H1002.53V144.51ZM1036.16 144.26V170H1036.66V144.26H1036.16ZM1111.51 170V170.25H1111.76V170H1111.51ZM1050.79 170H1050.54V170.25H1050.79V170ZM1050.79 2.79999V2.54999H1050.54V2.79999H1050.79ZM1077.63 2.79999H1077.88V2.54999H1077.63V2.79999ZM1077.63 143.16H1077.38V143.41H1077.63V143.16ZM1111.51 143.16H1111.76V142.91H1111.51V143.16ZM1111.51 169.75H1050.79V170.25H1111.51V169.75ZM1051.04 170V2.79999H1050.54V170H1051.04ZM1050.79 3.04999L1077.63 3.04999V2.54999L1050.79 2.54999V3.04999ZM1077.38 2.79999V143.16H1077.88V2.79999H1077.38ZM1077.63 143.41H1111.51V142.91H1077.63V143.41ZM1111.26 143.16V170H1111.76V143.16H1111.26ZM1175.27 164.06L1175.43 164.249L1175.43 164.248L1175.27 164.06ZM1128.63 164.06L1128.46 164.244L1128.46 164.249L1128.63 164.06ZM1129.07 8.73999L1129.23 8.93144L1129.23 8.9292L1129.07 8.73999ZM1152.83 0.819988L1152.84 0.570118L1152.83 0.57011L1152.83 0.819988ZM1175.71 9.4L1175.87 9.21358L1175.87 9.21241L1175.71 9.4ZM1185.8 138.76C1185.8 149.256 1182.23 157.618 1175.1 163.872L1175.43 164.248C1182.68 157.888 1186.3 149.384 1186.3 138.76H1185.8ZM1175.1 163.871C1168.7 169.402 1160.98 172.17 1151.95 172.17V172.67C1161.1 172.67 1168.93 169.864 1175.43 164.249L1175.1 163.871ZM1151.95 172.17C1142.91 172.17 1135.2 169.402 1128.79 163.871L1128.46 164.249C1134.97 169.864 1142.8 172.67 1151.95 172.67V172.17ZM1128.8 163.876C1121.81 157.474 1118.32 149.11 1118.32 138.76H1117.82C1117.82 149.236 1121.36 157.739 1128.46 164.244L1128.8 163.876ZM1118.32 138.76V34.04H1117.82V138.76H1118.32ZM1118.32 34.04C1118.32 23.3974 1121.96 15.038 1129.23 8.93142L1128.91 8.54856C1121.51 14.762 1117.82 23.2693 1117.82 34.04H1118.32ZM1129.23 8.9292C1135.63 3.40113 1143.49 0.77828 1152.82 1.06987L1152.83 0.57011C1143.39 0.275038 1135.41 2.93219 1128.9 8.55079L1129.23 8.9292ZM1152.82 1.06986C1161.86 1.36154 1169.43 4.20351 1175.54 9.58759L1175.87 9.21241C1169.66 3.74314 1161.98 0.865113 1152.84 0.570118L1152.82 1.06986ZM1175.54 9.58641C1182.37 15.6934 1185.8 23.8357 1185.8 34.04H1186.3C1186.3 23.7109 1182.83 15.4266 1175.87 9.21358L1175.54 9.58641ZM1185.8 34.04V138.76H1186.3V34.04H1185.8ZM1158.58 32.06C1158.58 29.9658 1158.03 28.3499 1156.91 27.2601C1155.78 26.172 1154.11 25.65 1151.95 25.65V26.15C1154.04 26.15 1155.56 26.6547 1156.56 27.6198C1157.56 28.5835 1158.08 30.0475 1158.08 32.06H1158.58ZM1151.95 25.65C1149.78 25.65 1148.12 26.172 1146.99 27.2601C1145.86 28.3499 1145.32 29.9658 1145.32 32.06H1145.82C1145.82 30.0475 1146.34 28.5835 1147.34 27.6198C1148.34 26.6547 1149.86 26.15 1151.95 26.15V25.65ZM1145.32 32.06V140.96H1145.82V32.06H1145.32ZM1145.32 140.96C1145.32 143.125 1145.86 144.795 1146.99 145.922C1148.11 147.049 1149.78 147.59 1151.95 147.59V147.09C1149.86 147.09 1148.34 146.568 1147.34 145.568C1146.34 144.568 1145.82 143.048 1145.82 140.96H1145.32ZM1151.95 147.59C1154.11 147.59 1155.78 147.049 1156.91 145.922C1158.04 144.795 1158.58 143.125 1158.58 140.96H1158.08C1158.08 143.048 1157.56 144.568 1156.56 145.568C1155.56 146.568 1154.04 147.09 1151.95 147.09V147.59ZM1158.58 140.96V32.06H1158.08V140.96H1158.58ZM1259.73 91.9L1259.9 92.0813L1259.9 92.0768L1259.73 91.9ZM1227.17 100.26V100.01H1226.92V100.26H1227.17ZM1227.17 170V170.25H1227.42V170H1227.17ZM1200.33 170H1200.08V170.25H1200.33V170ZM1200.33 2.79999V2.54999H1200.08V2.79999H1200.33ZM1259.73 11.16L1259.55 11.3368L1259.55 11.3414L1259.73 11.16ZM1227.17 27.44V27.19H1226.92V27.44H1227.17ZM1227.17 74.52H1226.92V74.7782L1227.17 74.7699L1227.17 74.52ZM1233.99 74.3V74.0499L1233.98 74.0501L1233.99 74.3ZM1268.06 72.32C1268.06 79.5799 1265.23 86.0448 1259.55 91.7232L1259.9 92.0768C1265.66 86.3152 1268.56 79.7268 1268.56 72.32H1268.06ZM1259.55 91.7187C1253.73 97.2529 1247.19 100.01 1239.93 100.01V100.51C1247.33 100.51 1253.99 97.6937 1259.9 92.0812L1259.55 91.7187ZM1239.93 100.01H1227.17V100.51H1239.93V100.01ZM1226.92 100.26V170H1227.42V100.26H1226.92ZM1227.17 169.75H1200.33V170.25H1227.17V169.75ZM1200.58 170V2.79999H1200.08V170H1200.58ZM1200.33 3.04999L1239.71 3.04999V2.54999L1200.33 2.54999V3.04999ZM1239.71 3.04999C1247.41 3.04999 1254.02 5.80958 1259.55 11.3368L1259.9 10.9832C1254.28 5.36373 1247.55 2.54999 1239.71 2.54999V3.04999ZM1259.55 11.3414C1265.22 16.7186 1268.06 23.472 1268.06 31.62H1268.56C1268.56 23.3413 1265.67 16.4547 1259.9 10.9786L1259.55 11.3414ZM1268.06 31.62V72.32H1268.56V31.62H1268.06ZM1241.72 37.56C1241.72 34.1585 1241.02 31.5609 1239.57 29.8108C1238.12 28.0515 1235.95 27.19 1233.11 27.19V27.69C1235.84 27.69 1237.85 28.5152 1239.18 30.1292C1240.52 31.7524 1241.22 34.2148 1241.22 37.56H1241.72ZM1233.11 27.19H1227.17V27.69H1233.11V27.19ZM1226.92 27.44V74.52H1227.42V27.44H1226.92ZM1227.17 74.7699L1233.99 74.5499L1233.98 74.0501L1227.16 74.2701L1227.17 74.7699ZM1233.99 74.55C1236.54 74.55 1238.49 73.7014 1239.8 71.9757C1241.09 70.2632 1241.72 67.7243 1241.72 64.4H1241.22C1241.22 67.6757 1240.6 70.0867 1239.4 71.6743C1238.21 73.2486 1236.42 74.05 1233.99 74.05V74.55ZM1241.72 64.4V37.56H1241.22V64.4H1241.72ZM1338.93 170V170.25H1339.18V170H1338.93ZM1278.21 170H1277.96V170.25H1278.21V170ZM1278.21 2.79999V2.54999H1277.96V2.79999H1278.21ZM1338.93 2.79999H1339.18V2.54999H1338.93V2.79999ZM1338.93 28.54V28.79H1339.18V28.54H1338.93ZM1305.05 28.54V28.29H1304.8V28.54H1305.05ZM1305.05 74.08H1304.8V74.33H1305.05V74.08ZM1326.39 74.08H1326.64V73.83H1326.39V74.08ZM1326.39 98.72V98.97H1326.64V98.72H1326.39ZM1305.05 98.72V98.47H1304.8V98.72H1305.05ZM1305.05 144.26H1304.8V144.51H1305.05V144.26ZM1338.93 144.26H1339.18V144.01H1338.93V144.26ZM1338.93 169.75L1278.21 169.75V170.25L1338.93 170.25V169.75ZM1278.46 170V2.79999H1277.96V170H1278.46ZM1278.21 3.04999L1338.93 3.04999V2.54999L1278.21 2.54999V3.04999ZM1338.68 2.79999V28.54H1339.18V2.79999H1338.68ZM1338.93 28.29L1305.05 28.29V28.79L1338.93 28.79V28.29ZM1304.8 28.54V74.08H1305.3V28.54H1304.8ZM1305.05 74.33H1326.39V73.83H1305.05V74.33ZM1326.14 74.08V98.72H1326.64V74.08H1326.14ZM1326.39 98.47H1305.05V98.97H1326.39V98.47ZM1304.8 98.72V144.26H1305.3V98.72H1304.8ZM1305.05 144.51L1338.93 144.51V144.01L1305.05 144.01V144.51ZM1338.68 144.26V170H1339.18V144.26H1338.68ZM1398.62 169.78L1398.41 169.905L1398.48 170.029L1398.62 170.03L1398.62 169.78ZM1380.14 94.32V94.07H1379.89V94.32H1380.14ZM1380.14 170V170.25H1380.39V170H1380.14ZM1353.3 170H1353.05V170.25H1353.3V170ZM1353.3 2.79999V2.54999H1353.05V2.79999H1353.3ZM1412.7 11.16L1412.53 11.3368L1412.53 11.3414L1412.7 11.16ZM1412.26 86.4L1412.09 86.2189L1411.87 86.4311L1412.12 86.6059L1412.26 86.4ZM1425.46 170L1425.46 170.25L1425.9 170.254L1425.68 169.875L1425.46 170ZM1380.14 27.44V27.19H1379.89V27.44H1380.14ZM1380.14 68.58H1379.89V68.83H1380.14V68.58ZM1398.84 169.655C1396.67 165.899 1395.57 160.159 1395.57 152.4H1395.07C1395.07 160.188 1396.17 166.035 1398.41 169.905L1398.84 169.655ZM1395.57 152.4V108.84H1395.07V152.4H1395.57ZM1395.57 108.84C1395.57 103.984 1394.86 100.3 1393.39 97.8228C1391.92 95.3251 1389.69 94.07 1386.74 94.07V94.57C1389.52 94.57 1391.58 95.7349 1392.96 98.0772C1394.36 100.44 1395.07 104.016 1395.07 108.84H1395.57ZM1386.74 94.07H1380.14V94.57H1386.74V94.07ZM1379.89 94.32V170H1380.39V94.32H1379.89ZM1380.14 169.75H1353.3V170.25H1380.14V169.75ZM1353.55 170V2.79999H1353.05V170H1353.55ZM1353.3 3.04999L1392.68 3.04999V2.54999L1353.3 2.54999V3.04999ZM1392.68 3.04999C1400.39 3.04999 1407 5.80958 1412.53 11.3368L1412.88 10.9832C1407.26 5.36373 1400.52 2.54999 1392.68 2.54999V3.04999ZM1412.53 11.3414C1418.2 16.7186 1421.03 23.472 1421.03 31.62H1421.53C1421.53 23.3413 1418.65 16.4547 1412.88 10.9786L1412.53 11.3414ZM1421.03 31.62V66.6H1421.53V31.62H1421.03ZM1421.03 66.6C1421.03 74.0037 1418.06 80.5403 1412.09 86.2189L1412.44 86.5811C1418.49 80.8197 1421.53 74.1563 1421.53 66.6H1421.03ZM1412.12 86.6059C1418.63 91.0874 1421.91 99.0564 1421.91 110.6H1422.41C1422.41 98.9702 1419.1 90.806 1412.41 86.1941L1412.12 86.6059ZM1421.91 110.6V152.18H1422.41V110.6H1421.91ZM1421.91 152.18C1421.91 160.259 1423.01 166.254 1425.25 170.125L1425.68 169.875C1423.51 166.12 1422.41 160.234 1422.41 152.18H1421.91ZM1425.47 169.75L1398.63 169.53L1398.62 170.03L1425.46 170.25L1425.47 169.75ZM1394.69 37.56C1394.69 34.1585 1393.99 31.5609 1392.55 29.8108C1391.09 28.0515 1388.92 27.19 1386.08 27.19V27.69C1388.82 27.69 1390.83 28.5152 1392.16 30.1292C1393.5 31.7524 1394.19 34.2148 1394.19 37.56H1394.69ZM1386.08 27.19L1380.14 27.19V27.69L1386.08 27.69V27.19ZM1379.89 27.44V68.58H1380.39V27.44H1379.89ZM1380.14 68.83H1386.96V68.33H1380.14V68.83ZM1386.96 68.83C1389.52 68.83 1391.47 67.9814 1392.77 66.2557C1394.07 64.5432 1394.69 62.0043 1394.69 58.68H1394.19C1394.19 61.9557 1393.57 64.3667 1392.37 65.9543C1391.18 67.5286 1389.4 68.33 1386.96 68.33V68.83ZM1394.69 58.68V37.56H1394.19V58.68H1394.69ZM1492.91 60.44L1492.73 60.2632L1492.73 60.2669L1492.91 60.44ZM1543.51 60.44L1543.33 60.613L1543.33 60.6168L1543.51 60.44ZM1492.91 111.04L1492.73 111.213L1492.74 111.22L1492.91 111.04ZM1482.82 85.74C1482.82 76.1265 1486.24 67.7547 1493.09 60.6131L1492.73 60.2669C1485.79 67.4987 1482.32 75.9935 1482.32 85.74H1482.82ZM1493.09 60.6168C1500.08 53.6237 1508.52 50.13 1518.43 50.13V49.63C1508.39 49.63 1499.82 53.1762 1492.73 60.2632L1493.09 60.6168ZM1518.43 50.13C1528.34 50.13 1536.63 53.6234 1543.33 60.613L1543.69 60.267C1536.9 53.1766 1528.47 49.63 1518.43 49.63V50.13ZM1543.33 60.6168C1550.33 67.6106 1553.82 75.9806 1553.82 85.74H1554.32C1554.32 75.8461 1550.77 67.3494 1543.69 60.2632L1543.33 60.6168ZM1553.82 85.74C1553.82 95.4994 1550.33 103.869 1543.33 110.863L1543.69 111.217C1550.77 104.131 1554.32 95.6339 1554.32 85.74H1553.82ZM1543.33 110.863C1536.49 117.709 1528.19 121.13 1518.43 121.13V121.63C1528.32 121.63 1536.75 118.157 1543.69 111.217L1543.33 110.863ZM1518.43 121.13C1508.67 121.13 1500.22 117.709 1493.08 110.86L1492.74 111.22C1499.97 118.158 1508.54 121.63 1518.43 121.63V121.13ZM1493.09 110.867C1486.24 103.725 1482.82 95.3535 1482.82 85.74H1482.32C1482.32 95.4865 1485.79 103.981 1492.73 111.213L1493.09 110.867ZM1679.59 28.54V28.79H1679.84V28.54H1679.59ZM1645.71 28.54V28.29H1645.46V28.54H1645.71ZM1645.71 74.08H1645.46V74.33H1645.71V74.08ZM1667.05 74.08H1667.3V73.83H1667.05V74.08ZM1667.05 98.72V98.97H1667.3V98.72H1667.05ZM1645.71 98.72V98.47H1645.46V98.72H1645.71ZM1645.71 170V170.25H1645.96V170H1645.71ZM1618.87 170H1618.62V170.25H1618.87V170ZM1618.87 2.79999V2.54999H1618.62V2.79999H1618.87ZM1679.59 2.79999H1679.84V2.54999H1679.59V2.79999ZM1679.59 28.29L1645.71 28.29V28.79L1679.59 28.79V28.29ZM1645.46 28.54V74.08H1645.96V28.54H1645.46ZM1645.71 74.33H1667.05V73.83H1645.71V74.33ZM1666.8 74.08V98.72H1667.3V74.08H1666.8ZM1667.05 98.47H1645.71V98.97H1667.05V98.47ZM1645.46 98.72V170H1645.96V98.72H1645.46ZM1645.71 169.75H1618.87V170.25H1645.71V169.75ZM1619.12 170V2.79999H1618.62V170H1619.12ZM1618.87 3.04999L1679.59 3.04999V2.54999L1618.87 2.54999V3.04999ZM1679.34 2.79999V28.54H1679.84V2.79999H1679.34ZM1734.77 169.78L1734.55 169.905L1734.62 170.029L1734.77 170.03L1734.77 169.78ZM1716.29 94.32V94.07H1716.04V94.32H1716.29ZM1716.29 170V170.25H1716.54V170H1716.29ZM1689.45 170H1689.2V170.25H1689.45V170ZM1689.45 2.79999V2.54999H1689.2V2.79999H1689.45ZM1748.85 11.16L1748.67 11.3368L1748.68 11.3414L1748.85 11.16ZM1748.41 86.4L1748.24 86.2189L1748.01 86.4311L1748.27 86.6059L1748.41 86.4ZM1761.61 170L1761.61 170.25L1762.04 170.254L1761.83 169.875L1761.61 170ZM1716.29 27.44V27.19H1716.04V27.44H1716.29ZM1716.29 68.58H1716.04V68.83H1716.29V68.58ZM1734.99 169.655C1732.82 165.899 1731.72 160.159 1731.72 152.4H1731.22C1731.22 160.188 1732.32 166.035 1734.55 169.905L1734.99 169.655ZM1731.72 152.4V108.84H1731.22V152.4H1731.72ZM1731.72 108.84C1731.72 103.984 1731 100.3 1729.54 97.8228C1728.06 95.3251 1725.83 94.07 1722.89 94.07V94.57C1725.66 94.57 1727.72 95.7349 1729.11 98.0772C1730.5 100.44 1731.22 104.016 1731.22 108.84H1731.72ZM1722.89 94.07H1716.29V94.57H1722.89V94.07ZM1716.04 94.32V170H1716.54V94.32H1716.04ZM1716.29 169.75H1689.45V170.25H1716.29V169.75ZM1689.7 170V2.79999H1689.2V170H1689.7ZM1689.45 3.04999L1728.83 3.04999V2.54999L1689.45 2.54999V3.04999ZM1728.83 3.04999C1736.53 3.04999 1743.14 5.80958 1748.67 11.3368L1749.03 10.9832C1743.41 5.36373 1736.67 2.54999 1728.83 2.54999V3.04999ZM1748.68 11.3414C1754.34 16.7186 1757.18 23.472 1757.18 31.62H1757.68C1757.68 23.3413 1754.79 16.4547 1749.02 10.9786L1748.68 11.3414ZM1757.18 31.62V66.6H1757.68V31.62H1757.18ZM1757.18 66.6C1757.18 74.0037 1754.21 80.5403 1748.24 86.2189L1748.58 86.5811C1754.64 80.8197 1757.68 74.1563 1757.68 66.6H1757.18ZM1748.27 86.6059C1754.77 91.0874 1758.06 99.0564 1758.06 110.6H1758.56C1758.56 98.9702 1755.24 90.806 1748.55 86.1941L1748.27 86.6059ZM1758.06 110.6V152.18H1758.56V110.6H1758.06ZM1758.06 152.18C1758.06 160.259 1759.16 166.254 1761.39 170.125L1761.83 169.875C1759.66 166.12 1758.56 160.234 1758.56 152.18H1758.06ZM1761.61 169.75L1734.77 169.53L1734.77 170.03L1761.61 170.25L1761.61 169.75ZM1730.84 37.56C1730.84 34.1585 1730.14 31.5609 1728.69 29.8108C1727.24 28.0515 1725.07 27.19 1722.23 27.19V27.69C1724.96 27.69 1726.97 28.5152 1728.31 30.1292C1729.65 31.7524 1730.34 34.2148 1730.34 37.56H1730.84ZM1722.23 27.19H1716.29V27.69H1722.23V27.19ZM1716.04 27.44V68.58H1716.54V27.44H1716.04ZM1716.29 68.83H1723.11V68.33H1716.29V68.83ZM1723.11 68.83C1725.66 68.83 1727.61 67.9814 1728.92 66.2557C1730.21 64.5432 1730.84 62.0043 1730.84 58.68H1730.34C1730.34 61.9557 1729.72 64.3667 1728.52 65.9543C1727.33 67.5286 1725.54 68.33 1723.11 68.33V68.83ZM1730.84 58.68V37.56H1730.34V58.68H1730.84ZM1825.32 164.06L1825.48 164.249L1825.48 164.248L1825.32 164.06ZM1778.68 164.06L1778.51 164.244L1778.51 164.249L1778.68 164.06ZM1779.12 8.73999L1779.28 8.93144L1779.28 8.9292L1779.12 8.73999ZM1802.88 0.819988L1802.88 0.570118L1802.88 0.57011L1802.88 0.819988ZM1825.76 9.4L1825.92 9.21358L1825.92 9.21241L1825.76 9.4ZM1835.85 138.76C1835.85 149.256 1832.28 157.618 1825.15 163.872L1825.48 164.248C1832.73 157.888 1836.35 149.384 1836.35 138.76H1835.85ZM1825.15 163.871C1818.75 169.402 1811.03 172.17 1802 172.17V172.67C1811.14 172.67 1818.98 169.864 1825.48 164.249L1825.15 163.871ZM1802 172.17C1792.96 172.17 1785.24 169.402 1778.84 163.871L1778.51 164.249C1785.01 169.864 1792.85 172.67 1802 172.67V172.17ZM1778.84 163.876C1771.86 157.474 1768.37 149.11 1768.37 138.76H1767.87C1767.87 149.236 1771.41 157.739 1778.51 164.244L1778.84 163.876ZM1768.37 138.76V34.04H1767.87V138.76H1768.37ZM1768.37 34.04C1768.37 23.3974 1772.01 15.038 1779.28 8.93142L1778.95 8.54856C1771.56 14.762 1767.87 23.2693 1767.87 34.04H1768.37ZM1779.28 8.9292C1785.68 3.40113 1793.54 0.77828 1802.87 1.06987L1802.88 0.57011C1793.44 0.275038 1785.46 2.93219 1778.95 8.55079L1779.28 8.9292ZM1802.87 1.06986C1811.91 1.36154 1819.48 4.20351 1825.59 9.58759L1825.92 9.21241C1819.71 3.74314 1812.03 0.865113 1802.88 0.570118L1802.87 1.06986ZM1825.59 9.58641C1832.42 15.6934 1835.85 23.8357 1835.85 34.04H1836.35C1836.35 23.7109 1832.87 15.4266 1825.92 9.21358L1825.59 9.58641ZM1835.85 34.04V138.76H1836.35V34.04H1835.85ZM1808.63 32.06C1808.63 29.9658 1808.08 28.3499 1806.95 27.2601C1805.83 26.172 1804.16 25.65 1802 25.65V26.15C1804.09 26.15 1805.61 26.6547 1806.61 27.6198C1807.61 28.5835 1808.13 30.0475 1808.13 32.06H1808.63ZM1802 25.65C1799.83 25.65 1798.16 26.172 1797.04 27.2601C1795.91 28.3499 1795.37 29.9658 1795.37 32.06H1795.87C1795.87 30.0475 1796.39 28.5835 1797.38 27.6198C1798.38 26.6547 1799.91 26.15 1802 26.15V25.65ZM1795.37 32.06V140.96H1795.87V32.06H1795.37ZM1795.37 140.96C1795.37 143.125 1795.91 144.795 1797.03 145.922C1798.16 147.049 1799.83 147.59 1802 147.59V147.09C1799.91 147.09 1798.39 146.568 1797.39 145.568C1796.39 144.568 1795.87 143.048 1795.87 140.96H1795.37ZM1802 147.59C1804.16 147.59 1805.83 147.049 1806.96 145.922C1808.08 144.795 1808.63 143.125 1808.63 140.96H1808.13C1808.13 143.048 1807.6 144.568 1806.6 145.568C1805.6 146.568 1804.08 147.09 1802 147.09V147.59ZM1808.63 140.96V32.06H1808.13V140.96H1808.63ZM1926.5 170V170.25H1926.75V170H1926.5ZM1901.86 170L1901.62 170.071L1901.67 170.25H1901.86V170ZM1873.7 75.62L1873.93 75.5485L1873.45 75.62H1873.7ZM1873.7 170V170.25H1873.95V170H1873.7ZM1850.38 170H1850.13V170.25H1850.38V170ZM1850.38 2.79999V2.54999H1850.13V2.79999H1850.38ZM1877.22 2.79999L1877.45 2.7228L1877.4 2.54999H1877.22V2.79999ZM1901.86 78.7L1901.62 78.7772L1902.11 78.7H1901.86ZM1901.86 2.79999V2.54999H1901.61V2.79999H1901.86ZM1926.5 2.79999H1926.75V2.54999H1926.5V2.79999ZM1926.5 169.75H1901.86V170.25H1926.5V169.75ZM1902.09 169.929L1873.93 75.5485L1873.46 75.6915L1901.62 170.071L1902.09 169.929ZM1873.45 75.62V170H1873.95V75.62H1873.45ZM1873.7 169.75H1850.38V170.25H1873.7V169.75ZM1850.63 170V2.79999H1850.13V170H1850.63ZM1850.38 3.04999L1877.22 3.04999V2.54999L1850.38 2.54999V3.04999ZM1876.98 2.87718L1901.62 78.7772L1902.09 78.6228L1877.45 2.7228L1876.98 2.87718ZM1902.11 78.7V2.79999H1901.61V78.7H1902.11ZM1901.86 3.04999L1926.5 3.04999V2.54999L1901.86 2.54999V3.04999ZM1926.25 2.79999V170H1926.75V2.79999H1926.25ZM2004.22 28.32V28.57H2004.47V28.32H2004.22ZM1983.76 28.32V28.07H1983.51V28.32H1983.76ZM1983.76 170V170.25H1984.01V170H1983.76ZM1956.92 170H1956.67V170.25H1956.92V170ZM1956.92 28.32H1957.17V28.07H1956.92V28.32ZM1936.46 28.32H1936.21V28.57H1936.46V28.32ZM1936.46 2.79999V2.54999H1936.21V2.79999H1936.46ZM2004.22 2.79999H2004.47V2.54999H2004.22V2.79999ZM2004.22 28.07L1983.76 28.07V28.57L2004.22 28.57V28.07ZM1983.51 28.32V170H1984.01V28.32H1983.51ZM1983.76 169.75H1956.92V170.25H1983.76V169.75ZM1957.17 170V28.32H1956.67V170H1957.17ZM1956.92 28.07L1936.46 28.07V28.57L1956.92 28.57V28.07ZM1936.71 28.32V2.79999H1936.21V28.32H1936.71ZM1936.46 3.04999L2004.22 3.04999V2.54999L1936.46 2.54999V3.04999ZM2003.97 2.79999V28.32H2004.47V2.79999H2003.97ZM2125.41 170V170.25H2125.66V170H2125.41ZM2064.69 170H2064.44V170.25H2064.69V170ZM2064.69 2.79999V2.54999H2064.44V2.79999H2064.69ZM2125.41 2.79999H2125.66V2.54999H2125.41V2.79999ZM2125.41 28.54V28.79H2125.66V28.54H2125.41ZM2091.53 28.54V28.29H2091.28V28.54H2091.53ZM2091.53 74.08H2091.28V74.33H2091.53V74.08ZM2112.87 74.08H2113.12V73.83H2112.87V74.08ZM2112.87 98.72V98.97H2113.12V98.72H2112.87ZM2091.53 98.72V98.47H2091.28V98.72H2091.53ZM2091.53 144.26H2091.28V144.51H2091.53V144.26ZM2125.41 144.26H2125.66V144.01H2125.41V144.26ZM2125.41 169.75H2064.69V170.25H2125.41V169.75ZM2064.94 170V2.79999H2064.44V170H2064.94ZM2064.69 3.04999L2125.41 3.04999V2.54999L2064.69 2.54999V3.04999ZM2125.16 2.79999V28.54H2125.66V2.79999H2125.16ZM2125.41 28.29H2091.53V28.79H2125.41V28.29ZM2091.28 28.54V74.08H2091.78V28.54H2091.28ZM2091.53 74.33H2112.87V73.83H2091.53V74.33ZM2112.62 74.08V98.72H2113.12V74.08H2112.62ZM2112.87 98.47H2091.53V98.97H2112.87V98.47ZM2091.28 98.72V144.26H2091.78V98.72H2091.28ZM2091.53 144.51H2125.41V144.01H2091.53V144.51ZM2125.16 144.26V170H2125.66V144.26H2125.16ZM2215.91 170V170.25H2216.16V170H2215.91ZM2191.27 170L2191.03 170.071L2191.08 170.25H2191.27V170ZM2163.11 75.62L2163.35 75.5485L2162.86 75.62H2163.11ZM2163.11 170V170.25H2163.36V170H2163.11ZM2139.79 170H2139.54V170.25H2139.79V170ZM2139.79 2.79999V2.54999H2139.54V2.79999H2139.79ZM2166.63 2.79999L2166.86 2.7228L2166.81 2.54999H2166.63V2.79999ZM2191.27 78.7L2191.03 78.7772L2191.52 78.7H2191.27ZM2191.27 2.79999V2.54999H2191.02V2.79999H2191.27ZM2215.91 2.79999H2216.16V2.54999H2215.91V2.79999ZM2215.91 169.75L2191.27 169.75V170.25L2215.91 170.25V169.75ZM2191.51 169.929L2163.35 75.5485L2162.87 75.6915L2191.03 170.071L2191.51 169.929ZM2162.86 75.62V170H2163.36V75.62H2162.86ZM2163.11 169.75H2139.79V170.25H2163.11V169.75ZM2140.04 170V2.79999H2139.54V170H2140.04ZM2139.79 3.04999H2166.63V2.54999L2139.79 2.54999V3.04999ZM2166.39 2.87718L2191.03 78.7772L2191.5 78.6228L2166.86 2.7228L2166.39 2.87718ZM2191.52 78.7V2.79999H2191.02V78.7H2191.52ZM2191.27 3.04999H2215.91V2.54999L2191.27 2.54999V3.04999ZM2215.66 2.79999V170H2216.16V2.79999H2215.66ZM2290.99 161.64L2291.15 161.829L2291.15 161.828L2290.99 161.64ZM2233.57 170H2233.32V170.25H2233.57V170ZM2233.57 2.79999V2.54999H2233.32V2.79999H2233.57ZM2291.21 11.38L2291.04 11.5632L2291.04 11.5664L2291.21 11.38ZM2266.13 28.54V28.7904L2266.14 28.7896L2266.13 28.54ZM2261.29 28.54V28.29H2261.04V28.54H2261.29ZM2261.29 142.28H2261.04V142.53H2261.29V142.28ZM2271.41 141.62L2271.52 141.844L2271.54 141.837L2271.55 141.828L2271.41 141.62ZM2301.3 136.78C2301.3 147.13 2297.8 155.345 2290.83 161.452L2291.15 161.828C2298.26 155.615 2301.8 147.256 2301.8 136.78H2301.3ZM2290.83 161.451C2284.42 166.983 2276.78 169.75 2267.89 169.75V170.25C2276.89 170.25 2284.65 167.444 2291.15 161.829L2290.83 161.451ZM2267.89 169.75H2233.57V170.25H2267.89V169.75ZM2233.82 170V2.79999H2233.32V170H2233.82ZM2233.57 3.04999L2268.33 3.04999V2.54999L2233.57 2.54999V3.04999ZM2268.33 3.04999C2277.37 3.04999 2284.93 5.88981 2291.04 11.5632L2291.38 11.1968C2285.17 5.43017 2277.48 2.54999 2268.33 2.54999V3.04999ZM2291.04 11.5664C2297.88 17.6727 2301.3 25.8878 2301.3 36.24H2301.8C2301.8 25.7655 2298.33 17.4073 2291.38 11.1936L2291.04 11.5664ZM2301.3 36.24V136.78H2301.8V36.24H2301.3ZM2274.3 37.56C2274.3 34.3792 2273.64 31.979 2272.26 30.41C2270.87 28.8316 2268.81 28.1409 2266.12 28.2904L2266.14 28.7896C2268.73 28.6457 2270.63 29.3118 2271.88 30.7399C2273.14 32.1777 2273.8 34.4341 2273.8 37.56H2274.3ZM2266.13 28.29L2261.29 28.29V28.79L2266.13 28.79V28.29ZM2261.04 28.54V142.28H2261.54V28.54H2261.04ZM2261.29 142.53H2266.79V142.03H2261.29V142.53ZM2266.79 142.53C2268.99 142.53 2270.59 142.312 2271.52 141.844L2271.3 141.396C2270.48 141.808 2268.99 142.03 2266.79 142.03V142.53ZM2271.55 141.828C2273.42 140.582 2274.3 138.049 2274.3 134.36H2273.8C2273.8 138.004 2272.92 140.311 2271.27 141.412L2271.55 141.828ZM2274.3 134.36V37.56H2273.8V134.36H2274.3ZM2423.77 161.64L2423.94 161.829L2423.94 161.828L2423.77 161.64ZM2366.35 170H2366.1V170.25H2366.35V170ZM2366.35 2.79999V2.54999H2366.1V2.79999H2366.35ZM2423.99 11.38L2423.82 11.5632L2423.83 11.5664L2423.99 11.38ZM2398.91 28.54V28.7904L2398.93 28.7896L2398.91 28.54ZM2394.07 28.54V28.29H2393.82V28.54H2394.07ZM2394.07 142.28H2393.82V142.53H2394.07V142.28ZM2404.19 141.62L2404.3 141.844L2404.32 141.837L2404.33 141.828L2404.19 141.62ZM2434.08 136.78C2434.08 147.13 2430.59 155.345 2423.61 161.452L2423.94 161.828C2431.04 155.615 2434.58 147.256 2434.58 136.78H2434.08ZM2423.61 161.451C2417.2 166.983 2409.56 169.75 2400.67 169.75V170.25C2409.68 170.25 2417.43 167.444 2423.94 161.829L2423.61 161.451ZM2400.67 169.75L2366.35 169.75V170.25L2400.67 170.25V169.75ZM2366.6 170V2.79999H2366.1V170H2366.6ZM2366.35 3.04999L2401.11 3.04999V2.54999L2366.35 2.54999V3.04999ZM2401.11 3.04999C2410.15 3.04999 2417.71 5.88981 2423.82 11.5632L2424.16 11.1968C2417.95 5.43017 2410.26 2.54999 2401.11 2.54999V3.04999ZM2423.83 11.5664C2430.66 17.6727 2434.08 25.8878 2434.08 36.24H2434.58C2434.58 25.7655 2431.11 17.4073 2424.16 11.1936L2423.83 11.5664ZM2434.08 36.24V136.78H2434.58V36.24H2434.08ZM2407.08 37.56C2407.08 34.3792 2406.42 31.979 2405.04 30.41C2403.65 28.8316 2401.59 28.1409 2398.9 28.2904L2398.93 28.7896C2401.52 28.6457 2403.41 29.3118 2404.66 30.7399C2405.93 32.1777 2406.58 34.4341 2406.58 37.56H2407.08ZM2398.91 28.29L2394.07 28.29V28.79L2398.91 28.79V28.29ZM2393.82 28.54V142.28H2394.32V28.54H2393.82ZM2394.07 142.53H2399.57V142.03H2394.07V142.53ZM2399.57 142.53C2401.77 142.53 2403.37 142.312 2404.3 141.844L2404.08 141.396C2403.26 141.808 2401.77 142.03 2399.57 142.03V142.53ZM2404.33 141.828C2406.2 140.582 2407.08 138.049 2407.08 134.36H2406.58C2406.58 138.004 2405.71 140.311 2404.05 141.412L2404.33 141.828ZM2407.08 134.36V37.56H2406.58V134.36H2407.08ZM2509.25 170V170.25H2509.5V170H2509.25ZM2448.53 170H2448.28V170.25H2448.53V170ZM2448.53 2.79999V2.54999H2448.28V2.79999H2448.53ZM2509.25 2.79999H2509.5V2.54999H2509.25V2.79999ZM2509.25 28.54V28.79H2509.5V28.54H2509.25ZM2475.37 28.54V28.29H2475.12V28.54H2475.37ZM2475.37 74.08H2475.12V74.33H2475.37V74.08ZM2496.71 74.08H2496.96V73.83H2496.71V74.08ZM2496.71 98.72V98.97H2496.96V98.72H2496.71ZM2475.37 98.72V98.47H2475.12V98.72H2475.37ZM2475.37 144.26H2475.12V144.51H2475.37V144.26ZM2509.25 144.26H2509.5V144.01H2509.25V144.26ZM2509.25 169.75H2448.53V170.25H2509.25V169.75ZM2448.78 170V2.79999H2448.28V170H2448.78ZM2448.53 3.04999L2509.25 3.04999V2.54999L2448.53 2.54999V3.04999ZM2509 2.79999V28.54H2509.5V2.79999H2509ZM2509.25 28.29L2475.37 28.29V28.79L2509.25 28.79V28.29ZM2475.12 28.54V74.08H2475.62V28.54H2475.12ZM2475.37 74.33H2496.71V73.83H2475.37V74.33ZM2496.46 74.08V98.72H2496.96V74.08H2496.46ZM2496.71 98.47H2475.37V98.97H2496.71V98.47ZM2475.12 98.72V144.26H2475.62V98.72H2475.12ZM2475.37 144.51H2509.25V144.01H2475.37V144.51ZM2509 144.26V170H2509.5V144.26H2509ZM2583.69 2.79999L2583.93 2.83324L2583.97 2.54999H2583.69V2.79999ZM2561.25 170V170.25H2561.47L2561.49 170.033L2561.25 170ZM2535.07 170L2534.82 170.028L2534.84 170.25H2535.07V170ZM2515.93 2.79999V2.54999H2515.65L2515.68 2.82842L2515.93 2.79999ZM2544.53 2.79999L2544.77 2.77229L2544.75 2.54999H2544.53V2.79999ZM2552.23 71.88L2551.98 71.9077L2552.47 71.9085L2552.23 71.88ZM2560.15 2.79999V2.54999H2559.92L2559.9 2.77151L2560.15 2.79999ZM2583.44 2.76673L2561 169.967L2561.49 170.033L2583.93 2.83324L2583.44 2.76673ZM2561.25 169.75L2535.07 169.75V170.25L2561.25 170.25V169.75ZM2535.31 169.972L2516.17 2.77156L2515.68 2.82842L2534.82 170.028L2535.31 169.972ZM2515.93 3.04999L2544.53 3.04999V2.54999L2515.93 2.54999V3.04999ZM2544.28 2.82768L2551.98 71.9077L2552.47 71.8523L2544.77 2.77229L2544.28 2.82768ZM2552.47 71.9085L2560.39 2.82846L2559.9 2.77151L2551.98 71.8515L2552.47 71.9085ZM2560.15 3.04999L2583.69 3.04999V2.54999L2560.15 2.54999V3.04999ZM2654.28 170V170.25H2654.53V170H2654.28ZM2593.56 170H2593.31V170.25H2593.56V170ZM2593.56 2.79999V2.54999H2593.31V2.79999H2593.56ZM2654.28 2.79999H2654.53V2.54999H2654.28V2.79999ZM2654.28 28.54V28.79H2654.53V28.54H2654.28ZM2620.4 28.54V28.29H2620.15V28.54H2620.4ZM2620.4 74.08H2620.15V74.33H2620.4V74.08ZM2641.74 74.08H2641.99V73.83H2641.74V74.08ZM2641.74 98.72V98.97H2641.99V98.72H2641.74ZM2620.4 98.72V98.47H2620.15V98.72H2620.4ZM2620.4 144.26H2620.15V144.51H2620.4V144.26ZM2654.28 144.26H2654.53V144.01H2654.28V144.26ZM2654.28 169.75H2593.56V170.25H2654.28V169.75ZM2593.81 170V2.79999H2593.31V170H2593.81ZM2593.56 3.04999L2654.28 3.04999V2.54999L2593.56 2.54999V3.04999ZM2654.03 2.79999V28.54H2654.53V2.79999H2654.03ZM2654.28 28.29H2620.4V28.79H2654.28V28.29ZM2620.15 28.54V74.08H2620.65V28.54H2620.15ZM2620.4 74.33H2641.74V73.83H2620.4V74.33ZM2641.49 74.08V98.72H2641.99V74.08H2641.49ZM2641.74 98.47H2620.4V98.97H2641.74V98.47ZM2620.15 98.72V144.26H2620.65V98.72H2620.15ZM2620.4 144.51H2654.28V144.01H2620.4V144.51ZM2654.03 144.26V170H2654.53V144.26H2654.03ZM2729.37 170V170.25L2729.62 170.25V170L2729.37 170ZM2668.65 170H2668.4V170.25H2668.65V170ZM2668.65 2.79999V2.54999H2668.4V2.79999H2668.65ZM2695.49 2.79999H2695.74V2.54999H2695.49V2.79999ZM2695.49 143.16H2695.24V143.41H2695.49V143.16ZM2729.37 143.16L2729.62 143.16V142.91L2729.37 142.91V143.16ZM2729.37 169.75H2668.65V170.25H2729.37V169.75ZM2668.9 170V2.79999H2668.4V170H2668.9ZM2668.65 3.04999H2695.49V2.54999L2668.65 2.54999V3.04999ZM2695.24 2.79999V143.16H2695.74V2.79999H2695.24ZM2695.49 143.41H2729.37V142.91H2695.49V143.41ZM2729.12 143.16V170L2729.62 170V143.16L2729.12 143.16ZM2793.14 164.06L2793.3 164.249L2793.3 164.248L2793.14 164.06ZM2746.5 164.06L2746.33 164.244L2746.33 164.249L2746.5 164.06ZM2746.94 8.73999L2747.1 8.93144L2747.1 8.9292L2746.94 8.73999ZM2770.7 0.819988L2770.7 0.570118L2770.7 0.57011L2770.7 0.819988ZM2793.58 9.4L2793.74 9.21358L2793.74 9.21241L2793.58 9.4ZM2803.67 138.76C2803.67 149.256 2800.1 157.618 2792.97 163.872L2793.3 164.248C2800.55 157.888 2804.17 149.384 2804.17 138.76H2803.67ZM2792.97 163.871C2786.57 169.402 2778.85 172.17 2769.82 172.17V172.67C2778.96 172.67 2786.8 169.864 2793.3 164.249L2792.97 163.871ZM2769.82 172.17C2760.78 172.17 2753.06 169.402 2746.66 163.871L2746.33 164.249C2752.83 169.864 2760.67 172.67 2769.82 172.67V172.17ZM2746.66 163.876C2739.68 157.474 2736.19 149.11 2736.19 138.76H2735.69C2735.69 149.236 2739.23 157.739 2746.33 164.244L2746.66 163.876ZM2736.19 138.76V34.04H2735.69V138.76H2736.19ZM2736.19 34.04C2736.19 23.3974 2739.83 15.038 2747.1 8.93142L2746.77 8.54856C2739.38 14.762 2735.69 23.2693 2735.69 34.04H2736.19ZM2747.1 8.9292C2753.5 3.40113 2761.36 0.77828 2770.69 1.06987L2770.7 0.57011C2761.26 0.275038 2753.28 2.93219 2746.77 8.55079L2747.1 8.9292ZM2770.69 1.06986C2779.73 1.36154 2787.3 4.20351 2793.41 9.58759L2793.74 9.21241C2787.53 3.74314 2779.85 0.865113 2770.7 0.570118L2770.69 1.06986ZM2793.41 9.58641C2800.24 15.6934 2803.67 23.8357 2803.67 34.04H2804.17C2804.17 23.7109 2800.69 15.4266 2793.74 9.21358L2793.41 9.58641ZM2803.67 34.04V138.76H2804.17V34.04H2803.67ZM2776.45 32.06C2776.45 29.9658 2775.9 28.3499 2774.77 27.2601C2773.65 26.172 2771.98 25.65 2769.82 25.65V26.15C2771.91 26.15 2773.43 26.6547 2774.43 27.6198C2775.42 28.5835 2775.95 30.0475 2775.95 32.06H2776.45ZM2769.82 25.65C2767.65 25.65 2765.98 26.172 2764.86 27.2601C2763.73 28.3499 2763.19 29.9658 2763.19 32.06H2763.69C2763.69 30.0475 2764.21 28.5835 2765.2 27.6198C2766.2 26.6547 2767.72 26.15 2769.82 26.15V25.65ZM2763.19 32.06V140.96H2763.69V32.06H2763.19ZM2763.19 140.96C2763.19 143.125 2763.73 144.795 2764.85 145.922C2765.98 147.049 2767.65 147.59 2769.82 147.59V147.09C2767.73 147.09 2766.21 146.568 2765.21 145.568C2764.21 144.568 2763.69 143.048 2763.69 140.96H2763.19ZM2769.82 147.59C2771.98 147.59 2773.65 147.049 2774.78 145.922C2775.9 144.795 2776.45 143.125 2776.45 140.96H2775.95C2775.95 143.048 2775.42 144.568 2774.42 145.568C2773.42 146.568 2771.9 147.09 2769.82 147.09V147.59ZM2776.45 140.96V32.06H2775.95V140.96H2776.45ZM2877.59 91.9L2877.77 92.0813L2877.77 92.0768L2877.59 91.9ZM2845.03 100.26V100.01H2844.78V100.26H2845.03ZM2845.03 170V170.25H2845.28V170H2845.03ZM2818.19 170H2817.94V170.25H2818.19V170ZM2818.19 2.79999V2.54999H2817.94V2.79999H2818.19ZM2877.59 11.16L2877.42 11.3368L2877.42 11.3414L2877.59 11.16ZM2845.03 27.44V27.19H2844.78V27.44H2845.03ZM2845.03 74.52H2844.78V74.7782L2845.04 74.7699L2845.03 74.52ZM2851.85 74.3V74.0499L2851.85 74.0501L2851.85 74.3ZM2885.92 72.32C2885.92 79.5799 2883.1 86.0448 2877.42 91.7232L2877.77 92.0768C2883.53 86.3152 2886.42 79.7268 2886.42 72.32H2885.92ZM2877.42 91.7187C2871.6 97.2529 2865.06 100.01 2857.79 100.01V100.51C2865.2 100.51 2871.86 97.6937 2877.77 92.0812L2877.42 91.7187ZM2857.79 100.01H2845.03V100.51H2857.79V100.01ZM2844.78 100.26V170H2845.28V100.26H2844.78ZM2845.03 169.75H2818.19V170.25H2845.03V169.75ZM2818.44 170V2.79999H2817.94V170H2818.44ZM2818.19 3.04999L2857.57 3.04999V2.54999L2818.19 2.54999V3.04999ZM2857.57 3.04999C2865.28 3.04999 2871.89 5.80958 2877.42 11.3368L2877.77 10.9832C2872.15 5.36373 2865.42 2.54999 2857.57 2.54999V3.04999ZM2877.42 11.3414C2883.09 16.7186 2885.92 23.472 2885.92 31.62H2886.42C2886.42 23.3413 2883.54 16.4547 2877.77 10.9786L2877.42 11.3414ZM2885.92 31.62V72.32H2886.42V31.62H2885.92ZM2859.58 37.56C2859.58 34.1585 2858.88 31.5609 2857.44 29.8108C2855.98 28.0515 2853.81 27.19 2850.97 27.19V27.69C2853.71 27.69 2855.72 28.5152 2857.05 30.1292C2858.39 31.7524 2859.08 34.2148 2859.08 37.56H2859.58ZM2850.97 27.19H2845.03V27.69H2850.97V27.19ZM2844.78 27.44V74.52H2845.28V27.44H2844.78ZM2845.04 74.7699L2851.86 74.5499L2851.85 74.0501L2845.03 74.2701L2845.04 74.7699ZM2851.85 74.55C2854.41 74.55 2856.36 73.7014 2857.66 71.9757C2858.96 70.2632 2859.58 67.7243 2859.58 64.4H2859.08C2859.08 67.6757 2858.46 70.0867 2857.27 71.6743C2856.08 73.2486 2854.29 74.05 2851.85 74.05V74.55ZM2859.58 64.4V37.56H2859.08V64.4H2859.58ZM2956.8 170V170.25H2957.05V170H2956.8ZM2896.08 170H2895.83V170.25H2896.08V170ZM2896.08 2.79999V2.54999H2895.83V2.79999H2896.08ZM2956.8 2.79999H2957.05V2.54999H2956.8V2.79999ZM2956.8 28.54V28.79H2957.05V28.54H2956.8ZM2922.92 28.54V28.29H2922.67V28.54H2922.92ZM2922.92 74.08H2922.67V74.33H2922.92V74.08ZM2944.26 74.08H2944.51V73.83H2944.26V74.08ZM2944.26 98.72V98.97H2944.51V98.72H2944.26ZM2922.92 98.72V98.47H2922.67V98.72H2922.92ZM2922.92 144.26H2922.67V144.51H2922.92V144.26ZM2956.8 144.26H2957.05V144.01H2956.8V144.26ZM2956.8 169.75L2896.08 169.75V170.25L2956.8 170.25V169.75ZM2896.33 170V2.79999H2895.83V170H2896.33ZM2896.08 3.04999L2956.8 3.04999V2.54999L2896.08 2.54999V3.04999ZM2956.55 2.79999V28.54H2957.05V2.79999H2956.55ZM2956.8 28.29L2922.92 28.29V28.79L2956.8 28.79V28.29ZM2922.67 28.54V74.08H2923.17V28.54H2922.67ZM2922.92 74.33H2944.26V73.83H2922.92V74.33ZM2944.01 74.08V98.72H2944.51V74.08H2944.01ZM2944.26 98.47H2922.92V98.97H2944.26V98.47ZM2922.67 98.72V144.26H2923.17V98.72H2922.67ZM2922.92 144.51H2956.8V144.01H2922.92V144.51ZM2956.55 144.26V170H2957.05V144.26H2956.55ZM3016.49 169.78L3016.28 169.905L3016.35 170.029L3016.49 170.03L3016.49 169.78ZM2998.01 94.32V94.07H2997.76V94.32H2998.01ZM2998.01 170V170.25H2998.26V170H2998.01ZM2971.17 170H2970.92V170.25H2971.17V170ZM2971.17 2.79999V2.54999H2970.92V2.79999H2971.17ZM3030.57 11.16L3030.4 11.3368L3030.4 11.3414L3030.57 11.16ZM3030.13 86.4L3029.96 86.2189L3029.74 86.4311L3029.99 86.6059L3030.13 86.4ZM3043.33 170L3043.33 170.25L3043.77 170.254L3043.55 169.875L3043.33 170ZM2998.01 27.44V27.19H2997.76V27.44H2998.01ZM2998.01 68.58H2997.76V68.83H2998.01V68.58ZM3016.71 169.655C3014.54 165.899 3013.44 160.159 3013.44 152.4H3012.94C3012.94 160.188 3014.04 166.035 3016.28 169.905L3016.71 169.655ZM3013.44 152.4V108.84H3012.94V152.4H3013.44ZM3013.44 108.84C3013.44 103.984 3012.73 100.3 3011.26 97.8228C3009.79 95.3251 3007.56 94.07 3004.61 94.07V94.57C3007.39 94.57 3009.45 95.7349 3010.83 98.0772C3012.23 100.44 3012.94 104.016 3012.94 108.84H3013.44ZM3004.61 94.07H2998.01V94.57H3004.61V94.07ZM2997.76 94.32V170H2998.26V94.32H2997.76ZM2998.01 169.75H2971.17V170.25H2998.01V169.75ZM2971.42 170V2.79999H2970.92V170H2971.42ZM2971.17 3.04999L3010.55 3.04999V2.54999L2971.17 2.54999V3.04999ZM3010.55 3.04999C3018.26 3.04999 3024.87 5.80958 3030.4 11.3368L3030.75 10.9832C3025.13 5.36373 3018.39 2.54999 3010.55 2.54999V3.04999ZM3030.4 11.3414C3036.07 16.7186 3038.9 23.472 3038.9 31.62H3039.4C3039.4 23.3413 3036.52 16.4547 3030.74 10.9786L3030.4 11.3414ZM3038.9 31.62V66.6H3039.4V31.62H3038.9ZM3038.9 66.6C3038.9 74.0037 3035.93 80.5403 3029.96 86.2189L3030.3 86.5811C3036.36 80.8197 3039.4 74.1563 3039.4 66.6H3038.9ZM3029.99 86.6059C3036.5 91.0874 3039.78 99.0564 3039.78 110.6H3040.28C3040.28 98.9702 3036.97 90.806 3030.27 86.1941L3029.99 86.6059ZM3039.78 110.6V152.18H3040.28V110.6H3039.78ZM3039.78 152.18C3039.78 160.259 3040.88 166.254 3043.12 170.125L3043.55 169.875C3041.38 166.12 3040.28 160.234 3040.28 152.18H3039.78ZM3043.33 169.75L3016.49 169.53L3016.49 170.03L3043.33 170.25L3043.33 169.75ZM3012.56 37.56C3012.56 34.1585 3011.86 31.5609 3010.41 29.8108C3008.96 28.0515 3006.79 27.19 3003.95 27.19V27.69C3006.69 27.69 3008.7 28.5152 3010.03 30.1292C3011.37 31.7524 3012.06 34.2148 3012.06 37.56H3012.56ZM3003.95 27.19H2998.01V27.69H3003.95V27.19ZM2997.76 27.44V68.58H2998.26V27.44H2997.76ZM2998.01 68.83H3004.83V68.33H2998.01V68.83ZM3004.83 68.83C3007.39 68.83 3009.34 67.9814 3010.64 66.2557C3011.94 64.5432 3012.56 62.0043 3012.56 58.68H3012.06C3012.06 61.9557 3011.44 64.3667 3010.24 65.9543C3009.05 67.5286 3007.26 68.33 3004.83 68.33V68.83ZM3012.56 58.68V37.56H3012.06V58.68H3012.56Z" fill="#FF0000"/>
</svg>
