<svg width="3240" height="243" viewBox="0 0 3240 243" fill="none" xmlns="http://www.w3.org/2000/svg">
<path d="M71.72 31.8H71.97V31.55H71.72V31.8ZM11 31.8V31.55H10.75V31.8H11ZM11 199H10.75V199.25H11V199ZM37.84 199V199.25H38.09V199H37.84ZM37.84 127.72V127.47H37.59V127.72H37.84ZM59.18 127.72V127.97H59.43V127.72H59.18ZM59.18 103.08H59.43V102.83H59.18V103.08ZM37.84 103.08H37.59V103.33H37.84V103.08ZM37.84 57.54V57.29H37.59V57.54H37.84ZM71.72 57.54V57.79H71.97V57.54H71.72ZM71.72 31.55L11 31.55V32.05L71.72 32.05V31.55ZM10.75 31.8L10.75 199H11.25L11.25 31.8L10.75 31.8ZM11 199.25H37.84L37.84 198.75H11V199.25ZM38.09 199L38.09 127.72H37.59L37.59 199H38.09ZM37.84 127.97L59.18 127.97V127.47L37.84 127.47V127.97ZM59.43 127.72L59.43 103.08H58.93L58.93 127.72H59.43ZM59.18 102.83L37.84 102.83V103.33L59.18 103.33V102.83ZM38.09 103.08L38.09 57.54H37.59L37.59 103.08H38.09ZM37.84 57.79L71.72 57.79V57.29L37.84 57.29V57.79ZM71.97 57.54L71.97 31.8H71.47L71.47 57.54H71.97ZM153.74 199L153.738 199.25L154.18 199.254L153.956 198.873L153.74 199ZM140.54 115.4L140.367 115.22L140.148 115.431L140.397 115.605L140.54 115.4ZM140.98 40.16L140.804 40.3368L140.807 40.3402L140.98 40.16ZM81.5805 31.8V31.55H81.3305V31.8H81.5805ZM81.5805 199H81.3305V199.25H81.5805V199ZM108.42 199V199.25H108.67V199H108.42ZM108.42 123.32V123.07H108.17V123.32H108.42ZM126.9 198.78L126.685 198.907L126.757 199.029L126.898 199.03L126.9 198.78ZM108.42 97.58H108.17V97.83H108.42V97.58ZM108.42 56.44V56.19H108.17V56.44H108.42ZM153.956 198.873C151.791 195.193 150.69 189.308 150.69 181.18H150.19C150.19 189.332 151.29 195.327 153.525 199.127L153.956 198.873ZM150.69 181.18V139.6H150.19V181.18H150.69ZM150.69 139.6C150.69 127.895 147.376 119.88 140.684 115.195L140.397 115.605C146.905 120.16 150.19 127.985 150.19 139.6H150.69ZM140.714 115.58C146.695 109.82 149.81 103.158 149.81 95.6H149.31C149.31 103.002 146.266 109.54 140.367 115.22L140.714 115.58ZM149.81 95.6L149.81 60.62H149.31L149.31 95.6H149.81ZM149.81 60.62C149.81 52.414 146.924 45.5283 141.154 39.9798L140.807 40.3402C146.477 45.7917 149.31 52.546 149.31 60.62H149.81ZM141.157 39.9832C135.611 34.4372 128.728 31.55 120.96 31.55V32.05C128.593 32.05 135.35 34.8828 140.804 40.3368L141.157 39.9832ZM120.96 31.55L81.5805 31.55V32.05L120.96 32.05V31.55ZM81.3305 31.8L81.3305 199H81.8305L81.8305 31.8H81.3305ZM81.5805 199.25L108.42 199.25V198.75L81.5805 198.75V199.25ZM108.67 199L108.67 123.32H108.17L108.17 199H108.67ZM108.42 123.57H115.02V123.07H108.42V123.57ZM115.02 123.57C117.794 123.57 119.856 124.735 121.24 127.077C122.636 129.44 123.35 133.016 123.35 137.84H123.85C123.85 132.984 123.134 129.3 121.671 126.823C120.195 124.325 117.967 123.07 115.02 123.07V123.57ZM123.35 137.84V181.4H123.85V137.84H123.35ZM123.35 181.4C123.35 189.334 124.451 195.109 126.685 198.907L127.116 198.653C124.95 194.971 123.85 189.306 123.85 181.4H123.35ZM126.898 199.03L153.738 199.25L153.743 198.75L126.903 198.53L126.898 199.03ZM122.47 87.68C122.47 90.9571 121.868 93.3679 120.678 94.955C119.498 96.528 117.711 97.33 115.24 97.33V97.83C117.83 97.83 119.783 96.982 121.078 95.255C122.363 93.5421 122.97 91.0029 122.97 87.68H122.47ZM115.24 97.33H108.42V97.83H115.24V97.33ZM108.67 97.58V56.44H108.17V97.58H108.67ZM108.42 56.69L114.36 56.69V56.19L108.42 56.19V56.69ZM114.36 56.69C119.228 56.69 122.47 61.3565 122.47 66.56H122.97C122.97 61.2035 119.613 56.19 114.36 56.19V56.69ZM122.47 66.56V87.68H122.97V66.56H122.47ZM217.888 38.4L218.055 38.2145L218.054 38.2135L217.888 38.4ZM195.008 29.82L195.014 29.5701L195.013 29.5701L195.008 29.82ZM171.248 37.74L171.409 37.9306L171.411 37.9293L171.248 37.74ZM170.808 193.06L170.64 193.245L170.644 193.249L170.808 193.06ZM217.448 193.06L217.611 193.249L217.613 193.248L217.448 193.06ZM228.478 63.04C228.478 52.636 224.932 44.4262 218.055 38.2145L217.72 38.5855C224.483 44.6938 227.978 52.764 227.978 63.04H228.478ZM218.054 38.2135C211.845 32.6697 204.086 29.7914 195.014 29.5701L195.002 30.0699C203.969 30.2886 211.61 33.1303 217.721 38.5865L218.054 38.2135ZM195.013 29.5701C185.5 29.3488 177.517 32.0052 171.084 37.5506L171.411 37.9293C177.738 32.4748 185.596 29.8512 195.002 30.0699L195.013 29.5701ZM171.086 37.5494C163.764 43.7617 159.998 52.1944 159.998 63.04H160.498C160.498 52.3256 164.211 44.0383 171.409 37.9306L171.086 37.5494ZM159.998 63.04L159.998 167.76H160.498L160.498 63.04H159.998ZM159.998 167.76C159.998 178.383 163.542 186.813 170.64 193.245L170.976 192.875C163.993 186.547 160.498 178.257 160.498 167.76H159.998ZM170.644 193.249C177.073 198.791 185.052 201.67 194.128 201.67V201.17C185.164 201.17 177.303 198.329 170.971 192.871L170.644 193.249ZM194.128 201.67C203.424 201.67 211.183 198.79 217.611 193.249L217.284 192.871C210.952 198.33 203.311 201.17 194.128 201.17V201.67ZM217.613 193.248C224.933 186.815 228.478 178.383 228.478 167.76H227.978C227.978 178.257 224.482 186.545 217.283 192.872L217.613 193.248ZM228.478 167.76L228.478 63.04H227.978L227.978 167.76H228.478ZM200.258 169.96C200.258 172.008 199.719 173.53 198.708 174.541C197.698 175.551 196.176 176.09 194.128 176.09V176.59C196.259 176.59 197.928 176.029 199.062 174.894C200.196 173.76 200.758 172.092 200.758 169.96H200.258ZM194.128 176.09C192.079 176.09 190.558 175.551 189.547 174.541C188.536 173.53 187.998 172.008 187.998 169.96H187.498C187.498 172.092 188.059 173.76 189.193 174.894C190.328 176.029 191.996 176.59 194.128 176.59V176.09ZM187.998 169.96L187.998 61.06H187.498L187.498 169.96H187.998ZM187.998 61.06C187.998 59.0119 188.536 57.5485 189.542 56.5939C190.551 55.6369 192.073 55.15 194.128 55.15V54.65C192.002 54.65 190.334 55.1531 189.198 56.2311C188.059 57.3115 187.498 58.9281 187.498 61.06H187.998ZM194.128 55.15C196.182 55.15 197.704 55.6369 198.713 56.5939C199.719 57.5485 200.258 59.0119 200.258 61.06H200.758C200.758 58.9281 200.196 57.3115 199.057 56.2311C197.921 55.1531 196.253 54.65 194.128 54.65V55.15ZM200.258 61.06L200.258 169.96H200.758L200.758 61.06H200.258ZM318.627 31.8H318.877V31.55H318.627V31.8ZM293.987 31.8V31.55H293.737V31.8H293.987ZM293.987 107.7L293.749 107.777L294.237 107.7H293.987ZM269.347 31.8L269.585 31.7228L269.529 31.55H269.347V31.8ZM242.507 31.8V31.55H242.257V31.8H242.507ZM242.507 199H242.257V199.25H242.507V199ZM265.827 199V199.25H266.077V199H265.827ZM265.827 104.62L266.067 104.549L265.577 104.62H265.827ZM293.987 199L293.747 199.071L293.801 199.25H293.987V199ZM318.627 199V199.25H318.877V199H318.627ZM318.627 31.55L293.987 31.55V32.05H318.627V31.55ZM293.737 31.8V107.7H294.237V31.8H293.737ZM294.225 107.623L269.585 31.7228L269.109 31.8772L293.749 107.777L294.225 107.623ZM269.347 31.55L242.507 31.55V32.05L269.347 32.05V31.55ZM242.257 31.8L242.257 199H242.757L242.757 31.8H242.257ZM242.507 199.25L265.827 199.25V198.75L242.507 198.75V199.25ZM266.077 199L266.077 104.62H265.577L265.577 199H266.077ZM265.587 104.691L293.747 199.071L294.227 198.929L266.067 104.549L265.587 104.691ZM293.987 199.25H318.627V198.75H293.987V199.25ZM318.877 199L318.877 31.8H318.377L318.377 199H318.877ZM396.351 31.8H396.601V31.55H396.351V31.8ZM328.591 31.8V31.55H328.341V31.8H328.591ZM328.591 57.32H328.341V57.57H328.591V57.32ZM349.051 57.32H349.301V57.07H349.051V57.32ZM349.051 199H348.801V199.25H349.051V199ZM375.891 199V199.25H376.141V199H375.891ZM375.891 57.32V57.07H375.641V57.32H375.891ZM396.351 57.32V57.57H396.601V57.32H396.351ZM396.351 31.55L328.591 31.55V32.05L396.351 32.05V31.55ZM328.341 31.8V57.32H328.841V31.8H328.341ZM328.591 57.57L349.051 57.57V57.07L328.591 57.07V57.57ZM348.801 57.32L348.801 199H349.301L349.301 57.32H348.801ZM349.051 199.25H375.891V198.75H349.051V199.25ZM376.141 199L376.141 57.32H375.641L375.641 199H376.141ZM375.891 57.57H396.351V57.07H375.891V57.57ZM396.601 57.32V31.8H396.101V57.32H396.601ZM517.547 173.26H517.797V173.01H517.547V173.26ZM483.667 173.26H483.417V173.51H483.667V173.26ZM483.667 127.72V127.47H483.417V127.72H483.667ZM505.007 127.72V127.97H505.257V127.72H505.007ZM505.007 103.08H505.257V102.83H505.007V103.08ZM483.667 103.08H483.417V103.33H483.667V103.08ZM483.667 57.54V57.29H483.417V57.54H483.667ZM517.547 57.54V57.79H517.797V57.54H517.547ZM517.547 31.8H517.797V31.55H517.547V31.8ZM456.827 31.8V31.55H456.577V31.8H456.827ZM456.827 199H456.577V199.25H456.827V199ZM517.547 199V199.25H517.797V199H517.547ZM517.547 173.01H483.667V173.51H517.547V173.01ZM483.917 173.26V127.72H483.417V173.26H483.917ZM483.667 127.97L505.007 127.97V127.47L483.667 127.47V127.97ZM505.257 127.72V103.08H504.757V127.72H505.257ZM505.007 102.83L483.667 102.83V103.33L505.007 103.33V102.83ZM483.917 103.08V57.54H483.417V103.08H483.917ZM483.667 57.79L517.547 57.79V57.29L483.667 57.29V57.79ZM517.797 57.54V31.8H517.297V57.54H517.797ZM517.547 31.55L456.827 31.55V32.05L517.547 32.05V31.55ZM456.577 31.8L456.577 199H457.077L457.077 31.8H456.577ZM456.827 199.25H517.547V198.75H456.827V199.25ZM517.797 199V173.26H517.297V199H517.797ZM608.039 31.8H608.289V31.55H608.039V31.8ZM583.399 31.8V31.55H583.149V31.8H583.399ZM583.399 107.7L583.161 107.777L583.649 107.7H583.399ZM558.759 31.8L558.997 31.7228L558.94 31.55H558.759V31.8ZM531.919 31.8V31.55H531.669V31.8H531.919ZM531.919 199H531.669V199.25H531.919V199ZM555.239 199V199.25H555.489V199H555.239ZM555.239 104.62L555.478 104.549L554.989 104.62H555.239ZM583.399 199L583.159 199.071L583.212 199.25H583.399V199ZM608.039 199V199.25H608.289V199H608.039ZM608.039 31.55L583.399 31.55V32.05L608.039 32.05V31.55ZM583.149 31.8V107.7H583.649V31.8H583.149ZM583.637 107.623L558.997 31.7228L558.521 31.8772L583.161 107.777L583.637 107.623ZM558.759 31.55L531.919 31.55V32.05L558.759 32.05V31.55ZM531.669 31.8V199H532.169V31.8H531.669ZM531.919 199.25H555.239V198.75H531.919V199.25ZM555.489 199V104.62H554.989V199H555.489ZM554.999 104.691L583.159 199.071L583.638 198.929L555.478 104.549L554.999 104.691ZM583.399 199.25H608.039V198.75H583.399V199.25ZM608.289 199V31.8H607.789V199H608.289ZM683.342 40.38L683.172 40.5632L683.175 40.5655L683.342 40.38ZM625.702 31.8V31.55H625.452V31.8H625.702ZM625.702 199H625.452V199.25H625.702V199ZM683.122 190.64L683.286 190.829L683.287 190.828L683.122 190.64ZM663.542 170.62L663.654 170.844L663.665 170.838L663.675 170.832L663.542 170.62ZM653.422 171.28H653.172V171.53H653.422V171.28ZM653.422 57.54V57.29H653.172V57.54H653.422ZM658.262 57.54V57.7902L658.273 57.7898L658.262 57.54ZM693.932 65.24C693.932 54.8378 690.388 46.4073 683.51 40.1945L683.175 40.5655C689.936 46.6727 693.432 54.9622 693.432 65.24H693.932ZM683.512 40.1968C677.302 34.43 669.54 31.55 660.462 31.55V32.05C669.425 32.05 677.063 34.89 683.172 40.5632L683.512 40.1968ZM660.462 31.55L625.702 31.55V32.05L660.462 32.05V31.55ZM625.452 31.8V199H625.952V31.8H625.452ZM625.702 199.25H660.022V198.75H625.702V199.25ZM660.022 199.25C669.1 199.25 676.858 196.37 683.286 190.829L682.959 190.451C676.626 195.91 668.985 198.75 660.022 198.75V199.25ZM683.287 190.828C690.388 184.615 693.932 176.183 693.932 165.78H693.432C693.432 176.057 689.937 184.345 682.958 190.452L683.287 190.828ZM693.932 165.78V65.24H693.432V165.78H693.932ZM665.932 163.36C665.932 167.082 665.053 169.381 663.41 170.408L663.675 170.832C665.551 169.659 666.432 167.118 666.432 163.36H665.932ZM663.431 170.396C662.608 170.808 661.12 171.03 658.922 171.03V171.53C661.125 171.53 662.717 171.312 663.654 170.844L663.431 170.396ZM658.922 171.03H653.422V171.53H658.922V171.03ZM653.672 171.28V57.54H653.172V171.28H653.672ZM653.422 57.79H658.262V57.29H653.422V57.79ZM658.273 57.7898C660.861 57.6819 662.758 58.3827 664.014 59.8219C665.278 61.2698 665.932 63.5091 665.932 66.56H666.432C666.432 63.4509 665.767 61.0702 664.391 59.4931C663.007 57.9072 660.943 57.1781 658.252 57.2902L658.273 57.7898ZM665.932 66.56V163.36H666.432V66.56H665.932ZM816.124 40.38L815.954 40.5632L815.957 40.5655L816.124 40.38ZM758.484 31.8V31.55H758.234V31.8H758.484ZM758.484 199H758.234V199.25H758.484V199ZM815.904 190.64L816.068 190.829L816.069 190.828L815.904 190.64ZM796.324 170.62L796.436 170.844L796.447 170.838L796.457 170.832L796.324 170.62ZM786.204 171.28H785.954V171.53H786.204V171.28ZM786.204 57.54V57.29H785.954V57.54H786.204ZM791.044 57.54V57.7902L791.055 57.7898L791.044 57.54ZM826.714 65.24C826.714 54.8378 823.17 46.4073 816.292 40.1945L815.957 40.5655C822.718 46.6727 826.214 54.9622 826.214 65.24H826.714ZM816.294 40.1968C810.084 34.43 802.322 31.55 793.244 31.55V32.05C802.207 32.05 809.845 34.89 815.954 40.5632L816.294 40.1968ZM793.244 31.55L758.484 31.55V32.05L793.244 32.05V31.55ZM758.234 31.8V199H758.734V31.8H758.234ZM758.484 199.25H792.804V198.75H758.484V199.25ZM792.804 199.25C801.882 199.25 809.641 196.37 816.068 190.829L815.741 190.451C809.408 195.91 801.767 198.75 792.804 198.75V199.25ZM816.069 190.828C823.17 184.615 826.714 176.183 826.714 165.78H826.214C826.214 176.057 822.719 184.345 815.74 190.452L816.069 190.828ZM826.714 165.78V65.24H826.214V165.78H826.714ZM798.714 163.36C798.714 167.082 797.835 169.381 796.192 170.408L796.457 170.832C798.333 169.659 799.214 167.118 799.214 163.36H798.714ZM796.213 170.396C795.39 170.808 793.902 171.03 791.704 171.03V171.53C793.907 171.53 795.499 171.312 796.436 170.844L796.213 170.396ZM791.704 171.03H786.204V171.53H791.704V171.03ZM786.454 171.28V57.54H785.954V171.28H786.454ZM786.204 57.79H791.044V57.29H786.204V57.79ZM791.055 57.7898C793.644 57.6819 795.54 58.3827 796.796 59.8219C798.06 61.2698 798.714 63.5091 798.714 66.56H799.214C799.214 63.4509 798.549 61.0702 797.173 59.4931C795.789 57.9072 793.725 57.1781 791.034 57.2902L791.055 57.7898ZM798.714 66.56V163.36H799.214V66.56H798.714ZM901.386 173.26H901.636V173.01H901.386V173.26ZM867.506 173.26H867.256V173.51H867.506V173.26ZM867.506 127.72V127.47H867.256V127.72H867.506ZM888.846 127.72V127.97H889.096V127.72H888.846ZM888.846 103.08H889.096V102.83H888.846V103.08ZM867.506 103.08H867.256V103.33H867.506V103.08ZM867.506 57.54V57.29H867.256V57.54H867.506ZM901.386 57.54V57.79H901.636V57.54H901.386ZM901.386 31.8H901.636V31.55H901.386V31.8ZM840.666 31.8V31.55H840.416V31.8H840.666ZM840.666 199H840.416V199.25H840.666V199ZM901.386 199V199.25H901.636V199H901.386ZM901.386 173.01H867.506V173.51H901.386V173.01ZM867.756 173.26V127.72H867.256V173.26H867.756ZM867.506 127.97H888.846V127.47H867.506V127.97ZM889.096 127.72V103.08H888.596V127.72H889.096ZM888.846 102.83H867.506V103.33H888.846V102.83ZM867.756 103.08V57.54H867.256V103.08H867.756ZM867.506 57.79H901.386V57.29H867.506V57.79ZM901.636 57.54V31.8H901.136V57.54H901.636ZM901.386 31.55L840.666 31.55V32.05L901.386 32.05V31.55ZM840.416 31.8V199H840.916V31.8H840.416ZM840.666 199.25H901.386V198.75H840.666V199.25ZM901.636 199V173.26H901.136V199H901.636ZM952.279 31.8V31.55H952.056L952.03 31.7715L952.279 31.8ZM944.359 100.88L944.11 100.908L944.607 100.908L944.359 100.88ZM936.659 31.8L936.907 31.7723L936.882 31.55H936.659V31.8ZM908.059 31.8V31.55H907.778L907.81 31.8284L908.059 31.8ZM927.199 199L926.95 199.028L926.976 199.25H927.199V199ZM953.379 199V199.25H953.597L953.626 199.033L953.379 199ZM975.819 31.8L976.066 31.8332L976.104 31.55H975.819V31.8ZM952.03 31.7715L944.11 100.852L944.607 100.908L952.527 31.8285L952.03 31.7715ZM944.607 100.852L936.907 31.7723L936.41 31.8277L944.11 100.908L944.607 100.852ZM936.659 31.55L908.059 31.55V32.05H936.659V31.55ZM907.81 31.8284L926.95 199.028L927.447 198.972L908.307 31.7716L907.81 31.8284ZM927.199 199.25H953.379V198.75H927.199V199.25ZM953.626 199.033L976.066 31.8332L975.571 31.7667L953.131 198.967L953.626 199.033ZM975.819 31.55L952.279 31.55V32.05H975.819V31.55ZM1046.41 173.26H1046.66V173.01H1046.41V173.26ZM1012.53 173.26H1012.28V173.51H1012.53V173.26ZM1012.53 127.72V127.47H1012.28V127.72H1012.53ZM1033.87 127.72V127.97H1034.12V127.72H1033.87ZM1033.87 103.08H1034.12V102.83H1033.87V103.08ZM1012.53 103.08H1012.28V103.33H1012.53V103.08ZM1012.53 57.54V57.29H1012.28V57.54H1012.53ZM1046.41 57.54V57.79H1046.66V57.54H1046.41ZM1046.41 31.8H1046.66V31.55H1046.41V31.8ZM985.695 31.8V31.55H985.445V31.8H985.695ZM985.695 199H985.445V199.25H985.695V199ZM1046.41 199V199.25H1046.66V199H1046.41ZM1046.41 173.01H1012.53V173.51H1046.41V173.01ZM1012.78 173.26V127.72H1012.28V173.26H1012.78ZM1012.53 127.97L1033.87 127.97V127.47L1012.53 127.47V127.97ZM1034.12 127.72V103.08H1033.62V127.72H1034.12ZM1033.87 102.83L1012.53 102.83V103.33L1033.87 103.33V102.83ZM1012.78 103.08V57.54H1012.28V103.08H1012.78ZM1012.53 57.79L1046.41 57.79V57.29L1012.53 57.29V57.79ZM1046.66 57.54V31.8H1046.16V57.54H1046.66ZM1046.41 31.55L985.695 31.55V32.05L1046.41 32.05V31.55ZM985.445 31.8V199H985.945V31.8H985.445ZM985.695 199.25H1046.41V198.75H985.695V199.25ZM1046.66 199V173.26H1046.16V199H1046.66ZM1121.51 172.16H1121.76V171.91H1121.51V172.16ZM1087.63 172.16H1087.38V172.41H1087.63V172.16ZM1087.63 31.8H1087.88V31.55H1087.63V31.8ZM1060.79 31.8V31.55H1060.54V31.8H1060.79ZM1060.79 199H1060.54V199.25H1060.79V199ZM1121.51 199V199.25H1121.76V199H1121.51ZM1121.51 171.91H1087.63V172.41H1121.51V171.91ZM1087.88 172.16V31.8H1087.38V172.16H1087.88ZM1087.63 31.55L1060.79 31.55V32.05L1087.63 32.05V31.55ZM1060.54 31.8V199H1061.04V31.8H1060.54ZM1060.79 199.25H1121.51V198.75H1060.79V199.25ZM1121.76 199V172.16H1121.26V199H1121.76ZM1185.71 38.4L1185.87 38.2145L1185.87 38.2135L1185.71 38.4ZM1162.83 29.82L1162.83 29.5701L1162.83 29.5701L1162.83 29.82ZM1139.07 37.74L1139.23 37.9306L1139.23 37.9293L1139.07 37.74ZM1138.63 193.06L1138.46 193.245L1138.46 193.249L1138.63 193.06ZM1185.27 193.06L1185.43 193.249L1185.43 193.248L1185.27 193.06ZM1196.3 63.04C1196.3 52.636 1192.75 44.4262 1185.87 38.2145L1185.54 38.5855C1192.3 44.6938 1195.8 52.764 1195.8 63.04H1196.3ZM1185.87 38.2135C1179.66 32.6697 1171.91 29.7914 1162.83 29.5701L1162.82 30.0699C1171.79 30.2886 1179.43 33.1303 1185.54 38.5865L1185.87 38.2135ZM1162.83 29.5701C1153.32 29.3488 1145.34 32.0052 1138.9 37.5506L1139.23 37.9293C1145.56 32.4748 1153.42 29.8512 1162.82 30.0699L1162.83 29.5701ZM1138.91 37.5494C1131.58 43.7617 1127.82 52.1944 1127.82 63.04H1128.32C1128.32 52.3256 1132.03 44.0383 1139.23 37.9306L1138.91 37.5494ZM1127.82 63.04V167.76H1128.32V63.04H1127.82ZM1127.82 167.76C1127.82 178.383 1131.36 186.813 1138.46 193.245L1138.8 192.875C1131.81 186.547 1128.32 178.257 1128.32 167.76H1127.82ZM1138.46 193.249C1144.89 198.791 1152.87 201.67 1161.95 201.67V201.17C1152.98 201.17 1145.12 198.329 1138.79 192.871L1138.46 193.249ZM1161.95 201.67C1171.24 201.67 1179 198.79 1185.43 193.249L1185.1 192.871C1178.77 198.33 1171.13 201.17 1161.95 201.17V201.67ZM1185.43 193.248C1192.75 186.815 1196.3 178.383 1196.3 167.76H1195.8C1195.8 178.257 1192.3 186.545 1185.1 192.872L1185.43 193.248ZM1196.3 167.76V63.04H1195.8V167.76H1196.3ZM1168.08 169.96C1168.08 172.008 1167.54 173.53 1166.53 174.541C1165.52 175.551 1164 176.09 1161.95 176.09V176.59C1164.08 176.59 1165.75 176.029 1166.88 174.894C1168.02 173.76 1168.58 172.092 1168.58 169.96H1168.08ZM1161.95 176.09C1159.9 176.09 1158.38 175.551 1157.37 174.541C1156.36 173.53 1155.82 172.008 1155.82 169.96H1155.32C1155.32 172.092 1155.88 173.76 1157.01 174.894C1158.15 176.029 1159.82 176.59 1161.95 176.59V176.09ZM1155.82 169.96V61.06H1155.32V169.96H1155.82ZM1155.82 61.06C1155.82 59.0119 1156.36 57.5485 1157.36 56.5939C1158.37 55.6369 1159.89 55.15 1161.95 55.15V54.65C1159.82 54.65 1158.15 55.1531 1157.02 56.2311C1155.88 57.3115 1155.32 58.9281 1155.32 61.06H1155.82ZM1161.95 55.15C1164 55.15 1165.52 55.6369 1166.53 56.5939C1167.54 57.5485 1168.08 59.0119 1168.08 61.06H1168.58C1168.58 58.9281 1168.02 57.3115 1166.88 56.2311C1165.74 55.1531 1164.07 54.65 1161.95 54.65V55.15ZM1168.08 61.06V169.96H1168.58V61.06H1168.08ZM1269.73 40.16L1269.55 40.3368L1269.55 40.3402L1269.73 40.16ZM1210.33 31.8V31.55H1210.08V31.8H1210.33ZM1210.33 199H1210.08V199.25H1210.33V199ZM1237.17 199V199.25H1237.42V199H1237.17ZM1237.17 129.26V129.01H1236.92V129.26H1237.17ZM1269.73 120.9L1269.9 121.08L1269.9 121.077L1269.73 120.9ZM1243.99 103.3V103.05L1243.98 103.05L1243.99 103.3ZM1237.17 103.52H1236.92V103.778L1237.17 103.77L1237.17 103.52ZM1237.17 56.44V56.19H1236.92V56.44H1237.17ZM1278.56 60.62C1278.56 52.414 1275.67 45.5283 1269.9 39.9798L1269.55 40.3402C1275.22 45.7917 1278.06 52.546 1278.06 60.62H1278.56ZM1269.9 39.9832C1264.36 34.4372 1257.47 31.55 1249.71 31.55V32.05C1257.34 32.05 1264.1 34.8828 1269.55 40.3368L1269.9 39.9832ZM1249.71 31.55L1210.33 31.55V32.05L1249.71 32.05V31.55ZM1210.08 31.8V199H1210.58V31.8H1210.08ZM1210.33 199.25H1237.17V198.75H1210.33V199.25ZM1237.42 199V129.26H1236.92V199H1237.42ZM1237.17 129.51H1249.93V129.01H1237.17V129.51ZM1249.93 129.51C1257.48 129.51 1264.14 126.62 1269.9 121.08L1269.55 120.72C1263.87 126.18 1257.34 129.01 1249.93 129.01V129.51ZM1269.9 121.077C1275.67 115.315 1278.56 108.653 1278.56 101.32H1278.06C1278.06 108.507 1275.23 115.045 1269.55 120.723L1269.9 121.077ZM1278.56 101.32V60.62H1278.06V101.32H1278.56ZM1251.22 93.4C1251.22 96.6771 1250.61 99.0879 1249.42 100.675C1248.24 102.248 1246.46 103.05 1243.99 103.05V103.55C1246.58 103.55 1248.53 102.702 1249.82 100.975C1251.11 99.2621 1251.72 96.7229 1251.72 93.4H1251.22ZM1243.98 103.05L1237.16 103.27L1237.17 103.77L1243.99 103.55L1243.98 103.05ZM1237.42 103.52V56.44H1236.92V103.52H1237.42ZM1237.17 56.69H1243.11V56.19H1237.17V56.69ZM1243.11 56.69C1247.97 56.69 1251.22 61.3565 1251.22 66.56H1251.72C1251.72 61.2035 1248.36 56.19 1243.11 56.19V56.69ZM1251.22 66.56V93.4H1251.72V66.56H1251.22ZM1348.93 173.26H1349.18V173.01H1348.93V173.26ZM1315.05 173.26H1314.8V173.51H1315.05V173.26ZM1315.05 127.72V127.47H1314.8V127.72H1315.05ZM1336.39 127.72V127.97H1336.64V127.72H1336.39ZM1336.39 103.08H1336.64V102.83H1336.39V103.08ZM1315.05 103.08H1314.8V103.33H1315.05V103.08ZM1315.05 57.54V57.29H1314.8V57.54H1315.05ZM1348.93 57.54V57.79H1349.18V57.54H1348.93ZM1348.93 31.8H1349.18V31.55H1348.93V31.8ZM1288.21 31.8V31.55H1287.96V31.8H1288.21ZM1288.21 199H1287.96V199.25H1288.21V199ZM1348.93 199V199.25H1349.18V199H1348.93ZM1348.93 173.01L1315.05 173.01V173.51L1348.93 173.51V173.01ZM1315.3 173.26V127.72H1314.8V173.26H1315.3ZM1315.05 127.97H1336.39V127.47H1315.05V127.97ZM1336.64 127.72V103.08H1336.14V127.72H1336.64ZM1336.39 102.83H1315.05V103.33H1336.39V102.83ZM1315.3 103.08V57.54H1314.8V103.08H1315.3ZM1315.05 57.79L1348.93 57.79V57.29L1315.05 57.29V57.79ZM1349.18 57.54V31.8H1348.68V57.54H1349.18ZM1348.93 31.55L1288.21 31.55V32.05L1348.93 32.05V31.55ZM1287.96 31.8V199H1288.46V31.8H1287.96ZM1288.21 199.25L1348.93 199.25V198.75L1288.21 198.75V199.25ZM1349.18 199V173.26H1348.68V199H1349.18ZM1435.46 199L1435.46 199.25L1435.9 199.254L1435.68 198.873L1435.46 199ZM1422.26 115.4L1422.09 115.22L1421.87 115.431L1422.12 115.605L1422.26 115.4ZM1422.7 40.16L1422.53 40.3368L1422.53 40.3402L1422.7 40.16ZM1363.3 31.8V31.55H1363.05V31.8H1363.3ZM1363.3 199H1363.05V199.25H1363.3V199ZM1390.14 199V199.25H1390.39V199H1390.14ZM1390.14 123.32V123.07H1389.89V123.32H1390.14ZM1408.62 198.78L1408.41 198.907L1408.48 199.029L1408.62 199.03L1408.62 198.78ZM1390.14 97.58H1389.89V97.83H1390.14V97.58ZM1390.14 56.44V56.19H1389.89V56.44H1390.14ZM1435.68 198.873C1433.51 195.193 1432.41 189.308 1432.41 181.18H1431.91C1431.91 189.332 1433.01 195.327 1435.25 199.127L1435.68 198.873ZM1432.41 181.18V139.6H1431.91V181.18H1432.41ZM1432.41 139.6C1432.41 127.895 1429.1 119.88 1422.41 115.195L1422.12 115.605C1428.63 120.16 1431.91 127.985 1431.91 139.6H1432.41ZM1422.44 115.58C1428.42 109.82 1431.53 103.158 1431.53 95.6H1431.03C1431.03 103.002 1427.99 109.54 1422.09 115.22L1422.44 115.58ZM1431.53 95.6V60.62H1431.03V95.6H1431.53ZM1431.53 60.62C1431.53 52.414 1428.65 45.5283 1422.88 39.9798L1422.53 40.3402C1428.2 45.7917 1431.03 52.546 1431.03 60.62H1431.53ZM1422.88 39.9832C1417.33 34.4372 1410.45 31.55 1402.68 31.55V32.05C1410.32 32.05 1417.07 34.8828 1422.53 40.3368L1422.88 39.9832ZM1402.68 31.55L1363.3 31.55V32.05L1402.68 32.05V31.55ZM1363.05 31.8V199H1363.55V31.8H1363.05ZM1363.3 199.25H1390.14V198.75H1363.3V199.25ZM1390.39 199V123.32H1389.89V199H1390.39ZM1390.14 123.57H1396.74V123.07H1390.14V123.57ZM1396.74 123.57C1399.52 123.57 1401.58 124.735 1402.96 127.077C1404.36 129.44 1405.07 133.016 1405.07 137.84H1405.57C1405.57 132.984 1404.86 129.3 1403.39 126.823C1401.92 124.325 1399.69 123.07 1396.74 123.07V123.57ZM1405.07 137.84V181.4H1405.57V137.84H1405.07ZM1405.07 181.4C1405.07 189.334 1406.17 195.109 1408.41 198.907L1408.84 198.653C1406.67 194.971 1405.57 189.306 1405.57 181.4H1405.07ZM1408.62 199.03L1435.46 199.25L1435.47 198.75L1408.63 198.53L1408.62 199.03ZM1404.19 87.68C1404.19 90.9571 1403.59 93.3679 1402.4 94.955C1401.22 96.528 1399.43 97.33 1396.96 97.33V97.83C1399.55 97.83 1401.51 96.982 1402.8 95.255C1404.09 93.5421 1404.69 91.0029 1404.69 87.68H1404.19ZM1396.96 97.33H1390.14V97.83H1396.96V97.33ZM1390.39 97.58V56.44H1389.89V97.58H1390.39ZM1390.14 56.69L1396.08 56.69V56.19L1390.14 56.19V56.69ZM1396.08 56.69C1400.95 56.69 1404.19 61.3565 1404.19 66.56H1404.69C1404.69 61.2035 1401.34 56.19 1396.08 56.19V56.69ZM1404.19 66.56V87.68H1404.69V66.56H1404.19ZM1502.91 140.04L1502.73 140.214L1502.74 140.22L1502.91 140.04ZM1553.51 89.44L1553.33 89.614L1553.33 89.6168L1553.51 89.44ZM1502.91 89.44L1502.73 89.2632L1502.73 89.266L1502.91 89.44ZM1492.32 114.74C1492.32 124.707 1495.87 133.129 1502.73 140.214L1503.09 139.866C1496.31 132.871 1492.82 124.573 1492.82 114.74H1492.32ZM1502.74 140.22C1509.82 147.084 1518.47 150.63 1528.43 150.63V150.13C1518.6 150.13 1510.08 146.636 1503.09 139.86L1502.74 140.22ZM1528.43 150.63C1538.4 150.63 1546.82 147.084 1553.69 140.217L1553.33 139.863C1546.56 146.636 1538.26 150.13 1528.43 150.13V150.63ZM1553.69 140.217C1560.77 133.131 1564.32 124.708 1564.32 114.74H1563.82C1563.82 124.572 1560.33 132.869 1553.33 139.863L1553.69 140.217ZM1564.32 114.74C1564.32 104.772 1560.77 96.3492 1553.69 89.2632L1553.33 89.6168C1560.33 96.6108 1563.82 104.908 1563.82 114.74H1564.32ZM1553.69 89.266C1546.82 82.1769 1538.4 78.63 1528.43 78.63V79.13C1538.26 79.13 1546.56 82.6231 1553.33 89.6139L1553.69 89.266ZM1528.43 78.63C1518.47 78.63 1509.82 82.176 1502.73 89.2632L1503.09 89.6168C1510.08 82.6239 1518.6 79.13 1528.43 79.13V78.63ZM1502.73 89.266C1495.87 96.3512 1492.32 104.773 1492.32 114.74H1492.82C1492.82 104.907 1496.31 96.6088 1503.09 89.6139L1502.73 89.266ZM1689.59 31.8H1689.84V31.55H1689.59V31.8ZM1628.87 31.8V31.55H1628.62V31.8H1628.87ZM1628.87 199H1628.62V199.25H1628.87V199ZM1655.71 199V199.25H1655.96V199H1655.71ZM1655.71 127.72V127.47H1655.46V127.72H1655.71ZM1677.05 127.72V127.97H1677.3V127.72H1677.05ZM1677.05 103.08H1677.3V102.83H1677.05V103.08ZM1655.71 103.08H1655.46V103.33H1655.71V103.08ZM1655.71 57.54V57.29H1655.46V57.54H1655.71ZM1689.59 57.54V57.79H1689.84V57.54H1689.59ZM1689.59 31.55L1628.87 31.55V32.05L1689.59 32.05V31.55ZM1628.62 31.8V199H1629.12V31.8H1628.62ZM1628.87 199.25H1655.71V198.75H1628.87V199.25ZM1655.96 199V127.72H1655.46V199H1655.96ZM1655.71 127.97H1677.05V127.47H1655.71V127.97ZM1677.3 127.72V103.08H1676.8V127.72H1677.3ZM1677.05 102.83H1655.71V103.33H1677.05V102.83ZM1655.96 103.08V57.54H1655.46V103.08H1655.96ZM1655.71 57.79L1689.59 57.79V57.29L1655.71 57.29V57.79ZM1689.84 57.54V31.8H1689.34V57.54H1689.84ZM1771.61 199L1771.61 199.25L1772.05 199.254L1771.82 198.873L1771.61 199ZM1758.41 115.4L1758.24 115.22L1758.02 115.431L1758.27 115.605L1758.41 115.4ZM1758.85 40.16L1758.67 40.3368L1758.68 40.3402L1758.85 40.16ZM1699.45 31.8V31.55H1699.2V31.8H1699.45ZM1699.45 199H1699.2V199.25H1699.45V199ZM1726.29 199V199.25H1726.54V199H1726.29ZM1726.29 123.32V123.07H1726.04V123.32H1726.29ZM1744.77 198.78L1744.55 198.907L1744.62 199.029L1744.77 199.03L1744.77 198.78ZM1726.29 97.58H1726.04V97.83H1726.29V97.58ZM1726.29 56.44V56.19H1726.04V56.44H1726.29ZM1771.82 198.873C1769.66 195.193 1768.56 189.308 1768.56 181.18H1768.06C1768.06 189.332 1769.16 195.327 1771.39 199.127L1771.82 198.873ZM1768.56 181.18V139.6H1768.06V181.18H1768.56ZM1768.56 139.6C1768.56 127.895 1765.24 119.88 1758.55 115.195L1758.27 115.605C1764.77 120.16 1768.06 127.985 1768.06 139.6H1768.56ZM1758.58 115.58C1764.56 109.82 1767.68 103.158 1767.68 95.6H1767.18C1767.18 103.002 1764.13 109.54 1758.24 115.22L1758.58 115.58ZM1767.68 95.6V60.62H1767.18V95.6H1767.68ZM1767.68 60.62C1767.68 52.414 1764.79 45.5283 1759.02 39.9798L1758.68 40.3402C1764.34 45.7917 1767.18 52.546 1767.18 60.62H1767.68ZM1759.03 39.9832C1753.48 34.4372 1746.6 31.55 1738.83 31.55V32.05C1746.46 32.05 1753.22 34.8828 1758.67 40.3368L1759.03 39.9832ZM1738.83 31.55L1699.45 31.55V32.05L1738.83 32.05V31.55ZM1699.2 31.8V199H1699.7V31.8H1699.2ZM1699.45 199.25H1726.29V198.75H1699.45V199.25ZM1726.54 199V123.32H1726.04V199H1726.54ZM1726.29 123.57H1732.89V123.07H1726.29V123.57ZM1732.89 123.57C1735.66 123.57 1737.72 124.735 1739.11 127.077C1740.5 129.44 1741.22 133.016 1741.22 137.84H1741.72C1741.72 132.984 1741 129.3 1739.54 126.823C1738.06 124.325 1735.83 123.07 1732.89 123.07V123.57ZM1741.22 137.84V181.4H1741.72V137.84H1741.22ZM1741.22 181.4C1741.22 189.334 1742.32 195.109 1744.55 198.907L1744.98 198.653C1742.82 194.971 1741.72 189.306 1741.72 181.4H1741.22ZM1744.77 199.03L1771.61 199.25L1771.61 198.75L1744.77 198.53L1744.77 199.03ZM1740.34 87.68C1740.34 90.9571 1739.74 93.3679 1738.55 94.955C1737.37 96.528 1735.58 97.33 1733.11 97.33V97.83C1735.7 97.83 1737.65 96.982 1738.95 95.255C1740.23 93.5421 1740.84 91.0029 1740.84 87.68H1740.34ZM1733.11 97.33H1726.29V97.83H1733.11V97.33ZM1726.54 97.58V56.44H1726.04V97.58H1726.54ZM1726.29 56.69H1732.23V56.19H1726.29V56.69ZM1732.23 56.69C1737.1 56.69 1740.34 61.3565 1740.34 66.56H1740.84C1740.84 61.2035 1737.48 56.19 1732.23 56.19V56.69ZM1740.34 66.56V87.68H1740.84V66.56H1740.34ZM1835.76 38.4L1835.92 38.2145L1835.92 38.2135L1835.76 38.4ZM1812.88 29.82L1812.88 29.5701L1812.88 29.5701L1812.88 29.82ZM1789.12 37.74L1789.28 37.9306L1789.28 37.9293L1789.12 37.74ZM1788.68 193.06L1788.51 193.245L1788.51 193.249L1788.68 193.06ZM1835.32 193.06L1835.48 193.249L1835.48 193.248L1835.32 193.06ZM1846.35 63.04C1846.35 52.636 1842.8 44.4262 1835.92 38.2145L1835.59 38.5855C1842.35 44.6938 1845.85 52.764 1845.85 63.04H1846.35ZM1835.92 38.2135C1829.71 32.6697 1821.95 29.7914 1812.88 29.5701L1812.87 30.0699C1821.84 30.2886 1829.48 33.1303 1835.59 38.5865L1835.92 38.2135ZM1812.88 29.5701C1803.37 29.3488 1795.39 32.0052 1788.95 37.5506L1789.28 37.9293C1795.61 32.4748 1803.46 29.8512 1812.87 30.0699L1812.88 29.5701ZM1788.95 37.5494C1781.63 43.7617 1777.87 52.1944 1777.87 63.04H1778.37C1778.37 52.3256 1782.08 44.0383 1789.28 37.9306L1788.95 37.5494ZM1777.87 63.04V167.76H1778.37V63.04H1777.87ZM1777.87 167.76C1777.87 178.383 1781.41 186.813 1788.51 193.245L1788.84 192.875C1781.86 186.547 1778.37 178.257 1778.37 167.76H1777.87ZM1788.51 193.249C1794.94 198.791 1802.92 201.67 1812 201.67V201.17C1803.03 201.17 1795.17 198.329 1788.84 192.871L1788.51 193.249ZM1812 201.67C1821.29 201.67 1829.05 198.79 1835.48 193.249L1835.15 192.871C1828.82 198.33 1821.18 201.17 1812 201.17V201.67ZM1835.48 193.248C1842.8 186.815 1846.35 178.383 1846.35 167.76H1845.85C1845.85 178.257 1842.35 186.545 1835.15 192.872L1835.48 193.248ZM1846.35 167.76V63.04H1845.85V167.76H1846.35ZM1818.13 169.96C1818.13 172.008 1817.59 173.53 1816.58 174.541C1815.57 175.551 1814.04 176.09 1812 176.09V176.59C1814.13 176.59 1815.8 176.029 1816.93 174.894C1818.06 173.76 1818.63 172.092 1818.63 169.96H1818.13ZM1812 176.09C1809.95 176.09 1808.43 175.551 1807.41 174.541C1806.4 173.53 1805.87 172.008 1805.87 169.96H1805.37C1805.37 172.092 1805.93 173.76 1807.06 174.894C1808.2 176.029 1809.86 176.59 1812 176.59V176.09ZM1805.87 169.96V61.06H1805.37V169.96H1805.87ZM1805.87 61.06C1805.87 59.0119 1806.4 57.5485 1807.41 56.5939C1808.42 55.6369 1809.94 55.15 1812 55.15V54.65C1809.87 54.65 1808.2 55.1531 1807.07 56.2311C1805.93 57.3115 1805.37 58.9281 1805.37 61.06H1805.87ZM1812 55.15C1814.05 55.15 1815.57 55.6369 1816.58 56.5939C1817.59 57.5485 1818.13 59.0119 1818.13 61.06H1818.63C1818.63 58.9281 1818.06 57.3115 1816.93 56.2311C1815.79 55.1531 1814.12 54.65 1812 54.65V55.15ZM1818.13 61.06V169.96H1818.63V61.06H1818.13ZM1936.5 31.8H1936.75V31.55H1936.5V31.8ZM1911.86 31.8V31.55H1911.61V31.8H1911.86ZM1911.86 107.7L1911.62 107.777L1912.11 107.7H1911.86ZM1887.22 31.8L1887.45 31.7228L1887.4 31.55H1887.22V31.8ZM1860.38 31.8V31.55H1860.13V31.8H1860.38ZM1860.38 199H1860.13V199.25H1860.38V199ZM1883.7 199V199.25H1883.95V199H1883.7ZM1883.7 104.62L1883.93 104.549L1883.45 104.62H1883.7ZM1911.86 199L1911.62 199.071L1911.67 199.25H1911.86V199ZM1936.5 199V199.25H1936.75V199H1936.5ZM1936.5 31.55L1911.86 31.55V32.05L1936.5 32.05V31.55ZM1911.61 31.8V107.7H1912.11V31.8H1911.61ZM1912.09 107.623L1887.45 31.7228L1886.98 31.8772L1911.62 107.777L1912.09 107.623ZM1887.22 31.55L1860.38 31.55V32.05L1887.22 32.05V31.55ZM1860.13 31.8V199H1860.63V31.8H1860.13ZM1860.38 199.25H1883.7V198.75H1860.38V199.25ZM1883.95 199V104.62H1883.45V199H1883.95ZM1883.46 104.691L1911.62 199.071L1912.09 198.929L1883.93 104.549L1883.46 104.691ZM1911.86 199.25H1936.5V198.75H1911.86V199.25ZM1936.75 199V31.8H1936.25V199H1936.75ZM2014.22 31.8H2014.47V31.55H2014.22V31.8ZM1946.46 31.8V31.55H1946.21V31.8H1946.46ZM1946.46 57.32H1946.21V57.57H1946.46V57.32ZM1966.92 57.32H1967.17V57.07H1966.92V57.32ZM1966.92 199H1966.67V199.25H1966.92V199ZM1993.76 199V199.25H1994.01V199H1993.76ZM1993.76 57.32V57.07H1993.51V57.32H1993.76ZM2014.22 57.32V57.57H2014.47V57.32H2014.22ZM2014.22 31.55L1946.46 31.55V32.05L2014.22 32.05V31.55ZM1946.21 31.8V57.32H1946.71V31.8H1946.21ZM1946.46 57.57L1966.92 57.57V57.07L1946.46 57.07V57.57ZM1966.67 57.32V199H1967.17V57.32H1966.67ZM1966.92 199.25H1993.76V198.75H1966.92V199.25ZM1994.01 199V57.32H1993.51V199H1994.01ZM1993.76 57.57L2014.22 57.57V57.07L1993.76 57.07V57.57ZM2014.47 57.32V31.8H2013.97V57.32H2014.47ZM2135.41 173.26H2135.66V173.01H2135.41V173.26ZM2101.53 173.26H2101.28V173.51H2101.53V173.26ZM2101.53 127.72V127.47H2101.28V127.72H2101.53ZM2122.87 127.72V127.97H2123.12V127.72H2122.87ZM2122.87 103.08H2123.12V102.83H2122.87V103.08ZM2101.53 103.08H2101.28V103.33H2101.53V103.08ZM2101.53 57.54V57.29H2101.28V57.54H2101.53ZM2135.41 57.54V57.79H2135.66V57.54H2135.41ZM2135.41 31.8H2135.66V31.55H2135.41V31.8ZM2074.69 31.8V31.55H2074.44V31.8H2074.69ZM2074.69 199H2074.44V199.25H2074.69V199ZM2135.41 199V199.25H2135.66V199H2135.41ZM2135.41 173.01H2101.53V173.51H2135.41V173.01ZM2101.78 173.26V127.72H2101.28V173.26H2101.78ZM2101.53 127.97H2122.87V127.47H2101.53V127.97ZM2123.12 127.72V103.08H2122.62V127.72H2123.12ZM2122.87 102.83H2101.53V103.33H2122.87V102.83ZM2101.78 103.08V57.54H2101.28V103.08H2101.78ZM2101.53 57.79H2135.41V57.29H2101.53V57.79ZM2135.66 57.54V31.8H2135.16V57.54H2135.66ZM2135.41 31.55L2074.69 31.55V32.05L2135.41 32.05V31.55ZM2074.44 31.8V199H2074.94V31.8H2074.44ZM2074.69 199.25H2135.41V198.75H2074.69V199.25ZM2135.66 199V173.26H2135.16V199H2135.66ZM2225.91 31.8H2226.16V31.55H2225.91V31.8ZM2201.27 31.8V31.55H2201.02V31.8H2201.27ZM2201.27 107.7L2201.03 107.777L2201.52 107.7H2201.27ZM2176.63 31.8L2176.86 31.7228L2176.81 31.55H2176.63V31.8ZM2149.79 31.8V31.55H2149.54V31.8H2149.79ZM2149.79 199H2149.54V199.25H2149.79V199ZM2173.11 199V199.25H2173.36V199H2173.11ZM2173.11 104.62L2173.35 104.549L2172.86 104.62H2173.11ZM2201.27 199L2201.03 199.071L2201.08 199.25H2201.27V199ZM2225.91 199V199.25H2226.16V199H2225.91ZM2225.91 31.55L2201.27 31.55V32.05H2225.91V31.55ZM2201.02 31.8V107.7H2201.52V31.8H2201.02ZM2201.5 107.623L2176.86 31.7228L2176.39 31.8772L2201.03 107.777L2201.5 107.623ZM2176.63 31.55L2149.79 31.55V32.05H2176.63V31.55ZM2149.54 31.8V199H2150.04V31.8H2149.54ZM2149.79 199.25H2173.11V198.75H2149.79V199.25ZM2173.36 199V104.62H2172.86V199H2173.36ZM2172.87 104.691L2201.03 199.071L2201.51 198.929L2173.35 104.549L2172.87 104.691ZM2201.27 199.25L2225.91 199.25V198.75L2201.27 198.75V199.25ZM2226.16 199V31.8H2225.66V199H2226.16ZM2301.21 40.38L2301.04 40.5632L2301.04 40.5655L2301.21 40.38ZM2243.57 31.8V31.55H2243.32V31.8H2243.57ZM2243.57 199H2243.32V199.25H2243.57V199ZM2300.99 190.64L2301.15 190.829L2301.15 190.828L2300.99 190.64ZM2281.41 170.62L2281.52 170.844L2281.53 170.838L2281.54 170.832L2281.41 170.62ZM2271.29 171.28H2271.04V171.53H2271.29V171.28ZM2271.29 57.54V57.29H2271.04V57.54H2271.29ZM2276.13 57.54V57.7902L2276.14 57.7898L2276.13 57.54ZM2311.8 65.24C2311.8 54.8378 2308.26 46.4073 2301.38 40.1945L2301.04 40.5655C2307.8 46.6727 2311.3 54.9622 2311.3 65.24H2311.8ZM2301.38 40.1968C2295.17 34.43 2287.41 31.55 2278.33 31.55V32.05C2287.29 32.05 2294.93 34.89 2301.04 40.5632L2301.38 40.1968ZM2278.33 31.55L2243.57 31.55V32.05L2278.33 32.05V31.55ZM2243.32 31.8V199H2243.82V31.8H2243.32ZM2243.57 199.25H2277.89V198.75H2243.57V199.25ZM2277.89 199.25C2286.97 199.25 2294.73 196.37 2301.15 190.829L2300.83 190.451C2294.49 195.91 2286.85 198.75 2277.89 198.75V199.25ZM2301.15 190.828C2308.26 184.615 2311.8 176.183 2311.8 165.78H2311.3C2311.3 176.057 2307.8 184.345 2300.83 190.452L2301.15 190.828ZM2311.8 165.78V65.24H2311.3V165.78H2311.8ZM2283.8 163.36C2283.8 167.082 2282.92 169.381 2281.28 170.408L2281.54 170.832C2283.42 169.659 2284.3 167.118 2284.3 163.36H2283.8ZM2281.3 170.396C2280.48 170.808 2278.99 171.03 2276.79 171.03V171.53C2278.99 171.53 2280.59 171.312 2281.52 170.844L2281.3 170.396ZM2276.79 171.03H2271.29V171.53H2276.79V171.03ZM2271.54 171.28V57.54H2271.04V171.28H2271.54ZM2271.29 57.79L2276.13 57.79V57.29L2271.29 57.29V57.79ZM2276.14 57.7898C2278.73 57.6819 2280.63 58.3827 2281.88 59.8219C2283.15 61.2698 2283.8 63.5091 2283.8 66.56H2284.3C2284.3 63.4509 2283.64 61.0702 2282.26 59.4931C2280.87 57.9072 2278.81 57.1781 2276.12 57.2902L2276.14 57.7898ZM2283.8 66.56V163.36H2284.3V66.56H2283.8ZM2433.99 40.38L2433.82 40.5632L2433.82 40.5655L2433.99 40.38ZM2376.35 31.8V31.55H2376.1V31.8H2376.35ZM2376.35 199H2376.1V199.25H2376.35V199ZM2433.77 190.64L2433.94 190.829L2433.94 190.828L2433.77 190.64ZM2414.19 170.62L2414.3 170.844L2414.31 170.838L2414.32 170.832L2414.19 170.62ZM2404.07 171.28H2403.82V171.53H2404.07V171.28ZM2404.07 57.54V57.29H2403.82V57.54H2404.07ZM2408.91 57.54V57.7902L2408.92 57.7898L2408.91 57.54ZM2444.58 65.24C2444.58 54.8378 2441.04 46.4073 2434.16 40.1945L2433.82 40.5655C2440.59 46.6727 2444.08 54.9622 2444.08 65.24H2444.58ZM2434.16 40.1968C2427.95 34.43 2420.19 31.55 2411.11 31.55V32.05C2420.08 32.05 2427.71 34.89 2433.82 40.5632L2434.16 40.1968ZM2411.11 31.55L2376.35 31.55V32.05L2411.11 32.05V31.55ZM2376.1 31.8V199H2376.6V31.8H2376.1ZM2376.35 199.25L2410.67 199.25V198.75L2376.35 198.75V199.25ZM2410.67 199.25C2419.75 199.25 2427.51 196.37 2433.94 190.829L2433.61 190.451C2427.28 195.91 2419.63 198.75 2410.67 198.75V199.25ZM2433.94 190.828C2441.04 184.615 2444.58 176.183 2444.58 165.78H2444.08C2444.08 176.057 2440.59 184.345 2433.61 190.452L2433.94 190.828ZM2444.58 165.78V65.24H2444.08V165.78H2444.58ZM2416.58 163.36C2416.58 167.082 2415.7 169.381 2414.06 170.408L2414.32 170.832C2416.2 169.659 2417.08 167.118 2417.08 163.36H2416.58ZM2414.08 170.396C2413.26 170.808 2411.77 171.03 2409.57 171.03V171.53C2411.77 171.53 2413.37 171.312 2414.3 170.844L2414.08 170.396ZM2409.57 171.03H2404.07V171.53H2409.57V171.03ZM2404.32 171.28V57.54H2403.82V171.28H2404.32ZM2404.07 57.79L2408.91 57.79V57.29L2404.07 57.29V57.79ZM2408.92 57.7898C2411.51 57.6819 2413.41 58.3827 2414.66 59.8219C2415.93 61.2698 2416.58 63.5091 2416.58 66.56H2417.08C2417.08 63.4509 2416.42 61.0702 2415.04 59.4931C2413.66 57.9072 2411.59 57.1781 2408.9 57.2902L2408.92 57.7898ZM2416.58 66.56V163.36H2417.08V66.56H2416.58ZM2519.25 173.26H2519.5V173.01H2519.25V173.26ZM2485.37 173.26H2485.12V173.51H2485.37V173.26ZM2485.37 127.72V127.47H2485.12V127.72H2485.37ZM2506.71 127.72V127.97H2506.96V127.72H2506.71ZM2506.71 103.08H2506.96V102.83H2506.71V103.08ZM2485.37 103.08H2485.12V103.33H2485.37V103.08ZM2485.37 57.54V57.29H2485.12V57.54H2485.37ZM2519.25 57.54V57.79H2519.5V57.54H2519.25ZM2519.25 31.8H2519.5V31.55H2519.25V31.8ZM2458.53 31.8V31.55H2458.28V31.8H2458.53ZM2458.53 199H2458.28V199.25H2458.53V199ZM2519.25 199V199.25H2519.5V199H2519.25ZM2519.25 173.01H2485.37V173.51H2519.25V173.01ZM2485.62 173.26V127.72H2485.12V173.26H2485.62ZM2485.37 127.97H2506.71V127.47H2485.37V127.97ZM2506.96 127.72V103.08H2506.46V127.72H2506.96ZM2506.71 102.83H2485.37V103.33H2506.71V102.83ZM2485.62 103.08V57.54H2485.12V103.08H2485.62ZM2485.37 57.79L2519.25 57.79V57.29L2485.37 57.29V57.79ZM2519.5 57.54V31.8H2519V57.54H2519.5ZM2519.25 31.55L2458.53 31.55V32.05L2519.25 32.05V31.55ZM2458.28 31.8V199H2458.78V31.8H2458.28ZM2458.53 199.25H2519.25V198.75H2458.53V199.25ZM2519.5 199V173.26H2519V199H2519.5ZM2570.15 31.8V31.55H2569.92L2569.9 31.7715L2570.15 31.8ZM2562.23 100.88L2561.98 100.908L2562.47 100.908L2562.23 100.88ZM2554.53 31.8L2554.77 31.7723L2554.75 31.55H2554.53V31.8ZM2525.93 31.8V31.55H2525.65L2525.68 31.8284L2525.93 31.8ZM2545.07 199L2544.82 199.028L2544.84 199.25H2545.07V199ZM2571.25 199V199.25H2571.47L2571.49 199.033L2571.25 199ZM2593.69 31.8L2593.93 31.8332L2593.97 31.55H2593.69V31.8ZM2569.9 31.7715L2561.98 100.852L2562.47 100.908L2570.39 31.8285L2569.9 31.7715ZM2562.47 100.852L2554.77 31.7723L2554.28 31.8277L2561.98 100.908L2562.47 100.852ZM2554.53 31.55L2525.93 31.55V32.05L2554.53 32.05V31.55ZM2525.68 31.8284L2544.82 199.028L2545.31 198.972L2526.17 31.7716L2525.68 31.8284ZM2545.07 199.25L2571.25 199.25V198.75L2545.07 198.75V199.25ZM2571.49 199.033L2593.93 31.8332L2593.44 31.7667L2571 198.967L2571.49 199.033ZM2593.69 31.55L2570.15 31.55V32.05L2593.69 32.05V31.55ZM2664.28 173.26H2664.53V173.01H2664.28V173.26ZM2630.4 173.26H2630.15V173.51H2630.4V173.26ZM2630.4 127.72V127.47H2630.15V127.72H2630.4ZM2651.74 127.72V127.97H2651.99V127.72H2651.74ZM2651.74 103.08H2651.99V102.83H2651.74V103.08ZM2630.4 103.08H2630.15V103.33H2630.4V103.08ZM2630.4 57.54V57.29H2630.15V57.54H2630.4ZM2664.28 57.54V57.79H2664.53V57.54H2664.28ZM2664.28 31.8H2664.53V31.55H2664.28V31.8ZM2603.56 31.8V31.55H2603.31V31.8H2603.56ZM2603.56 199H2603.31V199.25H2603.56V199ZM2664.28 199V199.25H2664.53V199H2664.28ZM2664.28 173.01H2630.4V173.51H2664.28V173.01ZM2630.65 173.26V127.72H2630.15V173.26H2630.65ZM2630.4 127.97H2651.74V127.47H2630.4V127.97ZM2651.99 127.72V103.08H2651.49V127.72H2651.99ZM2651.74 102.83H2630.4V103.33H2651.74V102.83ZM2630.65 103.08V57.54H2630.15V103.08H2630.65ZM2630.4 57.79H2664.28V57.29H2630.4V57.79ZM2664.53 57.54V31.8H2664.03V57.54H2664.53ZM2664.28 31.55L2603.56 31.55V32.05L2664.28 32.05V31.55ZM2603.31 31.8V199H2603.81V31.8H2603.31ZM2603.56 199.25H2664.28V198.75H2603.56V199.25ZM2664.53 199V173.26H2664.03V199H2664.53ZM2739.37 172.16L2739.62 172.16V171.91L2739.37 171.91V172.16ZM2705.49 172.16H2705.24V172.41H2705.49V172.16ZM2705.49 31.8H2705.74V31.55H2705.49V31.8ZM2678.65 31.8V31.55H2678.4V31.8H2678.65ZM2678.65 199H2678.4V199.25H2678.65V199ZM2739.37 199V199.25L2739.62 199.25V199L2739.37 199ZM2739.37 171.91H2705.49V172.41H2739.37V171.91ZM2705.74 172.16V31.8H2705.24V172.16H2705.74ZM2705.49 31.55L2678.65 31.55V32.05H2705.49V31.55ZM2678.4 31.8V199H2678.9V31.8H2678.4ZM2678.65 199.25H2739.37V198.75H2678.65V199.25ZM2739.62 199V172.16L2739.12 172.16V199L2739.62 199ZM2803.58 38.4L2803.74 38.2145L2803.74 38.2135L2803.58 38.4ZM2780.7 29.82L2780.7 29.5701L2780.7 29.5701L2780.7 29.82ZM2756.94 37.74L2757.1 37.9306L2757.1 37.9293L2756.94 37.74ZM2756.5 193.06L2756.33 193.245L2756.33 193.249L2756.5 193.06ZM2803.14 193.06L2803.3 193.249L2803.3 193.248L2803.14 193.06ZM2814.17 63.04C2814.17 52.636 2810.62 44.4262 2803.74 38.2145L2803.41 38.5855C2810.17 44.6938 2813.67 52.764 2813.67 63.04H2814.17ZM2803.74 38.2135C2797.53 32.6697 2789.77 29.7914 2780.7 29.5701L2780.69 30.0699C2789.66 30.2886 2797.3 33.1303 2803.41 38.5865L2803.74 38.2135ZM2780.7 29.5701C2771.19 29.3488 2763.2 32.0052 2756.77 37.5506L2757.1 37.9293C2763.43 32.4748 2771.28 29.8512 2780.69 30.0699L2780.7 29.5701ZM2756.77 37.5494C2749.45 43.7617 2745.69 52.1944 2745.69 63.04H2746.19C2746.19 52.3256 2749.9 44.0383 2757.1 37.9306L2756.77 37.5494ZM2745.69 63.04V167.76H2746.19V63.04H2745.69ZM2745.69 167.76C2745.69 178.383 2749.23 186.813 2756.33 193.245L2756.66 192.875C2749.68 186.547 2746.19 178.257 2746.19 167.76H2745.69ZM2756.33 193.249C2762.76 198.791 2770.74 201.67 2779.82 201.67V201.17C2770.85 201.17 2762.99 198.329 2756.66 192.871L2756.33 193.249ZM2779.82 201.67C2789.11 201.67 2796.87 198.79 2803.3 193.249L2802.97 192.871C2796.64 198.33 2789 201.17 2779.82 201.17V201.67ZM2803.3 193.248C2810.62 186.815 2814.17 178.383 2814.17 167.76H2813.67C2813.67 178.257 2810.17 186.545 2802.97 192.872L2803.3 193.248ZM2814.17 167.76V63.04H2813.67V167.76H2814.17ZM2785.95 169.96C2785.95 172.008 2785.41 173.53 2784.4 174.541C2783.39 175.551 2781.86 176.09 2779.82 176.09V176.59C2781.95 176.59 2783.62 176.029 2784.75 174.894C2785.88 173.76 2786.45 172.092 2786.45 169.96H2785.95ZM2779.82 176.09C2777.77 176.09 2776.25 175.551 2775.23 174.541C2774.22 173.53 2773.69 172.008 2773.69 169.96H2773.19C2773.19 172.092 2773.75 173.76 2774.88 174.894C2776.02 176.029 2777.68 176.59 2779.82 176.59V176.09ZM2773.69 169.96V61.06H2773.19V169.96H2773.69ZM2773.69 61.06C2773.69 59.0119 2774.22 57.5485 2775.23 56.5939C2776.24 55.6369 2777.76 55.15 2779.82 55.15V54.65C2777.69 54.65 2776.02 55.1531 2774.89 56.2311C2773.75 57.3115 2773.19 58.9281 2773.19 61.06H2773.69ZM2779.82 55.15C2781.87 55.15 2783.39 55.6369 2784.4 56.5939C2785.41 57.5485 2785.95 59.0119 2785.95 61.06H2786.45C2786.45 58.9281 2785.88 57.3115 2784.74 56.2311C2783.61 55.1531 2781.94 54.65 2779.82 54.65V55.15ZM2785.95 61.06V169.96H2786.45V61.06H2785.95ZM2887.59 40.16L2887.42 40.3368L2887.42 40.3402L2887.59 40.16ZM2828.19 31.8V31.55H2827.94V31.8H2828.19ZM2828.19 199H2827.94V199.25H2828.19V199ZM2855.03 199V199.25H2855.28V199H2855.03ZM2855.03 129.26V129.01H2854.78V129.26H2855.03ZM2887.59 120.9L2887.77 121.08L2887.77 121.077L2887.59 120.9ZM2861.85 103.3V103.05L2861.85 103.05L2861.85 103.3ZM2855.03 103.52H2854.78V103.778L2855.04 103.77L2855.03 103.52ZM2855.03 56.44V56.19H2854.78V56.44H2855.03ZM2896.42 60.62C2896.42 52.414 2893.54 45.5283 2887.77 39.9798L2887.42 40.3402C2893.09 45.7917 2895.92 52.546 2895.92 60.62H2896.42ZM2887.77 39.9832C2882.23 34.4372 2875.34 31.55 2867.57 31.55V32.05C2875.21 32.05 2881.96 34.8828 2887.42 40.3368L2887.77 39.9832ZM2867.57 31.55L2828.19 31.55V32.05L2867.57 32.05V31.55ZM2827.94 31.8V199H2828.44V31.8H2827.94ZM2828.19 199.25H2855.03V198.75H2828.19V199.25ZM2855.28 199V129.26H2854.78V199H2855.28ZM2855.03 129.51H2867.79V129.01H2855.03V129.51ZM2867.79 129.51C2875.35 129.51 2882.01 126.62 2887.77 121.08L2887.42 120.72C2881.74 126.18 2875.2 129.01 2867.79 129.01V129.51ZM2887.77 121.077C2893.53 115.315 2896.42 108.653 2896.42 101.32H2895.92C2895.92 108.507 2893.1 115.045 2887.42 120.723L2887.77 121.077ZM2896.42 101.32V60.62H2895.92V101.32H2896.42ZM2869.08 93.4C2869.08 96.6771 2868.48 99.0879 2867.29 100.675C2866.11 102.248 2864.33 103.05 2861.85 103.05V103.55C2864.44 103.55 2866.4 102.702 2867.69 100.975C2868.98 99.2621 2869.58 96.7229 2869.58 93.4H2869.08ZM2861.85 103.05L2855.03 103.27L2855.04 103.77L2861.86 103.55L2861.85 103.05ZM2855.28 103.52V56.44H2854.78V103.52H2855.28ZM2855.03 56.69H2860.97V56.19H2855.03V56.69ZM2860.97 56.69C2865.84 56.69 2869.08 61.3565 2869.08 66.56H2869.58C2869.58 61.2035 2866.23 56.19 2860.97 56.19V56.69ZM2869.08 66.56V93.4H2869.58V66.56H2869.08ZM2966.8 173.26H2967.05V173.01H2966.8V173.26ZM2932.92 173.26H2932.67V173.51H2932.92V173.26ZM2932.92 127.72V127.47H2932.67V127.72H2932.92ZM2954.26 127.72V127.97H2954.51V127.72H2954.26ZM2954.26 103.08H2954.51V102.83H2954.26V103.08ZM2932.92 103.08H2932.67V103.33H2932.92V103.08ZM2932.92 57.54V57.29H2932.67V57.54H2932.92ZM2966.8 57.54V57.79H2967.05V57.54H2966.8ZM2966.8 31.8H2967.05V31.55H2966.8V31.8ZM2906.08 31.8V31.55H2905.83V31.8H2906.08ZM2906.08 199H2905.83V199.25H2906.08V199ZM2966.8 199V199.25H2967.05V199H2966.8ZM2966.8 173.01H2932.92V173.51H2966.8V173.01ZM2933.17 173.26V127.72H2932.67V173.26H2933.17ZM2932.92 127.97H2954.26V127.47H2932.92V127.97ZM2954.51 127.72V103.08H2954.01V127.72H2954.51ZM2954.26 102.83H2932.92V103.33H2954.26V102.83ZM2933.17 103.08V57.54H2932.67V103.08H2933.17ZM2932.92 57.79L2966.8 57.79V57.29L2932.92 57.29V57.79ZM2967.05 57.54V31.8H2966.55V57.54H2967.05ZM2966.8 31.55L2906.08 31.55V32.05L2966.8 32.05V31.55ZM2905.83 31.8V199H2906.33V31.8H2905.83ZM2906.08 199.25L2966.8 199.25V198.75L2906.08 198.75V199.25ZM2967.05 199V173.26H2966.55V199H2967.05ZM3053.33 199L3053.33 199.25L3053.77 199.254L3053.55 198.873L3053.33 199ZM3040.13 115.4L3039.96 115.22L3039.74 115.431L3039.99 115.605L3040.13 115.4ZM3040.57 40.16L3040.4 40.3368L3040.4 40.3402L3040.57 40.16ZM2981.17 31.8V31.55H2980.92V31.8H2981.17ZM2981.17 199H2980.92V199.25H2981.17V199ZM3008.01 199V199.25H3008.26V199H3008.01ZM3008.01 123.32V123.07H3007.76V123.32H3008.01ZM3026.49 198.78L3026.28 198.907L3026.35 199.029L3026.49 199.03L3026.49 198.78ZM3008.01 97.58H3007.76V97.83H3008.01V97.58ZM3008.01 56.44V56.19H3007.76V56.44H3008.01ZM3053.55 198.873C3051.38 195.193 3050.28 189.308 3050.28 181.18H3049.78C3049.78 189.332 3050.88 195.327 3053.12 199.127L3053.55 198.873ZM3050.28 181.18V139.6H3049.78V181.18H3050.28ZM3050.28 139.6C3050.28 127.895 3046.97 119.88 3040.28 115.195L3039.99 115.605C3046.5 120.16 3049.78 127.985 3049.78 139.6H3050.28ZM3040.31 115.58C3046.29 109.82 3049.4 103.158 3049.4 95.6H3048.9C3048.9 103.002 3045.86 109.54 3039.96 115.22L3040.31 115.58ZM3049.4 95.6V60.62H3048.9V95.6H3049.4ZM3049.4 60.62C3049.4 52.414 3046.52 45.5283 3040.75 39.9798L3040.4 40.3402C3046.07 45.7917 3048.9 52.546 3048.9 60.62H3049.4ZM3040.75 39.9832C3035.2 34.4372 3028.32 31.55 3020.55 31.55V32.05C3028.18 32.05 3034.94 34.8828 3040.4 40.3368L3040.75 39.9832ZM3020.55 31.55L2981.17 31.55V32.05L3020.55 32.05V31.55ZM2980.92 31.8V199H2981.42V31.8H2980.92ZM2981.17 199.25H3008.01V198.75H2981.17V199.25ZM3008.26 199V123.32H3007.76V199H3008.26ZM3008.01 123.57H3014.61V123.07H3008.01V123.57ZM3014.61 123.57C3017.39 123.57 3019.45 124.735 3020.83 127.077C3022.23 129.44 3022.94 133.016 3022.94 137.84H3023.44C3023.44 132.984 3022.73 129.3 3021.26 126.823C3019.79 124.325 3017.56 123.07 3014.61 123.07V123.57ZM3022.94 137.84V181.4H3023.44V137.84H3022.94ZM3022.94 181.4C3022.94 189.334 3024.04 195.109 3026.28 198.907L3026.71 198.653C3024.54 194.971 3023.44 189.306 3023.44 181.4H3022.94ZM3026.49 199.03L3053.33 199.25L3053.33 198.75L3026.49 198.53L3026.49 199.03ZM3022.06 87.68C3022.06 90.9571 3021.46 93.3679 3020.27 94.955C3019.09 96.528 3017.3 97.33 3014.83 97.33V97.83C3017.42 97.83 3019.37 96.982 3020.67 95.255C3021.95 93.5421 3022.56 91.0029 3022.56 87.68H3022.06ZM3014.83 97.33H3008.01V97.83H3014.83V97.33ZM3008.26 97.58V56.44H3007.76V97.58H3008.26ZM3008.01 56.69H3013.95V56.19H3008.01V56.69ZM3013.95 56.69C3018.82 56.69 3022.06 61.3565 3022.06 66.56H3022.56C3022.56 61.2035 3019.2 56.19 3013.95 56.19V56.69ZM3022.06 66.56V87.68H3022.56V66.56H3022.06ZM3120.78 140.04L3120.6 140.214L3120.61 140.22L3120.78 140.04ZM3171.38 89.44L3171.2 89.614L3171.2 89.6168L3171.38 89.44ZM3120.78 89.44L3120.6 89.2632L3120.6 89.266L3120.78 89.44ZM3110.19 114.74C3110.19 124.707 3113.74 133.129 3120.6 140.214L3120.96 139.866C3114.18 132.871 3110.69 124.573 3110.69 114.74H3110.19ZM3120.61 140.22C3127.69 147.084 3136.33 150.63 3146.3 150.63V150.13C3136.46 150.13 3127.95 146.636 3120.95 139.86L3120.61 140.22ZM3146.3 150.63C3156.27 150.63 3164.69 147.084 3171.56 140.217L3171.2 139.863C3164.43 146.636 3156.13 150.13 3146.3 150.13V150.63ZM3171.56 140.217C3178.64 133.131 3182.19 124.708 3182.19 114.74H3181.69C3181.69 124.572 3178.2 132.869 3171.2 139.863L3171.56 140.217ZM3182.19 114.74C3182.19 104.772 3178.64 96.3492 3171.56 89.2632L3171.2 89.6168C3178.2 96.6108 3181.69 104.908 3181.69 114.74H3182.19ZM3171.56 89.266C3164.69 82.1769 3156.27 78.63 3146.3 78.63V79.13C3156.13 79.13 3164.43 82.6231 3171.2 89.6139L3171.56 89.266ZM3146.3 78.63C3136.33 78.63 3127.69 82.176 3120.6 89.2632L3120.96 89.6168C3127.95 82.6239 3136.46 79.13 3146.3 79.13V78.63ZM3120.6 89.266C3113.74 96.3512 3110.19 104.773 3110.19 114.74H3110.69C3110.69 104.907 3114.18 96.6088 3120.96 89.6139L3120.6 89.266Z" fill="#FF0000"/>
</svg>
