<svg width="3180" height="173" viewBox="0 0 3180 173" fill="none" xmlns="http://www.w3.org/2000/svg">
<path d="M10.64 111.04L10.4603 111.214L10.4661 111.22L10.64 111.04ZM61.24 60.44L61.0604 60.614L61.0632 60.6168L61.24 60.44ZM10.64 60.44L10.4632 60.2632L10.4604 60.266L10.64 60.44ZM0.0499985 85.74C0.0499985 95.707 3.59673 104.129 10.4604 111.214L10.8196 110.866C4.04326 103.871 0.549999 95.573 0.549999 85.74H0.0499985ZM10.4661 111.22C17.5524 118.084 26.1946 121.63 36.16 121.63V121.13C26.3254 121.13 17.8076 117.636 10.8139 110.86L10.4661 111.22ZM36.16 121.63C46.1264 121.63 54.55 118.084 61.4168 111.217L61.0632 110.863C54.2901 117.636 45.9936 121.13 36.16 121.13V121.63ZM61.4168 111.217C68.5028 104.131 72.05 95.7075 72.05 85.74H71.55C71.55 95.5724 68.0572 103.869 61.0632 110.863L61.4168 111.217ZM72.05 85.74C72.05 75.7724 68.5028 67.3492 61.4168 60.2632L61.0632 60.6168C68.0572 67.6108 71.55 75.9075 71.55 85.74H72.05ZM61.4196 60.266C54.5519 53.1769 46.1269 49.63 36.16 49.63V50.13C45.9931 50.13 54.2881 53.6231 61.0604 60.6139L61.4196 60.266ZM36.16 49.63C26.1941 49.63 17.5504 53.176 10.4632 60.2632L10.8168 60.6168C17.8096 53.6239 26.3259 50.13 36.16 50.13V49.63ZM10.4604 60.266C3.59673 67.3512 0.0499985 75.773 0.0499985 85.74H0.549999C0.549999 75.907 4.04326 67.6088 10.8196 60.6139L10.4604 60.266ZM197.317 2.79999H197.567V2.54999H197.317V2.79999ZM136.597 2.79999V2.54999H136.347V2.79999H136.597ZM136.597 170H136.347V170.25H136.597V170ZM163.437 170V170.25H163.687V170H163.437ZM163.437 98.72V98.47H163.187V98.72H163.437ZM184.777 98.72V98.97H185.027V98.72H184.777ZM184.777 74.08H185.027V73.83H184.777V74.08ZM163.437 74.08H163.187V74.33H163.437V74.08ZM163.437 28.54V28.29H163.187V28.54H163.437ZM197.317 28.54V28.79H197.567V28.54H197.317ZM197.317 2.54999L136.597 2.54999V3.04999L197.317 3.04999V2.54999ZM136.347 2.79999L136.347 170H136.847L136.847 2.79999H136.347ZM136.597 170.25H163.437V169.75H136.597V170.25ZM163.687 170V98.72H163.187V170H163.687ZM163.437 98.97H184.777V98.47H163.437V98.97ZM185.027 98.72V74.08H184.527V98.72H185.027ZM184.777 73.83H163.437V74.33H184.777V73.83ZM163.687 74.08L163.687 28.54H163.187L163.187 74.08H163.687ZM163.437 28.79L197.317 28.79V28.29L163.437 28.29V28.79ZM197.567 28.54V2.79999H197.067V28.54H197.567ZM279.337 170L279.335 170.25L279.777 170.254L279.553 169.873L279.337 170ZM266.137 86.4L265.964 86.2199L265.745 86.4306L265.994 86.6048L266.137 86.4ZM266.577 11.16L266.401 11.3368L266.404 11.3402L266.577 11.16ZM207.177 2.79999V2.54999H206.927V2.79999H207.177ZM207.177 170L206.927 170V170.25L207.177 170.25V170ZM234.017 170V170.25H234.267V170H234.017ZM234.017 94.32V94.07H233.767V94.32H234.017ZM252.497 169.78L252.282 169.907L252.354 170.029L252.495 170.03L252.497 169.78ZM234.017 68.58H233.767V68.83H234.017V68.58ZM234.017 27.44V27.19H233.767V27.44H234.017ZM279.553 169.873C277.388 166.193 276.287 160.308 276.287 152.18H275.787C275.787 160.332 276.887 166.327 279.122 170.127L279.553 169.873ZM276.287 152.18L276.287 110.6H275.787L275.787 152.18H276.287ZM276.287 110.6C276.287 98.8952 272.973 90.8797 266.281 86.1952L265.994 86.6048C272.502 91.1603 275.787 98.9848 275.787 110.6H276.287ZM266.311 86.5801C272.292 80.8201 275.407 74.1576 275.407 66.6H274.907C274.907 74.0024 271.862 80.5399 265.964 86.2199L266.311 86.5801ZM275.407 66.6V31.62H274.907V66.6H275.407ZM275.407 31.62C275.407 23.414 272.521 16.5283 266.751 10.9798L266.404 11.3402C272.074 16.7917 274.907 23.546 274.907 31.62H275.407ZM266.754 10.9832C261.208 5.43716 254.325 2.54999 246.557 2.54999V3.04999C254.19 3.04999 260.947 5.88282 266.401 11.3368L266.754 10.9832ZM246.557 2.54999L207.177 2.54999V3.04999L246.557 3.04999V2.54999ZM206.927 2.79999L206.927 170L207.427 170L207.427 2.79999H206.927ZM207.177 170.25H234.017V169.75H207.177V170.25ZM234.267 170L234.267 94.32H233.767L233.767 170H234.267ZM234.017 94.57H240.617V94.07H234.017V94.57ZM240.617 94.57C243.391 94.57 245.453 95.7349 246.837 98.0772C248.233 100.44 248.947 104.016 248.947 108.84H249.447C249.447 103.984 248.731 100.3 247.268 97.8228C245.792 95.3251 243.564 94.07 240.617 94.07V94.57ZM248.947 108.84L248.947 152.4H249.447L249.447 108.84H248.947ZM248.947 152.4C248.947 160.334 250.048 166.109 252.282 169.907L252.713 169.653C250.547 165.971 249.447 160.306 249.447 152.4H248.947ZM252.495 170.03L279.335 170.25L279.339 169.75L252.499 169.53L252.495 170.03ZM248.067 58.68C248.067 61.9571 247.465 64.3679 246.275 65.955C245.095 67.528 243.308 68.33 240.837 68.33V68.83C243.427 68.83 245.38 67.982 246.675 66.255C247.96 64.5421 248.567 62.0029 248.567 58.68H248.067ZM240.837 68.33H234.017V68.83H240.837V68.33ZM234.267 68.58V27.44H233.767V68.58H234.267ZM234.017 27.69H239.957V27.19H234.017V27.69ZM239.957 27.69C244.825 27.69 248.067 32.3565 248.067 37.56H248.567C248.567 32.2035 245.21 27.19 239.957 27.19V27.69ZM248.067 37.56V58.68H248.567V37.56H248.067ZM343.485 9.4L343.652 9.21447L343.651 9.21351L343.485 9.4ZM320.605 0.819988L320.611 0.570062L320.61 0.570056L320.605 0.819988ZM296.845 8.73999L297.006 8.93062L297.008 8.92934L296.845 8.73999ZM296.405 164.06L296.237 164.245L296.241 164.249L296.405 164.06ZM343.045 164.06L343.208 164.249L343.21 164.248L343.045 164.06ZM354.075 34.04C354.075 23.636 350.529 15.4262 343.652 9.21447L343.317 9.58552C350.08 15.6938 353.575 23.764 353.575 34.04H354.075ZM343.651 9.21351C337.442 3.6697 329.683 0.791354 320.611 0.570063L320.598 1.06991C329.566 1.28864 337.207 4.13028 343.318 9.58648L343.651 9.21351ZM320.61 0.570056C311.097 0.34881 303.114 3.00515 296.681 8.55064L297.008 8.92934C303.335 3.47484 311.192 0.851172 320.599 1.06992L320.61 0.570056ZM296.683 8.54936C289.361 14.7617 285.595 23.1944 285.595 34.04H286.095C286.095 23.3256 289.808 15.0383 297.006 8.93062L296.683 8.54936ZM285.595 34.04V138.76H286.095V34.04H285.595ZM285.595 138.76C285.595 149.383 289.139 157.813 296.237 164.245L296.572 163.875C289.59 157.547 286.095 149.257 286.095 138.76H285.595ZM296.241 164.249C302.67 169.791 310.649 172.67 319.725 172.67V172.17C310.761 172.17 302.899 169.329 296.568 163.871L296.241 164.249ZM319.725 172.67C329.021 172.67 336.78 169.79 343.208 164.249L342.881 163.871C336.549 169.33 328.908 172.17 319.725 172.17V172.67ZM343.21 164.248C350.53 157.815 354.075 149.383 354.075 138.76H353.575C353.575 149.257 350.079 157.545 342.88 163.872L343.21 164.248ZM354.075 138.76V34.04H353.575V138.76H354.075ZM325.855 140.96C325.855 143.008 325.316 144.53 324.305 145.541C323.295 146.551 321.773 147.09 319.725 147.09V147.59C321.856 147.59 323.525 147.029 324.659 145.894C325.793 144.76 326.355 143.092 326.355 140.96H325.855ZM319.725 147.09C317.676 147.09 316.155 146.551 315.144 145.541C314.133 144.53 313.595 143.008 313.595 140.96H313.095C313.095 143.092 313.656 144.76 314.79 145.894C315.925 147.029 317.593 147.59 319.725 147.59V147.09ZM313.595 140.96V32.06H313.095V140.96H313.595ZM313.595 32.06C313.595 30.0119 314.133 28.5485 315.139 27.5939C316.148 26.6369 317.67 26.15 319.725 26.15V25.65C317.599 25.65 315.931 26.1531 314.795 27.2311C313.656 28.3115 313.095 29.9281 313.095 32.06H313.595ZM319.725 26.15C321.779 26.15 323.301 26.6369 324.31 27.5939C325.316 28.5485 325.855 30.0119 325.855 32.06H326.355C326.355 29.9281 325.793 28.3115 324.654 27.2311C323.518 26.1531 321.85 25.65 319.725 25.65V26.15ZM325.855 32.06V140.96H326.355V32.06H325.855ZM444.224 2.79999H444.474V2.54999H444.224V2.79999ZM419.584 2.79999V2.54999H419.334V2.79999H419.584ZM419.584 78.7L419.346 78.7772L419.834 78.7H419.584ZM394.944 2.79999L395.182 2.7228L395.126 2.54999H394.944V2.79999ZM368.104 2.79999V2.54999H367.854V2.79999H368.104ZM368.104 170H367.854V170.25H368.104V170ZM391.424 170V170.25H391.674V170H391.424ZM391.424 75.62L391.663 75.5485L391.174 75.62H391.424ZM419.584 170L419.344 170.071L419.398 170.25H419.584V170ZM444.224 170V170.25H444.474V170H444.224ZM444.224 2.54999L419.584 2.54999V3.04999H444.224V2.54999ZM419.334 2.79999V78.7H419.834V2.79999H419.334ZM419.822 78.6228L395.182 2.7228L394.706 2.87718L419.346 78.7772L419.822 78.6228ZM394.944 2.54999L368.104 2.54999V3.04999H394.944V2.54999ZM367.854 2.79999L367.854 170H368.354L368.354 2.79999H367.854ZM368.104 170.25L391.424 170.25V169.75L368.104 169.75V170.25ZM391.674 170L391.674 75.62H391.174L391.174 170H391.674ZM391.184 75.6915L419.344 170.071L419.823 169.929L391.663 75.5485L391.184 75.6915ZM419.584 170.25H444.224V169.75H419.584V170.25ZM444.474 170L444.474 2.79999H443.974L443.974 170H444.474ZM521.948 2.79999H522.198V2.54999H521.948V2.79999ZM454.188 2.79999V2.54999H453.938V2.79999H454.188ZM454.188 28.32H453.938V28.57H454.188V28.32ZM474.648 28.32H474.898V28.07H474.648V28.32ZM474.648 170H474.398V170.25H474.648V170ZM501.488 170V170.25H501.738V170H501.488ZM501.488 28.32V28.07H501.238V28.32H501.488ZM521.948 28.32V28.57H522.198V28.32H521.948ZM521.948 2.54999L454.188 2.54999V3.04999L521.948 3.04999V2.54999ZM453.938 2.79999V28.32H454.438V2.79999H453.938ZM454.188 28.57H474.648V28.07H454.188V28.57ZM474.398 28.32V170H474.898V28.32H474.398ZM474.648 170.25H501.488V169.75H474.648V170.25ZM501.738 170V28.32H501.238V170H501.738ZM501.488 28.57H521.948V28.07H501.488V28.57ZM522.198 28.32V2.79999H521.698V28.32H522.198ZM643.143 144.26H643.393V144.01H643.143V144.26ZM609.263 144.26H609.013V144.51H609.263V144.26ZM609.263 98.72V98.47H609.013V98.72H609.263ZM630.603 98.72V98.97H630.853V98.72H630.603ZM630.603 74.08H630.853V73.83H630.603V74.08ZM609.263 74.08H609.013V74.33H609.263V74.08ZM609.263 28.54V28.29H609.013V28.54H609.263ZM643.143 28.54V28.79H643.393V28.54H643.143ZM643.143 2.79999H643.393V2.54999H643.143V2.79999ZM582.423 2.79999V2.54999H582.173V2.79999H582.423ZM582.423 170H582.173V170.25H582.423V170ZM643.143 170V170.25H643.393V170H643.143ZM643.143 144.01H609.263V144.51H643.143V144.01ZM609.513 144.26V98.72H609.013V144.26H609.513ZM609.263 98.97H630.603V98.47H609.263V98.97ZM630.853 98.72V74.08H630.353V98.72H630.853ZM630.603 73.83H609.263V74.33H630.603V73.83ZM609.513 74.08V28.54H609.013V74.08H609.513ZM609.263 28.79L643.143 28.79V28.29L609.263 28.29V28.79ZM643.393 28.54V2.79999H642.893V28.54H643.393ZM643.143 2.54999L582.423 2.54999V3.04999L643.143 3.04999V2.54999ZM582.173 2.79999V170H582.673V2.79999H582.173ZM582.423 170.25H643.143V169.75H582.423V170.25ZM643.393 170V144.26H642.893V170H643.393ZM733.636 2.79999H733.886V2.54999H733.636V2.79999ZM708.996 2.79999V2.54999H708.746V2.79999H708.996ZM708.996 78.7L708.758 78.7772L709.246 78.7H708.996ZM684.356 2.79999L684.593 2.7228L684.537 2.54999H684.356V2.79999ZM657.516 2.79999V2.54999H657.266V2.79999H657.516ZM657.516 170H657.266V170.25H657.516V170ZM680.836 170V170.25H681.086V170H680.836ZM680.836 75.62L681.075 75.5485L680.586 75.62H680.836ZM708.996 170L708.756 170.071L708.809 170.25H708.996V170ZM733.636 170V170.25H733.886V170H733.636ZM733.636 2.54999L708.996 2.54999V3.04999L733.636 3.04999V2.54999ZM708.746 2.79999V78.7H709.246V2.79999H708.746ZM709.233 78.6228L684.593 2.7228L684.118 2.87718L708.758 78.7772L709.233 78.6228ZM684.356 2.54999L657.516 2.54999V3.04999L684.356 3.04999V2.54999ZM657.266 2.79999V170H657.766V2.79999H657.266ZM657.516 170.25H680.836V169.75H657.516V170.25ZM681.086 170V75.62H680.586V170H681.086ZM680.596 75.6915L708.756 170.071L709.235 169.929L681.075 75.5485L680.596 75.6915ZM708.996 170.25H733.636V169.75H708.996V170.25ZM733.886 170V2.79999H733.386V170H733.886ZM808.939 11.38L808.769 11.5632L808.772 11.5655L808.939 11.38ZM751.299 2.79999V2.54999H751.049V2.79999H751.299ZM751.299 170H751.049V170.25H751.299V170ZM808.719 161.64L808.882 161.829L808.884 161.828L808.719 161.64ZM789.139 141.62L789.251 141.844L789.262 141.838L789.272 141.832L789.139 141.62ZM779.019 142.28H778.769V142.53H779.019V142.28ZM779.019 28.54V28.29H778.769V28.54H779.019ZM783.859 28.54V28.7902L783.87 28.7898L783.859 28.54ZM819.529 36.24C819.529 25.8378 815.985 17.4073 809.107 11.1945L808.772 11.5655C815.533 17.6727 819.029 25.9622 819.029 36.24H819.529ZM809.109 11.1968C802.899 5.42999 795.136 2.54999 786.059 2.54999V3.04999C795.022 3.04999 802.659 5.89 808.769 11.5632L809.109 11.1968ZM786.059 2.54999L751.299 2.54999V3.04999L786.059 3.04999V2.54999ZM751.049 2.79999V170H751.549V2.79999H751.049ZM751.299 170.25H785.619V169.75H751.299V170.25ZM785.619 170.25C794.697 170.25 802.455 167.37 808.882 161.829L808.556 161.451C802.223 166.91 794.582 169.75 785.619 169.75V170.25ZM808.884 161.828C815.985 155.615 819.529 147.183 819.529 136.78H819.029C819.029 147.057 815.534 155.345 808.555 161.452L808.884 161.828ZM819.529 136.78V36.24H819.029V136.78H819.529ZM791.529 134.36C791.529 138.082 790.65 140.381 789.007 141.408L789.272 141.832C791.148 140.659 792.029 138.118 792.029 134.36H791.529ZM789.027 141.396C788.204 141.808 786.717 142.03 784.519 142.03V142.53C786.721 142.53 788.314 142.312 789.251 141.844L789.027 141.396ZM784.519 142.03H779.019V142.53H784.519V142.03ZM779.269 142.28V28.54H778.769V142.28H779.269ZM779.019 28.79H783.859V28.29H779.019V28.79ZM783.87 28.7898C786.458 28.6819 788.355 29.3827 789.611 30.8219C790.874 32.2698 791.529 34.5091 791.529 37.56H792.029C792.029 34.4509 791.364 32.0702 789.988 30.4931C788.604 28.9072 786.54 28.1781 783.849 28.2902L783.87 28.7898ZM791.529 37.56V134.36H792.029V37.56H791.529ZM941.721 11.38L941.551 11.5632L941.554 11.5655L941.721 11.38ZM884.081 2.79999V2.54999H883.831V2.79999H884.081ZM884.081 170H883.831V170.25H884.081V170ZM941.501 161.64L941.664 161.829L941.666 161.828L941.501 161.64ZM921.921 141.62L922.033 141.844L922.044 141.838L922.054 141.832L921.921 141.62ZM911.801 142.28H911.551V142.53H911.801V142.28ZM911.801 28.54V28.29H911.551V28.54H911.801ZM916.641 28.54V28.7902L916.652 28.7898L916.641 28.54ZM952.311 36.24C952.311 25.8378 948.767 17.4073 941.889 11.1945L941.554 11.5655C948.315 17.6727 951.811 25.9622 951.811 36.24H952.311ZM941.891 11.1968C935.681 5.42999 927.918 2.54999 918.841 2.54999V3.04999C927.804 3.04999 935.442 5.89 941.551 11.5632L941.891 11.1968ZM918.841 2.54999L884.081 2.54999V3.04999L918.841 3.04999V2.54999ZM883.831 2.79999V170H884.331V2.79999H883.831ZM884.081 170.25L918.401 170.25V169.75L884.081 169.75V170.25ZM918.401 170.25C927.479 170.25 935.237 167.37 941.664 161.829L941.338 161.451C935.005 166.91 927.364 169.75 918.401 169.75V170.25ZM941.666 161.828C948.767 155.615 952.311 147.183 952.311 136.78H951.811C951.811 147.057 948.316 155.345 941.337 161.452L941.666 161.828ZM952.311 136.78V36.24H951.811V136.78H952.311ZM924.311 134.36C924.311 138.082 923.432 140.381 921.789 141.408L922.054 141.832C923.93 140.659 924.811 138.118 924.811 134.36H924.311ZM921.809 141.396C920.986 141.808 919.499 142.03 917.301 142.03V142.53C919.503 142.53 921.096 142.312 922.033 141.844L921.809 141.396ZM917.301 142.03L911.801 142.03V142.53L917.301 142.53V142.03ZM912.051 142.28V28.54H911.551V142.28H912.051ZM911.801 28.79H916.641V28.29H911.801V28.79ZM916.652 28.7898C919.24 28.6819 921.137 29.3827 922.393 30.8219C923.656 32.2698 924.311 34.5091 924.311 37.56H924.811C924.811 34.4509 924.146 32.0702 922.77 30.4931C921.386 28.9072 919.322 28.1781 916.631 28.2902L916.652 28.7898ZM924.311 37.56V134.36H924.811V37.56H924.311ZM1026.98 144.26H1027.23V144.01H1026.98V144.26ZM993.103 144.26H992.853V144.51H993.103V144.26ZM993.103 98.72V98.47H992.853V98.72H993.103ZM1014.44 98.72V98.97H1014.69V98.72H1014.44ZM1014.44 74.08H1014.69V73.83H1014.44V74.08ZM993.103 74.08H992.853V74.33H993.103V74.08ZM993.103 28.54V28.29H992.853V28.54H993.103ZM1026.98 28.54V28.79H1027.23V28.54H1026.98ZM1026.98 2.79999H1027.23V2.54999H1026.98V2.79999ZM966.263 2.79999V2.54999H966.013V2.79999H966.263ZM966.263 170H966.013V170.25H966.263V170ZM1026.98 170V170.25H1027.23V170H1026.98ZM1026.98 144.01H993.103V144.51H1026.98V144.01ZM993.353 144.26V98.72H992.853V144.26H993.353ZM993.103 98.97H1014.44V98.47H993.103V98.97ZM1014.69 98.72V74.08H1014.19V98.72H1014.69ZM1014.44 73.83H993.103V74.33H1014.44V73.83ZM993.353 74.08V28.54H992.853V74.08H993.353ZM993.103 28.79L1026.98 28.79V28.29L993.103 28.29V28.79ZM1027.23 28.54V2.79999H1026.73V28.54H1027.23ZM1026.98 2.54999L966.263 2.54999V3.04999L1026.98 3.04999V2.54999ZM966.013 2.79999V170H966.513V2.79999H966.013ZM966.263 170.25H1026.98V169.75H966.263V170.25ZM1027.23 170V144.26H1026.73V170H1027.23ZM1077.88 2.79999V2.54999H1077.65L1077.63 2.77151L1077.88 2.79999ZM1069.96 71.88L1069.71 71.9077L1070.2 71.9085L1069.96 71.88ZM1062.26 2.79999L1062.5 2.77229L1062.48 2.54999H1062.26V2.79999ZM1033.66 2.79999V2.54999H1033.38L1033.41 2.82842L1033.66 2.79999ZM1052.8 170L1052.55 170.028L1052.57 170.25H1052.8V170ZM1078.98 170V170.25H1079.19L1079.22 170.033L1078.98 170ZM1101.42 2.79999L1101.66 2.83324L1101.7 2.54999H1101.42V2.79999ZM1077.63 2.77151L1069.71 71.8515L1070.2 71.9085L1078.12 2.82846L1077.63 2.77151ZM1070.2 71.8523L1062.5 2.77229L1062.01 2.82768L1069.71 71.9077L1070.2 71.8523ZM1062.26 2.54999L1033.66 2.54999V3.04999H1062.26V2.54999ZM1033.41 2.82842L1052.55 170.028L1053.04 169.972L1033.9 2.77156L1033.41 2.82842ZM1052.8 170.25H1078.98V169.75H1052.8V170.25ZM1079.22 170.033L1101.66 2.83324L1101.17 2.76673L1078.73 169.967L1079.22 170.033ZM1101.42 2.54999L1077.88 2.54999V3.04999H1101.42V2.54999ZM1172.01 144.26H1172.26V144.01H1172.01V144.26ZM1138.13 144.26H1137.88V144.51H1138.13V144.26ZM1138.13 98.72V98.47H1137.88V98.72H1138.13ZM1159.47 98.72V98.97H1159.72V98.72H1159.47ZM1159.47 74.08H1159.72V73.83H1159.47V74.08ZM1138.13 74.08H1137.88V74.33H1138.13V74.08ZM1138.13 28.54V28.29H1137.88V28.54H1138.13ZM1172.01 28.54V28.79H1172.26V28.54H1172.01ZM1172.01 2.79999H1172.26V2.54999H1172.01V2.79999ZM1111.29 2.79999V2.54999H1111.04V2.79999H1111.29ZM1111.29 170H1111.04V170.25H1111.29V170ZM1172.01 170V170.25H1172.26V170H1172.01ZM1172.01 144.01H1138.13V144.51H1172.01V144.01ZM1138.38 144.26V98.72H1137.88V144.26H1138.38ZM1138.13 98.97H1159.47V98.47H1138.13V98.97ZM1159.72 98.72V74.08H1159.22V98.72H1159.72ZM1159.47 73.83H1138.13V74.33H1159.47V73.83ZM1138.38 74.08V28.54H1137.88V74.08H1138.38ZM1138.13 28.79L1172.01 28.79V28.29L1138.13 28.29V28.79ZM1172.26 28.54V2.79999H1171.76V28.54H1172.26ZM1172.01 2.54999L1111.29 2.54999V3.04999L1172.01 3.04999V2.54999ZM1111.04 2.79999V170H1111.54V2.79999H1111.04ZM1111.29 170.25H1172.01V169.75H1111.29V170.25ZM1172.26 170V144.26H1171.76V170H1172.26ZM1247.1 143.16H1247.35V142.91H1247.1V143.16ZM1213.22 143.16H1212.97V143.41H1213.22V143.16ZM1213.22 2.79999H1213.47V2.54999H1213.22V2.79999ZM1186.38 2.79999V2.54999H1186.13V2.79999H1186.38ZM1186.38 170H1186.13V170.25H1186.38V170ZM1247.1 170V170.25H1247.35V170H1247.1ZM1247.1 142.91H1213.22V143.41H1247.1V142.91ZM1213.47 143.16V2.79999H1212.97V143.16H1213.47ZM1213.22 2.54999L1186.38 2.54999V3.04999L1213.22 3.04999V2.54999ZM1186.13 2.79999V170H1186.63V2.79999H1186.13ZM1186.38 170.25H1247.1V169.75H1186.38V170.25ZM1247.35 170V143.16H1246.85V170H1247.35ZM1311.3 9.4L1311.47 9.21447L1311.47 9.21351L1311.3 9.4ZM1288.42 0.819988L1288.43 0.570062L1288.43 0.570056L1288.42 0.819988ZM1264.66 8.73999L1264.83 8.93062L1264.83 8.92934L1264.66 8.73999ZM1264.22 164.06L1264.06 164.245L1264.06 164.249L1264.22 164.06ZM1310.86 164.06L1311.03 164.249L1311.03 164.248L1310.86 164.06ZM1321.89 34.04C1321.89 23.636 1318.35 15.4262 1311.47 9.21447L1311.14 9.58552C1317.9 15.6938 1321.39 23.764 1321.39 34.04H1321.89ZM1311.47 9.21351C1305.26 3.6697 1297.5 0.791354 1288.43 0.570063L1288.42 1.06991C1297.39 1.28864 1305.03 4.13028 1311.14 9.58648L1311.47 9.21351ZM1288.43 0.570056C1278.92 0.34881 1270.93 3.00515 1264.5 8.55064L1264.83 8.92934C1271.15 3.47484 1279.01 0.851172 1288.42 1.06992L1288.43 0.570056ZM1264.5 8.54936C1257.18 14.7617 1253.41 23.1944 1253.41 34.04H1253.91C1253.91 23.3256 1257.63 15.0383 1264.83 8.93062L1264.5 8.54936ZM1253.41 34.04V138.76H1253.91V34.04H1253.41ZM1253.41 138.76C1253.41 149.383 1256.96 157.813 1264.06 164.245L1264.39 163.875C1257.41 157.547 1253.91 149.257 1253.91 138.76H1253.41ZM1264.06 164.249C1270.49 169.791 1278.47 172.67 1287.54 172.67V172.17C1278.58 172.17 1270.72 169.329 1264.39 163.871L1264.06 164.249ZM1287.54 172.67C1296.84 172.67 1304.6 169.79 1311.03 164.249L1310.7 163.871C1304.37 169.33 1296.73 172.17 1287.54 172.17V172.67ZM1311.03 164.248C1318.35 157.815 1321.89 149.383 1321.89 138.76H1321.39C1321.39 149.257 1317.9 157.545 1310.7 163.872L1311.03 164.248ZM1321.89 138.76V34.04H1321.39V138.76H1321.89ZM1293.67 140.96C1293.67 143.008 1293.14 144.53 1292.12 145.541C1291.11 146.551 1289.59 147.09 1287.54 147.09V147.59C1289.68 147.59 1291.34 147.029 1292.48 145.894C1293.61 144.76 1294.17 143.092 1294.17 140.96H1293.67ZM1287.54 147.09C1285.5 147.09 1283.97 146.551 1282.96 145.541C1281.95 144.53 1281.41 143.008 1281.41 140.96H1280.91C1280.91 143.092 1281.48 144.76 1282.61 145.894C1283.74 147.029 1285.41 147.59 1287.54 147.59V147.09ZM1281.41 140.96V32.06H1280.91V140.96H1281.41ZM1281.41 32.06C1281.41 30.0119 1281.95 28.5485 1282.96 27.5939C1283.97 26.6369 1285.49 26.15 1287.54 26.15V25.65C1285.42 25.65 1283.75 26.1531 1282.61 27.2311C1281.48 28.3115 1280.91 29.9281 1280.91 32.06H1281.41ZM1287.54 26.15C1289.6 26.15 1291.12 26.6369 1292.13 27.5939C1293.14 28.5485 1293.67 30.0119 1293.67 32.06H1294.17C1294.17 29.9281 1293.61 28.3115 1292.47 27.2311C1291.34 26.1531 1289.67 25.65 1287.54 25.65V26.15ZM1293.67 32.06V140.96H1294.17V32.06H1293.67ZM1395.32 11.16L1395.15 11.3368L1395.15 11.3402L1395.32 11.16ZM1335.92 2.79999V2.54999H1335.67V2.79999H1335.92ZM1335.92 170H1335.67V170.25H1335.92V170ZM1362.76 170V170.25H1363.01V170H1362.76ZM1362.76 100.26V100.01H1362.51V100.26H1362.76ZM1395.32 91.9L1395.5 92.0802L1395.5 92.0768L1395.32 91.9ZM1369.58 74.3V74.0499L1369.58 74.0501L1369.58 74.3ZM1362.76 74.52H1362.51V74.7782L1362.77 74.7699L1362.76 74.52ZM1362.76 27.44V27.19H1362.51V27.44H1362.76ZM1404.15 31.62C1404.15 23.414 1401.27 16.5283 1395.5 10.9798L1395.15 11.3402C1400.82 16.7917 1403.65 23.546 1403.65 31.62H1404.15ZM1395.5 10.9832C1389.95 5.43716 1383.07 2.54999 1375.3 2.54999V3.04999C1382.94 3.04999 1389.69 5.88282 1395.15 11.3368L1395.5 10.9832ZM1375.3 2.54999L1335.92 2.54999V3.04999H1375.3V2.54999ZM1335.67 2.79999V170H1336.17V2.79999H1335.67ZM1335.92 170.25H1362.76V169.75H1335.92V170.25ZM1363.01 170V100.26H1362.51V170H1363.01ZM1362.76 100.51H1375.52V100.01H1362.76V100.51ZM1375.52 100.51C1383.07 100.51 1389.74 97.6201 1395.5 92.0802L1395.15 91.7198C1389.47 97.1798 1382.93 100.01 1375.52 100.01V100.51ZM1395.5 92.0768C1401.26 86.3149 1404.15 79.6531 1404.15 72.32H1403.65C1403.65 79.5069 1400.82 86.0451 1395.15 91.7232L1395.5 92.0768ZM1404.15 72.32V31.62H1403.65V72.32H1404.15ZM1376.81 64.4C1376.81 67.6771 1376.21 70.0879 1375.02 71.675C1373.84 73.248 1372.05 74.05 1369.58 74.05V74.55C1372.17 74.55 1374.13 73.702 1375.42 71.975C1376.71 70.2621 1377.31 67.7229 1377.31 64.4H1376.81ZM1369.58 74.0501L1362.76 74.2701L1362.77 74.7699L1369.59 74.5499L1369.58 74.0501ZM1363.01 74.52V27.44H1362.51V74.52H1363.01ZM1362.76 27.69H1368.7V27.19H1362.76V27.69ZM1368.7 27.69C1373.57 27.69 1376.81 32.3565 1376.81 37.56H1377.31C1377.31 32.2035 1373.96 27.19 1368.7 27.19V27.69ZM1376.81 37.56V64.4H1377.31V37.56H1376.81ZM1474.53 144.26H1474.78V144.01H1474.53V144.26ZM1440.65 144.26H1440.4V144.51H1440.65V144.26ZM1440.65 98.72V98.47H1440.4V98.72H1440.65ZM1461.99 98.72V98.97H1462.24V98.72H1461.99ZM1461.99 74.08H1462.24V73.83H1461.99V74.08ZM1440.65 74.08H1440.4V74.33H1440.65V74.08ZM1440.65 28.54V28.29H1440.4V28.54H1440.65ZM1474.53 28.54V28.79H1474.78V28.54H1474.53ZM1474.53 2.79999H1474.78V2.54999H1474.53V2.79999ZM1413.81 2.79999V2.54999H1413.56V2.79999H1413.81ZM1413.81 170H1413.56V170.25H1413.81V170ZM1474.53 170V170.25H1474.78V170H1474.53ZM1474.53 144.01L1440.65 144.01V144.51L1474.53 144.51V144.01ZM1440.9 144.26V98.72H1440.4V144.26H1440.9ZM1440.65 98.97H1461.99V98.47H1440.65V98.97ZM1462.24 98.72V74.08H1461.74V98.72H1462.24ZM1461.99 73.83H1440.65V74.33H1461.99V73.83ZM1440.9 74.08V28.54H1440.4V74.08H1440.9ZM1440.65 28.79L1474.53 28.79V28.29L1440.65 28.29V28.79ZM1474.78 28.54V2.79999H1474.28V28.54H1474.78ZM1474.53 2.54999L1413.81 2.54999V3.04999L1474.53 3.04999V2.54999ZM1413.56 2.79999V170H1414.06V2.79999H1413.56ZM1413.81 170.25L1474.53 170.25V169.75L1413.81 169.75V170.25ZM1474.78 170V144.26H1474.28V170H1474.78ZM1561.06 170L1561.06 170.25L1561.5 170.254L1561.28 169.873L1561.06 170ZM1547.86 86.4L1547.69 86.2199L1547.47 86.4306L1547.72 86.6048L1547.86 86.4ZM1548.3 11.16L1548.12 11.3368L1548.13 11.3402L1548.3 11.16ZM1488.9 2.79999V2.54999H1488.65V2.79999H1488.9ZM1488.9 170H1488.65V170.25H1488.9V170ZM1515.74 170V170.25H1515.99V170H1515.74ZM1515.74 94.32V94.07H1515.49V94.32H1515.74ZM1534.22 169.78L1534.01 169.907L1534.08 170.029L1534.22 170.03L1534.22 169.78ZM1515.74 68.58H1515.49V68.83H1515.74V68.58ZM1515.74 27.44V27.19H1515.49V27.44H1515.74ZM1561.28 169.873C1559.11 166.193 1558.01 160.308 1558.01 152.18H1557.51C1557.51 160.332 1558.61 166.327 1560.85 170.127L1561.28 169.873ZM1558.01 152.18V110.6H1557.51V152.18H1558.01ZM1558.01 110.6C1558.01 98.8952 1554.7 90.8797 1548 86.1952L1547.72 86.6048C1554.23 91.1603 1557.51 98.9848 1557.51 110.6H1558.01ZM1548.03 86.5801C1554.02 80.8201 1557.13 74.1576 1557.13 66.6H1556.63C1556.63 74.0024 1553.59 80.5399 1547.69 86.2199L1548.03 86.5801ZM1557.13 66.6V31.62H1556.63V66.6H1557.13ZM1557.13 31.62C1557.13 23.414 1554.24 16.5283 1548.47 10.9798L1548.13 11.3402C1553.8 16.7917 1556.63 23.546 1556.63 31.62H1557.13ZM1548.48 10.9832C1542.93 5.43716 1536.05 2.54999 1528.28 2.54999V3.04999C1535.91 3.04999 1542.67 5.88282 1548.12 11.3368L1548.48 10.9832ZM1528.28 2.54999L1488.9 2.54999V3.04999L1528.28 3.04999V2.54999ZM1488.65 2.79999V170H1489.15V2.79999H1488.65ZM1488.9 170.25H1515.74V169.75H1488.9V170.25ZM1515.99 170V94.32H1515.49V170H1515.99ZM1515.74 94.57H1522.34V94.07H1515.74V94.57ZM1522.34 94.57C1525.11 94.57 1527.18 95.7349 1528.56 98.0772C1529.96 100.44 1530.67 104.016 1530.67 108.84H1531.17C1531.17 103.984 1530.45 100.3 1528.99 97.8228C1527.52 95.3251 1525.29 94.07 1522.34 94.07V94.57ZM1530.67 108.84V152.4H1531.17V108.84H1530.67ZM1530.67 152.4C1530.67 160.334 1531.77 166.109 1534.01 169.907L1534.44 169.653C1532.27 165.971 1531.17 160.306 1531.17 152.4H1530.67ZM1534.22 170.03L1561.06 170.25L1561.06 169.75L1534.22 169.53L1534.22 170.03ZM1529.79 58.68C1529.79 61.9571 1529.19 64.3679 1528 65.955C1526.82 67.528 1525.03 68.33 1522.56 68.33V68.83C1525.15 68.83 1527.1 67.982 1528.4 66.255C1529.68 64.5421 1530.29 62.0029 1530.29 58.68H1529.79ZM1522.56 68.33H1515.74V68.83H1522.56V68.33ZM1515.99 68.58V27.44H1515.49V68.58H1515.99ZM1515.74 27.69H1521.68V27.19H1515.74V27.69ZM1521.68 27.69C1526.55 27.69 1529.79 32.3565 1529.79 37.56H1530.29C1530.29 32.2035 1526.93 27.19 1521.68 27.19V27.69ZM1529.79 37.56V58.68H1530.29V37.56H1529.79ZM1628.51 111.04L1628.33 111.214L1628.33 111.22L1628.51 111.04ZM1679.11 60.44L1678.93 60.614L1678.93 60.6168L1679.11 60.44ZM1628.51 60.44L1628.33 60.2632L1628.33 60.266L1628.51 60.44ZM1617.92 85.74C1617.92 95.707 1621.46 104.129 1628.33 111.214L1628.69 110.866C1621.91 103.871 1618.42 95.573 1618.42 85.74H1617.92ZM1628.33 111.22C1635.42 118.084 1644.06 121.63 1654.03 121.63V121.13C1644.19 121.13 1635.68 117.636 1628.68 110.86L1628.33 111.22ZM1654.03 121.63C1663.99 121.63 1672.42 118.084 1679.28 111.217L1678.93 110.863C1672.16 117.636 1663.86 121.13 1654.03 121.13V121.63ZM1679.28 111.217C1686.37 104.131 1689.92 95.7075 1689.92 85.74H1689.42C1689.42 95.5724 1685.93 103.869 1678.93 110.863L1679.28 111.217ZM1689.92 85.74C1689.92 75.7724 1686.37 67.3492 1679.28 60.2632L1678.93 60.6168C1685.93 67.6108 1689.42 75.9075 1689.42 85.74H1689.92ZM1679.29 60.266C1672.42 53.1769 1663.99 49.63 1654.03 49.63V50.13C1663.86 50.13 1672.16 53.6231 1678.93 60.6139L1679.29 60.266ZM1654.03 49.63C1644.06 49.63 1635.42 53.176 1628.33 60.2632L1628.68 60.6168C1635.68 53.6239 1644.19 50.13 1654.03 50.13V49.63ZM1628.33 60.266C1621.46 67.3512 1617.92 75.773 1617.92 85.74H1618.42C1618.42 75.907 1621.91 67.6088 1628.69 60.6139L1628.33 60.266ZM1815.18 2.79999H1815.43V2.54999H1815.18V2.79999ZM1754.46 2.79999V2.54999H1754.21V2.79999H1754.46ZM1754.46 170H1754.21V170.25H1754.46V170ZM1781.3 170V170.25H1781.55V170H1781.3ZM1781.3 98.72V98.47H1781.05V98.72H1781.3ZM1802.64 98.72V98.97H1802.89V98.72H1802.64ZM1802.64 74.08H1802.89V73.83H1802.64V74.08ZM1781.3 74.08H1781.05V74.33H1781.3V74.08ZM1781.3 28.54V28.29H1781.05V28.54H1781.3ZM1815.18 28.54V28.79H1815.43V28.54H1815.18ZM1815.18 2.54999L1754.46 2.54999V3.04999L1815.18 3.04999V2.54999ZM1754.21 2.79999V170H1754.71V2.79999H1754.21ZM1754.46 170.25H1781.3V169.75H1754.46V170.25ZM1781.55 170V98.72H1781.05V170H1781.55ZM1781.3 98.97H1802.64V98.47H1781.3V98.97ZM1802.89 98.72V74.08H1802.39V98.72H1802.89ZM1802.64 73.83H1781.3V74.33H1802.64V73.83ZM1781.55 74.08V28.54H1781.05V74.08H1781.55ZM1781.3 28.79H1815.18V28.29H1781.3V28.79ZM1815.43 28.54V2.79999H1814.93V28.54H1815.43ZM1897.21 170L1897.2 170.25L1897.64 170.254L1897.42 169.873L1897.21 170ZM1884.01 86.4L1883.83 86.2199L1883.61 86.4306L1883.86 86.6048L1884.01 86.4ZM1884.45 11.16L1884.27 11.3368L1884.27 11.3402L1884.45 11.16ZM1825.05 2.79999V2.54999H1824.8V2.79999H1825.05ZM1825.05 170H1824.8V170.25H1825.05V170ZM1851.89 170V170.25H1852.14V170H1851.89ZM1851.89 94.32V94.07H1851.64V94.32H1851.89ZM1870.37 169.78L1870.15 169.907L1870.22 170.029L1870.36 170.03L1870.37 169.78ZM1851.89 68.58H1851.64V68.83H1851.89V68.58ZM1851.89 27.44V27.19H1851.64V27.44H1851.89ZM1897.42 169.873C1895.26 166.193 1894.16 160.308 1894.16 152.18H1893.66C1893.66 160.332 1894.75 166.327 1896.99 170.127L1897.42 169.873ZM1894.16 152.18V110.6H1893.66V152.18H1894.16ZM1894.16 110.6C1894.16 98.8952 1890.84 90.8797 1884.15 86.1952L1883.86 86.6048C1890.37 91.1603 1893.66 98.9848 1893.66 110.6H1894.16ZM1884.18 86.5801C1890.16 80.8201 1893.28 74.1576 1893.28 66.6H1892.78C1892.78 74.0024 1889.73 80.5399 1883.83 86.2199L1884.18 86.5801ZM1893.28 66.6V31.62H1892.78V66.6H1893.28ZM1893.28 31.62C1893.28 23.414 1890.39 16.5283 1884.62 10.9798L1884.27 11.3402C1889.94 16.7917 1892.78 23.546 1892.78 31.62H1893.28ZM1884.62 10.9832C1879.08 5.43716 1872.19 2.54999 1864.43 2.54999V3.04999C1872.06 3.04999 1878.81 5.88282 1884.27 11.3368L1884.62 10.9832ZM1864.43 2.54999L1825.05 2.54999V3.04999L1864.43 3.04999V2.54999ZM1824.8 2.79999V170H1825.3V2.79999H1824.8ZM1825.05 170.25H1851.89V169.75H1825.05V170.25ZM1852.14 170V94.32H1851.64V170H1852.14ZM1851.89 94.57H1858.49V94.07H1851.89V94.57ZM1858.49 94.57C1861.26 94.57 1863.32 95.7349 1864.71 98.0772C1866.1 100.44 1866.82 104.016 1866.82 108.84H1867.32C1867.32 103.984 1866.6 100.3 1865.14 97.8228C1863.66 95.3251 1861.43 94.07 1858.49 94.07V94.57ZM1866.82 108.84V152.4H1867.32V108.84H1866.82ZM1866.82 152.4C1866.82 160.334 1867.92 166.109 1870.15 169.907L1870.58 169.653C1868.42 165.971 1867.32 160.306 1867.32 152.4H1866.82ZM1870.36 170.03L1897.2 170.25L1897.21 169.75L1870.37 169.53L1870.36 170.03ZM1865.94 58.68C1865.94 61.9571 1865.33 64.3679 1864.14 65.955C1862.96 67.528 1861.18 68.33 1858.71 68.33V68.83C1861.29 68.83 1863.25 67.982 1864.54 66.255C1865.83 64.5421 1866.44 62.0029 1866.44 58.68H1865.94ZM1858.71 68.33H1851.89V68.83H1858.71V68.33ZM1852.14 68.58V27.44H1851.64V68.58H1852.14ZM1851.89 27.69H1857.83V27.19H1851.89V27.69ZM1857.83 27.69C1862.69 27.69 1865.94 32.3565 1865.94 37.56H1866.44C1866.44 32.2035 1863.08 27.19 1857.83 27.19V27.69ZM1865.94 37.56V58.68H1866.44V37.56H1865.94ZM1961.35 9.4L1961.52 9.21447L1961.52 9.21351L1961.35 9.4ZM1938.47 0.819988L1938.48 0.570062L1938.48 0.570056L1938.47 0.819988ZM1914.71 8.73999L1914.87 8.93062L1914.88 8.92934L1914.71 8.73999ZM1914.27 164.06L1914.1 164.245L1914.11 164.249L1914.27 164.06ZM1960.91 164.06L1961.08 164.249L1961.08 164.248L1960.91 164.06ZM1971.94 34.04C1971.94 23.636 1968.4 15.4262 1961.52 9.21447L1961.18 9.58552C1967.95 15.6938 1971.44 23.764 1971.44 34.04H1971.94ZM1961.52 9.21351C1955.31 3.6697 1947.55 0.791354 1938.48 0.570063L1938.47 1.06991C1947.43 1.28864 1955.08 4.13028 1961.19 9.58648L1961.52 9.21351ZM1938.48 0.570056C1928.96 0.34881 1920.98 3.00515 1914.55 8.55064L1914.88 8.92934C1921.2 3.47484 1929.06 0.851172 1938.47 1.06992L1938.48 0.570056ZM1914.55 8.54936C1907.23 14.7617 1903.46 23.1944 1903.46 34.04H1903.96C1903.96 23.3256 1907.68 15.0383 1914.87 8.93062L1914.55 8.54936ZM1903.46 34.04V138.76H1903.96V34.04H1903.46ZM1903.46 138.76C1903.46 149.383 1907.01 157.813 1914.1 164.245L1914.44 163.875C1907.46 157.547 1903.96 149.257 1903.96 138.76H1903.46ZM1914.11 164.249C1920.54 169.791 1928.52 172.67 1937.59 172.67V172.17C1928.63 172.17 1920.77 169.329 1914.44 163.871L1914.11 164.249ZM1937.59 172.67C1946.89 172.67 1954.65 169.79 1961.08 164.249L1960.75 163.871C1954.42 169.33 1946.78 172.17 1937.59 172.17V172.67ZM1961.08 164.248C1968.4 157.815 1971.94 149.383 1971.94 138.76H1971.44C1971.44 149.257 1967.95 157.545 1960.75 163.872L1961.08 164.248ZM1971.94 138.76V34.04H1971.44V138.76H1971.94ZM1943.72 140.96C1943.72 143.008 1943.18 144.53 1942.17 145.541C1941.16 146.551 1939.64 147.09 1937.59 147.09V147.59C1939.72 147.59 1941.39 147.029 1942.53 145.894C1943.66 144.76 1944.22 143.092 1944.22 140.96H1943.72ZM1937.59 147.09C1935.54 147.09 1934.02 146.551 1933.01 145.541C1932 144.53 1931.46 143.008 1931.46 140.96H1930.96C1930.96 143.092 1931.52 144.76 1932.66 145.894C1933.79 147.029 1935.46 147.59 1937.59 147.59V147.09ZM1931.46 140.96V32.06H1930.96V140.96H1931.46ZM1931.46 32.06C1931.46 30.0119 1932 28.5485 1933.01 27.5939C1934.02 26.6369 1935.54 26.15 1937.59 26.15V25.65C1935.47 25.65 1933.8 26.1531 1932.66 27.2311C1931.52 28.3115 1930.96 29.9281 1930.96 32.06H1931.46ZM1937.59 26.15C1939.65 26.15 1941.17 26.6369 1942.18 27.5939C1943.18 28.5485 1943.72 30.0119 1943.72 32.06H1944.22C1944.22 29.9281 1943.66 28.3115 1942.52 27.2311C1941.39 26.1531 1939.72 25.65 1937.59 25.65V26.15ZM1943.72 32.06V140.96H1944.22V32.06H1943.72ZM2062.09 2.79999H2062.34V2.54999H2062.09V2.79999ZM2037.45 2.79999V2.54999H2037.2V2.79999H2037.45ZM2037.45 78.7L2037.21 78.7772L2037.7 78.7H2037.45ZM2012.81 2.79999L2013.05 2.7228L2012.99 2.54999H2012.81V2.79999ZM1985.97 2.79999V2.54999H1985.72V2.79999H1985.97ZM1985.97 170H1985.72V170.25H1985.97V170ZM2009.29 170V170.25H2009.54V170H2009.29ZM2009.29 75.62L2009.53 75.5485L2009.04 75.62H2009.29ZM2037.45 170L2037.21 170.071L2037.27 170.25H2037.45V170ZM2062.09 170V170.25H2062.34V170H2062.09ZM2062.09 2.54999L2037.45 2.54999V3.04999L2062.09 3.04999V2.54999ZM2037.2 2.79999V78.7H2037.7V2.79999H2037.2ZM2037.69 78.6228L2013.05 2.7228L2012.57 2.87718L2037.21 78.7772L2037.69 78.6228ZM2012.81 2.54999L1985.97 2.54999V3.04999L2012.81 3.04999V2.54999ZM1985.72 2.79999V170H1986.22V2.79999H1985.72ZM1985.97 170.25H2009.29V169.75H1985.97V170.25ZM2009.54 170V75.62H2009.04V170H2009.54ZM2009.05 75.6915L2037.21 170.071L2037.69 169.929L2009.53 75.5485L2009.05 75.6915ZM2037.45 170.25H2062.09V169.75H2037.45V170.25ZM2062.34 170V2.79999H2061.84V170H2062.34ZM2139.82 2.79999H2140.07V2.54999H2139.82V2.79999ZM2072.06 2.79999V2.54999H2071.81V2.79999H2072.06ZM2072.06 28.32H2071.81V28.57H2072.06V28.32ZM2092.52 28.32H2092.77V28.07H2092.52V28.32ZM2092.52 170H2092.27V170.25H2092.52V170ZM2119.36 170V170.25H2119.61V170H2119.36ZM2119.36 28.32V28.07H2119.11V28.32H2119.36ZM2139.82 28.32V28.57H2140.07V28.32H2139.82ZM2139.82 2.54999L2072.06 2.54999V3.04999L2139.82 3.04999V2.54999ZM2071.81 2.79999V28.32H2072.31V2.79999H2071.81ZM2072.06 28.57L2092.52 28.57V28.07L2072.06 28.07V28.57ZM2092.27 28.32V170H2092.77V28.32H2092.27ZM2092.52 170.25H2119.36V169.75H2092.52V170.25ZM2119.61 170V28.32H2119.11V170H2119.61ZM2119.36 28.57L2139.82 28.57V28.07L2119.36 28.07V28.57ZM2140.07 28.32V2.79999H2139.57V28.32H2140.07ZM2261.01 144.26H2261.26V144.01H2261.01V144.26ZM2227.13 144.26H2226.88V144.51H2227.13V144.26ZM2227.13 98.72V98.47H2226.88V98.72H2227.13ZM2248.47 98.72V98.97H2248.72V98.72H2248.47ZM2248.47 74.08H2248.72V73.83H2248.47V74.08ZM2227.13 74.08H2226.88V74.33H2227.13V74.08ZM2227.13 28.54V28.29H2226.88V28.54H2227.13ZM2261.01 28.54V28.79H2261.26V28.54H2261.01ZM2261.01 2.79999H2261.26V2.54999H2261.01V2.79999ZM2200.29 2.79999V2.54999H2200.04V2.79999H2200.29ZM2200.29 170H2200.04V170.25H2200.29V170ZM2261.01 170V170.25H2261.26V170H2261.01ZM2261.01 144.01H2227.13V144.51H2261.01V144.01ZM2227.38 144.26V98.72H2226.88V144.26H2227.38ZM2227.13 98.97H2248.47V98.47H2227.13V98.97ZM2248.72 98.72V74.08H2248.22V98.72H2248.72ZM2248.47 73.83H2227.13V74.33H2248.47V73.83ZM2227.38 74.08V28.54H2226.88V74.08H2227.38ZM2227.13 28.79H2261.01V28.29H2227.13V28.79ZM2261.26 28.54V2.79999H2260.76V28.54H2261.26ZM2261.01 2.54999L2200.29 2.54999V3.04999L2261.01 3.04999V2.54999ZM2200.04 2.79999V170H2200.54V2.79999H2200.04ZM2200.29 170.25H2261.01V169.75H2200.29V170.25ZM2261.26 170V144.26H2260.76V170H2261.26ZM2351.5 2.79999H2351.75V2.54999H2351.5V2.79999ZM2326.86 2.79999V2.54999H2326.61V2.79999H2326.86ZM2326.86 78.7L2326.63 78.7772L2327.11 78.7H2326.86ZM2302.22 2.79999L2302.46 2.7228L2302.41 2.54999H2302.22V2.79999ZM2275.38 2.79999V2.54999H2275.13V2.79999H2275.38ZM2275.38 170H2275.13V170.25H2275.38V170ZM2298.7 170V170.25H2298.95V170H2298.7ZM2298.7 75.62L2298.94 75.5485L2298.45 75.62H2298.7ZM2326.86 170L2326.62 170.071L2326.68 170.25H2326.86V170ZM2351.5 170V170.25H2351.75V170H2351.5ZM2351.5 2.54999L2326.86 2.54999V3.04999L2351.5 3.04999V2.54999ZM2326.61 2.79999V78.7H2327.11V2.79999H2326.61ZM2327.1 78.6228L2302.46 2.7228L2301.99 2.87718L2326.63 78.7772L2327.1 78.6228ZM2302.22 2.54999L2275.38 2.54999V3.04999H2302.22V2.54999ZM2275.13 2.79999V170H2275.63V2.79999H2275.13ZM2275.38 170.25H2298.7V169.75H2275.38V170.25ZM2298.95 170V75.62H2298.45V170H2298.95ZM2298.46 75.6915L2326.62 170.071L2327.1 169.929L2298.94 75.5485L2298.46 75.6915ZM2326.86 170.25L2351.5 170.25V169.75L2326.86 169.75V170.25ZM2351.75 170V2.79999H2351.25V170H2351.75ZM2426.81 11.38L2426.64 11.5632L2426.64 11.5655L2426.81 11.38ZM2369.17 2.79999V2.54999H2368.92V2.79999H2369.17ZM2369.17 170H2368.92V170.25H2369.17V170ZM2426.59 161.64L2426.75 161.829L2426.75 161.828L2426.59 161.64ZM2407.01 141.62L2407.12 141.844L2407.13 141.838L2407.14 141.832L2407.01 141.62ZM2396.89 142.28H2396.64V142.53H2396.89V142.28ZM2396.89 28.54V28.29H2396.64V28.54H2396.89ZM2401.73 28.54V28.7902L2401.74 28.7898L2401.73 28.54ZM2437.4 36.24C2437.4 25.8378 2433.85 17.4073 2426.97 11.1945L2426.64 11.5655C2433.4 17.6727 2436.9 25.9622 2436.9 36.24H2437.4ZM2426.98 11.1968C2420.77 5.42999 2413 2.54999 2403.93 2.54999V3.04999C2412.89 3.04999 2420.53 5.89 2426.64 11.5632L2426.98 11.1968ZM2403.93 2.54999L2369.17 2.54999V3.04999L2403.93 3.04999V2.54999ZM2368.92 2.79999V170H2369.42V2.79999H2368.92ZM2369.17 170.25H2403.49V169.75H2369.17V170.25ZM2403.49 170.25C2412.56 170.25 2420.32 167.37 2426.75 161.829L2426.42 161.451C2420.09 166.91 2412.45 169.75 2403.49 169.75V170.25ZM2426.75 161.828C2433.85 155.615 2437.4 147.183 2437.4 136.78H2436.9C2436.9 147.057 2433.4 155.345 2426.42 161.452L2426.75 161.828ZM2437.4 136.78V36.24H2436.9V136.78H2437.4ZM2409.4 134.36C2409.4 138.082 2408.52 140.381 2406.87 141.408L2407.14 141.832C2409.02 140.659 2409.9 138.118 2409.9 134.36H2409.4ZM2406.9 141.396C2406.07 141.808 2404.59 142.03 2402.39 142.03V142.53C2404.59 142.53 2406.18 142.312 2407.12 141.844L2406.9 141.396ZM2402.39 142.03H2396.89V142.53H2402.39V142.03ZM2397.14 142.28V28.54H2396.64V142.28H2397.14ZM2396.89 28.79H2401.73V28.29H2396.89V28.79ZM2401.74 28.7898C2404.33 28.6819 2406.22 29.3827 2407.48 30.8219C2408.74 32.2698 2409.4 34.5091 2409.4 37.56H2409.9C2409.9 34.4509 2409.23 32.0702 2407.86 30.4931C2406.47 28.9072 2404.41 28.1781 2401.72 28.2902L2401.74 28.7898ZM2409.4 37.56V134.36H2409.9V37.56H2409.4ZM2559.59 11.38L2559.42 11.5632L2559.42 11.5655L2559.59 11.38ZM2501.95 2.79999V2.54999H2501.7V2.79999H2501.95ZM2501.95 170H2501.7V170.25H2501.95V170ZM2559.37 161.64L2559.53 161.829L2559.53 161.828L2559.37 161.64ZM2539.79 141.62L2539.9 141.844L2539.91 141.838L2539.92 141.832L2539.79 141.62ZM2529.67 142.28H2529.42V142.53H2529.67V142.28ZM2529.67 28.54V28.29H2529.42V28.54H2529.67ZM2534.51 28.54V28.7902L2534.52 28.7898L2534.51 28.54ZM2570.18 36.24C2570.18 25.8378 2566.64 17.4073 2559.76 11.1945L2559.42 11.5655C2566.18 17.6727 2569.68 25.9622 2569.68 36.24H2570.18ZM2559.76 11.1968C2553.55 5.42999 2545.79 2.54999 2536.71 2.54999V3.04999C2545.67 3.04999 2553.31 5.89 2559.42 11.5632L2559.76 11.1968ZM2536.71 2.54999L2501.95 2.54999V3.04999L2536.71 3.04999V2.54999ZM2501.7 2.79999V170H2502.2V2.79999H2501.7ZM2501.95 170.25L2536.27 170.25V169.75L2501.95 169.75V170.25ZM2536.27 170.25C2545.35 170.25 2553.11 167.37 2559.53 161.829L2559.21 161.451C2552.87 166.91 2545.23 169.75 2536.27 169.75V170.25ZM2559.53 161.828C2566.63 155.615 2570.18 147.183 2570.18 136.78H2569.68C2569.68 147.057 2566.18 155.345 2559.2 161.452L2559.53 161.828ZM2570.18 136.78V36.24H2569.68V136.78H2570.18ZM2542.18 134.36C2542.18 138.082 2541.3 140.381 2539.66 141.408L2539.92 141.832C2541.8 140.659 2542.68 138.118 2542.68 134.36H2542.18ZM2539.68 141.396C2538.85 141.808 2537.37 142.03 2535.17 142.03V142.53C2537.37 142.53 2538.96 142.312 2539.9 141.844L2539.68 141.396ZM2535.17 142.03H2529.67V142.53H2535.17V142.03ZM2529.92 142.28V28.54H2529.42V142.28H2529.92ZM2529.67 28.79H2534.51V28.29H2529.67V28.79ZM2534.52 28.7898C2537.11 28.6819 2539 29.3827 2540.26 30.8219C2541.52 32.2698 2542.18 34.5091 2542.18 37.56H2542.68C2542.68 34.4509 2542.01 32.0702 2540.64 30.4931C2539.25 28.9072 2537.19 28.1781 2534.5 28.2902L2534.52 28.7898ZM2542.18 37.56V134.36H2542.68V37.56H2542.18ZM2644.85 144.26H2645.1V144.01H2644.85V144.26ZM2610.97 144.26H2610.72V144.51H2610.97V144.26ZM2610.97 98.72V98.47H2610.72V98.72H2610.97ZM2632.31 98.72V98.97H2632.56V98.72H2632.31ZM2632.31 74.08H2632.56V73.83H2632.31V74.08ZM2610.97 74.08H2610.72V74.33H2610.97V74.08ZM2610.97 28.54V28.29H2610.72V28.54H2610.97ZM2644.85 28.54V28.79H2645.1V28.54H2644.85ZM2644.85 2.79999H2645.1V2.54999H2644.85V2.79999ZM2584.13 2.79999V2.54999H2583.88V2.79999H2584.13ZM2584.13 170H2583.88V170.25H2584.13V170ZM2644.85 170V170.25H2645.1V170H2644.85ZM2644.85 144.01H2610.97V144.51H2644.85V144.01ZM2611.22 144.26V98.72H2610.72V144.26H2611.22ZM2610.97 98.97H2632.31V98.47H2610.97V98.97ZM2632.56 98.72V74.08H2632.06V98.72H2632.56ZM2632.31 73.83H2610.97V74.33H2632.31V73.83ZM2611.22 74.08V28.54H2610.72V74.08H2611.22ZM2610.97 28.79L2644.85 28.79V28.29L2610.97 28.29V28.79ZM2645.1 28.54V2.79999H2644.6V28.54H2645.1ZM2644.85 2.54999L2584.13 2.54999V3.04999L2644.85 3.04999V2.54999ZM2583.88 2.79999V170H2584.38V2.79999H2583.88ZM2584.13 170.25H2644.85V169.75H2584.13V170.25ZM2645.1 170V144.26H2644.6V170H2645.1ZM2695.74 2.79999V2.54999H2695.52L2695.5 2.77151L2695.74 2.79999ZM2687.82 71.88L2687.57 71.9077L2688.07 71.9085L2687.82 71.88ZM2680.12 2.79999L2680.37 2.77229L2680.35 2.54999H2680.12V2.79999ZM2651.52 2.79999V2.54999H2651.24L2651.28 2.82842L2651.52 2.79999ZM2670.66 170L2670.42 170.028L2670.44 170.25H2670.66V170ZM2696.84 170V170.25H2697.06L2697.09 170.033L2696.84 170ZM2719.28 2.79999L2719.53 2.83324L2719.57 2.54999H2719.28V2.79999ZM2695.5 2.77151L2687.58 71.8515L2688.07 71.9085L2695.99 2.82846L2695.5 2.77151ZM2688.07 71.8523L2680.37 2.77229L2679.87 2.82768L2687.57 71.9077L2688.07 71.8523ZM2680.12 2.54999L2651.52 2.54999V3.04999L2680.12 3.04999V2.54999ZM2651.28 2.82842L2670.42 170.028L2670.91 169.972L2651.77 2.77156L2651.28 2.82842ZM2670.66 170.25L2696.84 170.25V169.75L2670.66 169.75V170.25ZM2697.09 170.033L2719.53 2.83324L2719.04 2.76673L2696.6 169.967L2697.09 170.033ZM2719.28 2.54999L2695.74 2.54999V3.04999L2719.28 3.04999V2.54999ZM2789.88 144.26H2790.13V144.01H2789.88V144.26ZM2756 144.26H2755.75V144.51H2756V144.26ZM2756 98.72V98.47H2755.75V98.72H2756ZM2777.34 98.72V98.97H2777.59V98.72H2777.34ZM2777.34 74.08H2777.59V73.83H2777.34V74.08ZM2756 74.08H2755.75V74.33H2756V74.08ZM2756 28.54V28.29H2755.75V28.54H2756ZM2789.88 28.54V28.79H2790.13V28.54H2789.88ZM2789.88 2.79999H2790.13V2.54999H2789.88V2.79999ZM2729.16 2.79999V2.54999H2728.91V2.79999H2729.16ZM2729.16 170H2728.91V170.25H2729.16V170ZM2789.88 170V170.25H2790.13V170H2789.88ZM2789.88 144.01H2756V144.51H2789.88V144.01ZM2756.25 144.26V98.72H2755.75V144.26H2756.25ZM2756 98.97H2777.34V98.47H2756V98.97ZM2777.59 98.72V74.08H2777.09V98.72H2777.59ZM2777.34 73.83H2756V74.33H2777.34V73.83ZM2756.25 74.08V28.54H2755.75V74.08H2756.25ZM2756 28.79H2789.88V28.29H2756V28.79ZM2790.13 28.54V2.79999H2789.63V28.54H2790.13ZM2789.88 2.54999L2729.16 2.54999V3.04999L2789.88 3.04999V2.54999ZM2728.91 2.79999V170H2729.41V2.79999H2728.91ZM2729.16 170.25H2789.88V169.75H2729.16V170.25ZM2790.13 170V144.26H2789.63V170H2790.13ZM2864.97 143.16H2865.22V142.91H2864.97V143.16ZM2831.09 143.16H2830.84V143.41H2831.09V143.16ZM2831.09 2.79999H2831.34V2.54999H2831.09V2.79999ZM2804.25 2.79999V2.54999H2804V2.79999H2804.25ZM2804.25 170H2804V170.25H2804.25V170ZM2864.97 170V170.25H2865.22V170H2864.97ZM2864.97 142.91L2831.09 142.91V143.41L2864.97 143.41V142.91ZM2831.34 143.16V2.79999H2830.84V143.16H2831.34ZM2831.09 2.54999L2804.25 2.54999V3.04999H2831.09V2.54999ZM2804 2.79999V170H2804.5V2.79999H2804ZM2804.25 170.25L2864.97 170.25V169.75L2804.25 169.75V170.25ZM2865.22 170V143.16H2864.72V170H2865.22ZM2929.17 9.4L2929.34 9.21447L2929.34 9.21351L2929.17 9.4ZM2906.29 0.819988L2906.3 0.570062L2906.3 0.570056L2906.29 0.819988ZM2882.53 8.73999L2882.69 8.93062L2882.7 8.92934L2882.53 8.73999ZM2882.09 164.06L2881.92 164.245L2881.93 164.249L2882.09 164.06ZM2928.73 164.06L2928.9 164.249L2928.9 164.248L2928.73 164.06ZM2939.76 34.04C2939.76 23.636 2936.22 15.4262 2929.34 9.21447L2929 9.58552C2935.77 15.6938 2939.26 23.764 2939.26 34.04H2939.76ZM2929.34 9.21351C2923.13 3.6697 2915.37 0.791354 2906.3 0.570063L2906.29 1.06991C2915.25 1.28864 2922.89 4.13028 2929.01 9.58648L2929.34 9.21351ZM2906.3 0.570056C2896.78 0.34881 2888.8 3.00515 2882.37 8.55064L2882.7 8.92934C2889.02 3.47484 2896.88 0.851172 2906.29 1.06992L2906.3 0.570056ZM2882.37 8.54936C2875.05 14.7617 2871.28 23.1944 2871.28 34.04H2871.78C2871.78 23.3256 2875.5 15.0383 2882.69 8.93062L2882.37 8.54936ZM2871.28 34.04V138.76H2871.78V34.04H2871.28ZM2871.28 138.76C2871.28 149.383 2874.83 157.813 2881.92 164.245L2882.26 163.875C2875.28 157.547 2871.78 149.257 2871.78 138.76H2871.28ZM2881.93 164.249C2888.36 169.791 2896.34 172.67 2905.41 172.67V172.17C2896.45 172.17 2888.59 169.329 2882.26 163.871L2881.93 164.249ZM2905.41 172.67C2914.71 172.67 2922.47 169.79 2928.9 164.249L2928.57 163.871C2922.24 169.33 2914.6 172.17 2905.41 172.17V172.67ZM2928.9 164.248C2936.22 157.815 2939.76 149.383 2939.76 138.76H2939.26C2939.26 149.257 2935.77 157.545 2928.57 163.872L2928.9 164.248ZM2939.76 138.76V34.04H2939.26V138.76H2939.76ZM2911.54 140.96C2911.54 143.008 2911 144.53 2909.99 145.541C2908.98 146.551 2907.46 147.09 2905.41 147.09V147.59C2907.54 147.59 2909.21 147.029 2910.35 145.894C2911.48 144.76 2912.04 143.092 2912.04 140.96H2911.54ZM2905.41 147.09C2903.36 147.09 2901.84 146.551 2900.83 145.541C2899.82 144.53 2899.28 143.008 2899.28 140.96H2898.78C2898.78 143.092 2899.34 144.76 2900.48 145.894C2901.61 147.029 2903.28 147.59 2905.41 147.59V147.09ZM2899.28 140.96V32.06H2898.78V140.96H2899.28ZM2899.28 32.06C2899.28 30.0119 2899.82 28.5485 2900.83 27.5939C2901.84 26.6369 2903.36 26.15 2905.41 26.15V25.65C2903.29 25.65 2901.62 26.1531 2900.48 27.2311C2899.34 28.3115 2898.78 29.9281 2898.78 32.06H2899.28ZM2905.41 26.15C2907.47 26.15 2908.99 26.6369 2910 27.5939C2911 28.5485 2911.54 30.0119 2911.54 32.06H2912.04C2912.04 29.9281 2911.48 28.3115 2910.34 27.2311C2909.21 26.1531 2907.54 25.65 2905.41 25.65V26.15ZM2911.54 32.06V140.96H2912.04V32.06H2911.54ZM3013.19 11.16L3013.01 11.3368L3013.02 11.3402L3013.19 11.16ZM2953.79 2.79999V2.54999H2953.54V2.79999H2953.79ZM2953.79 170H2953.54V170.25H2953.79V170ZM2980.63 170V170.25H2980.88V170H2980.63ZM2980.63 100.26V100.01H2980.38V100.26H2980.63ZM3013.19 91.9L3013.36 92.0802L3013.37 92.0768L3013.19 91.9ZM2987.45 74.3V74.0499L2987.44 74.0501L2987.45 74.3ZM2980.63 74.52H2980.38V74.7782L2980.64 74.7699L2980.63 74.52ZM2980.63 27.44V27.19H2980.38V27.44H2980.63ZM3022.02 31.62C3022.02 23.414 3019.14 16.5283 3013.36 10.9798L3013.02 11.3402C3018.69 16.7917 3021.52 23.546 3021.52 31.62H3022.02ZM3013.37 10.9832C3007.82 5.43716 3000.94 2.54999 2993.17 2.54999V3.04999C3000.8 3.04999 3007.56 5.88282 3013.01 11.3368L3013.37 10.9832ZM2993.17 2.54999L2953.79 2.54999V3.04999L2993.17 3.04999V2.54999ZM2953.54 2.79999V170H2954.04V2.79999H2953.54ZM2953.79 170.25H2980.63V169.75H2953.79V170.25ZM2980.88 170V100.26H2980.38V170H2980.88ZM2980.63 100.51H2993.39V100.01H2980.63V100.51ZM2993.39 100.51C3000.94 100.51 3007.6 97.6201 3013.36 92.0802L3013.02 91.7198C3007.34 97.1798 3000.8 100.01 2993.39 100.01V100.51ZM3013.37 92.0768C3019.13 86.3149 3022.02 79.6531 3022.02 72.32H3021.52C3021.52 79.5069 3018.69 86.0451 3013.01 91.7232L3013.37 92.0768ZM3022.02 72.32V31.62H3021.52V72.32H3022.02ZM2994.68 64.4C2994.68 67.6771 2994.08 70.0879 2992.89 71.675C2991.71 73.248 2989.92 74.05 2987.45 74.05V74.55C2990.04 74.55 2991.99 73.702 2993.29 71.975C2994.57 70.2621 2995.18 67.7229 2995.18 64.4H2994.68ZM2987.44 74.0501L2980.62 74.2701L2980.64 74.7699L2987.46 74.5499L2987.44 74.0501ZM2980.88 74.52V27.44H2980.38V74.52H2980.88ZM2980.63 27.69H2986.57V27.19H2980.63V27.69ZM2986.57 27.69C2991.44 27.69 2994.68 32.3565 2994.68 37.56H2995.18C2995.18 32.2035 2991.82 27.19 2986.57 27.19V27.69ZM2994.68 37.56V64.4H2995.18V37.56H2994.68ZM3092.4 144.26H3092.65V144.01H3092.4V144.26ZM3058.52 144.26H3058.27V144.51H3058.52V144.26ZM3058.52 98.72V98.47H3058.27V98.72H3058.52ZM3079.86 98.72V98.97H3080.11V98.72H3079.86ZM3079.86 74.08H3080.11V73.83H3079.86V74.08ZM3058.52 74.08H3058.27V74.33H3058.52V74.08ZM3058.52 28.54V28.29H3058.27V28.54H3058.52ZM3092.4 28.54V28.79H3092.65V28.54H3092.4ZM3092.4 2.79999H3092.65V2.54999H3092.4V2.79999ZM3031.68 2.79999V2.54999H3031.43V2.79999H3031.68ZM3031.68 170H3031.43V170.25H3031.68V170ZM3092.4 170V170.25H3092.65V170H3092.4ZM3092.4 144.01H3058.52V144.51H3092.4V144.01ZM3058.77 144.26V98.72H3058.27V144.26H3058.77ZM3058.52 98.97L3079.86 98.97V98.47L3058.52 98.47V98.97ZM3080.11 98.72V74.08H3079.61V98.72H3080.11ZM3079.86 73.83L3058.52 73.83V74.33L3079.86 74.33V73.83ZM3058.77 74.08V28.54H3058.27V74.08H3058.77ZM3058.52 28.79H3092.4V28.29H3058.52V28.79ZM3092.65 28.54V2.79999H3092.15V28.54H3092.65ZM3092.4 2.54999L3031.68 2.54999V3.04999L3092.4 3.04999V2.54999ZM3031.43 2.79999V170H3031.93V2.79999H3031.43ZM3031.68 170.25L3092.4 170.25V169.75L3031.68 169.75V170.25ZM3092.65 170V144.26H3092.15V170H3092.65ZM3178.93 170L3178.93 170.25L3179.37 170.254L3179.14 169.873L3178.93 170ZM3165.73 86.4L3165.56 86.2199L3165.34 86.4306L3165.59 86.6048L3165.73 86.4ZM3166.17 11.16L3165.99 11.3368L3166 11.3402L3166.17 11.16ZM3106.77 2.79999V2.54999H3106.52V2.79999H3106.77ZM3106.77 170H3106.52V170.25H3106.77V170ZM3133.61 170V170.25H3133.86V170H3133.61ZM3133.61 94.32V94.07H3133.36V94.32H3133.61ZM3152.09 169.78L3151.87 169.907L3151.95 170.029L3152.09 170.03L3152.09 169.78ZM3133.61 68.58H3133.36V68.83H3133.61V68.58ZM3133.61 27.44V27.19H3133.36V27.44H3133.61ZM3179.14 169.873C3176.98 166.193 3175.88 160.308 3175.88 152.18H3175.38C3175.38 160.332 3176.48 166.327 3178.71 170.127L3179.14 169.873ZM3175.88 152.18V110.6H3175.38V152.18H3175.88ZM3175.88 110.6C3175.88 98.8952 3172.56 90.8797 3165.87 86.1952L3165.59 86.6048C3172.09 91.1603 3175.38 98.9848 3175.38 110.6H3175.88ZM3165.9 86.5801C3171.88 80.8201 3175 74.1576 3175 66.6H3174.5C3174.5 74.0024 3171.45 80.5399 3165.56 86.2199L3165.9 86.5801ZM3175 66.6V31.62H3174.5V66.6H3175ZM3175 31.62C3175 23.414 3172.11 16.5283 3166.34 10.9798L3166 11.3402C3171.67 16.7917 3174.5 23.546 3174.5 31.62H3175ZM3166.35 10.9832C3160.8 5.43716 3153.92 2.54999 3146.15 2.54999V3.04999C3153.78 3.04999 3160.54 5.88282 3165.99 11.3368L3166.35 10.9832ZM3146.15 2.54999L3106.77 2.54999V3.04999L3146.15 3.04999V2.54999ZM3106.52 2.79999V170H3107.02V2.79999H3106.52ZM3106.77 170.25H3133.61V169.75H3106.77V170.25ZM3133.86 170V94.32H3133.36V170H3133.86ZM3133.61 94.57H3140.21V94.07H3133.61V94.57ZM3140.21 94.57C3142.98 94.57 3145.04 95.7349 3146.43 98.0772C3147.82 100.44 3148.54 104.016 3148.54 108.84H3149.04C3149.04 103.984 3148.32 100.3 3146.86 97.8228C3145.38 95.3251 3143.16 94.07 3140.21 94.07V94.57ZM3148.54 108.84V152.4H3149.04V108.84H3148.54ZM3148.54 152.4C3148.54 160.334 3149.64 166.109 3151.87 169.907L3152.3 169.653C3150.14 165.971 3149.04 160.306 3149.04 152.4H3148.54ZM3152.09 170.03L3178.93 170.25L3178.93 169.75L3152.09 169.53L3152.09 170.03ZM3147.66 58.68C3147.66 61.9571 3147.06 64.3679 3145.87 65.955C3144.69 67.528 3142.9 68.33 3140.43 68.33V68.83C3143.02 68.83 3144.97 67.982 3146.27 66.255C3147.55 64.5421 3148.16 62.0029 3148.16 58.68H3147.66ZM3140.43 68.33H3133.61V68.83H3140.43V68.33ZM3133.86 68.58V27.44H3133.36V68.58H3133.86ZM3133.61 27.69H3139.55V27.19H3133.61V27.69ZM3139.55 27.69C3144.42 27.69 3147.66 32.3565 3147.66 37.56H3148.16C3148.16 32.2035 3144.8 27.19 3139.55 27.19V27.69ZM3147.66 37.56V58.68H3148.16V37.56H3147.66Z" fill="#FF0000"/>
</svg>
